<svg width="165" height="165" viewBox="0 0 165 165" fill="none" xmlns="http://www.w3.org/2000/svg">
<rect width="165" height="165" rx="20" fill="url(#paint0_linear_334_470)"/>
<path d="M104 103C103.29 103 102.395 103.021 101.259 101.195C100.124 99.3686 100 96.7954 100 95.8409L100 82" stroke="#599A14" stroke-width="5" stroke-linejoin="round"/>
<path d="M76.507 76.6097L68.4181 105.626H61.5736L56.1395 84.9654L50.4565 105.626L43.6535 105.667L35.855 69.1478L42.0772 70.7067L47.1795 99.1409L53.0699 76.6097H59.541L65.0995 99.0162L70.2433 76.6097H76.507ZM122.019 105.626L114.22 95.8153V105.626H108.413V74.8638H114.22V92.3649L121.936 82.5959H129.485L119.364 94.1524L129.568 105.626H122.019ZM154 93.612C154 94.4434 153.945 95.1917 153.834 95.8568H137.034C137.172 97.5197 137.753 98.8222 138.776 99.7645C139.8 100.707 141.058 101.178 142.551 101.178C144.708 101.178 146.243 100.249 147.156 98.3926H153.419C152.756 100.61 151.483 102.439 149.603 103.88C147.723 105.293 145.413 106 142.676 106C140.464 106 138.472 105.515 136.702 104.545C134.96 103.547 133.591 102.148 132.596 100.346C131.628 98.5451 131.144 96.4666 131.144 94.1109C131.144 91.7275 131.628 89.6351 132.596 87.8337C133.563 86.0324 134.919 84.6467 136.661 83.6767C138.403 82.7067 140.408 82.2217 142.676 82.2217C144.861 82.2217 146.81 82.6929 148.525 83.6351C150.267 84.5774 151.608 85.9215 152.548 87.6675C153.516 89.3857 154 91.3672 154 93.612ZM147.985 91.9492C147.957 90.4527 147.418 89.261 146.367 88.3742C145.317 87.4596 144.031 87.0023 142.51 87.0023C141.071 87.0023 139.855 87.4458 138.859 88.3326C137.892 89.1917 137.296 90.3973 137.076 91.9492H147.985Z" fill="url(#paint1_linear_334_470)"/>
<path d="M84.2028 90.4499L89.5728 93.6414L92.1021 89.3856M94.6314 85.1298C95.6892 85.7584 96.6058 86.6011 97.3289 87.6097C98.0519 88.6182 98.5673 89.7729 98.8455 91.0078C99.1238 92.2427 99.1594 93.5337 98.9505 94.8069C98.7416 96.0802 98.2921 97.3108 97.6278 98.4286C96.9635 99.5463 96.0974 100.529 95.0788 101.321C94.0603 102.114 92.9093 102.699 91.6916 103.045C90.4739 103.391 89.2133 103.49 87.9818 103.337C86.7503 103.184 85.572 102.782 84.5142 102.153C82.3779 100.883 80.862 98.7689 80.3001 96.2749C79.7382 93.7809 80.1762 91.1115 81.5178 88.8541C82.8594 86.5967 84.9948 84.9361 87.454 84.2377C89.9133 83.5392 92.4951 83.8601 94.6314 85.1298Z" stroke="url(#paint2_linear_334_470)" stroke-width="4" stroke-linecap="round" stroke-linejoin="round"/>
<path d="M32 106V66.8L25.1414 57L12 106H32Z" fill="url(#paint3_linear_334_470)"/>
<defs>
<linearGradient id="paint0_linear_334_470" x1="-4" y1="-11.5" x2="165" y2="165" gradientUnits="userSpaceOnUse">
<stop stop-color="#A1FFCE"/>
<stop offset="0.540625" stop-color="#C2FC75"/>
<stop offset="1" stop-color="#FCFF58"/>
</linearGradient>
<linearGradient id="paint1_linear_334_470" x1="14" y1="74.5" x2="155.5" y2="92" gradientUnits="userSpaceOnUse">
<stop stop-color="#7CB913" stop-opacity="0.960088"/>
<stop offset="0.149973" stop-color="#9ECC4E" stop-opacity="0.960088"/>
<stop offset="0.301381" stop-color="#6C9810" stop-opacity="0.940833"/>
<stop offset="0.598958" stop-color="#50AC25" stop-opacity="0.975175"/>
<stop offset="1" stop-color="#498E00"/>
</linearGradient>
<linearGradient id="paint2_linear_334_470" x1="84.4583" y1="85.0478" x2="100.361" y2="98.5768" gradientUnits="userSpaceOnUse">
<stop stop-color="#F9B964"/>
<stop offset="1" stop-color="#599A14"/>
</linearGradient>
<linearGradient id="paint3_linear_334_470" x1="15.7547" y1="70.1047" x2="39.1588" y2="73.5479" gradientUnits="userSpaceOnUse">
<stop stop-color="#FABA64"/>
<stop offset="1" stop-color="#B7C754" stop-opacity="0.971147"/>
</linearGradient>
</defs>
</svg>
