<svg width="165" height="165" viewBox="0 0 165 165" fill="none" xmlns="http://www.w3.org/2000/svg">
<rect width="165" height="165" rx="20" fill="url(#paint0_linear_334_475)"/>
<rect width="165" height="165" rx="20" fill="#F0F0F0" fill-opacity="0.2"/>
<path d="M37.1 60.5L34 100.6H11L29 49L37.1 60.5ZM79.9528 72.68L72.1528 100.6H65.5528L60.3128 80.72L54.8328 100.6L48.2728 100.64L40.7528 65.5L46.7528 67L51.6728 94.36L57.3528 72.68H63.5928L68.9528 94.24L73.9128 72.68H79.9528ZM82.1694 89.44C82.1694 87.2 82.6094 85.2133 83.4894 83.48C84.396 81.7467 85.6094 80.4133 87.1294 79.48C88.676 78.5467 90.396 78.08 92.2894 78.08C93.9427 78.08 95.3827 78.4133 96.6094 79.08C97.8627 79.7467 98.8627 80.5867 99.6094 81.6V78.44H105.249V100.6H99.6094V97.36C98.8894 98.4 97.8894 99.2667 96.6094 99.96C95.356 100.627 93.9027 100.96 92.2494 100.96C90.3827 100.96 88.676 100.48 87.1294 99.52C85.6094 98.56 84.396 97.2133 83.4894 95.48C82.6094 93.72 82.1694 91.7067 82.1694 89.44ZM99.6094 89.52C99.6094 88.16 99.3427 87 98.8094 86.04C98.276 85.0533 97.556 84.3067 96.6494 83.8C95.7427 83.2667 94.7694 83 93.7294 83C92.6894 83 91.7294 83.2533 90.8494 83.76C89.9694 84.2667 89.2494 85.0133 88.6894 86C88.156 86.96 87.8894 88.1067 87.8894 89.44C87.8894 90.7733 88.156 91.9467 88.6894 92.96C89.2494 93.9467 89.9694 94.7067 90.8494 95.24C91.756 95.7733 92.716 96.04 93.7294 96.04C94.7694 96.04 95.7427 95.7867 96.6494 95.28C97.556 94.7467 98.276 94 98.8094 93.04C99.3427 92.0533 99.6094 90.88 99.6094 89.52ZM123.839 100.6L116.319 91.16V100.6H110.719V71H116.319V87.84L123.759 78.44H131.039L121.279 89.56L131.119 100.6H123.839ZM154.678 89.04C154.678 89.84 154.625 90.56 154.518 91.2H138.318C138.451 92.8 139.011 94.0533 139.998 94.96C140.985 95.8667 142.198 96.32 143.638 96.32C145.718 96.32 147.198 95.4267 148.078 93.64H154.118C153.478 95.7733 152.251 97.5333 150.438 98.92C148.625 100.28 146.398 100.96 143.758 100.96C141.625 100.96 139.705 100.493 137.998 99.56C136.318 98.6 134.998 97.2533 134.038 95.52C133.105 93.7867 132.638 91.7867 132.638 89.52C132.638 87.2267 133.105 85.2133 134.038 83.48C134.971 81.7467 136.278 80.4133 137.958 79.48C139.638 78.5467 141.571 78.08 143.758 78.08C145.865 78.08 147.745 78.5333 149.398 79.44C151.078 80.3467 152.371 81.64 153.278 83.32C154.211 84.9733 154.678 86.88 154.678 89.04ZM148.878 87.44C148.851 86 148.331 84.8533 147.318 84C146.305 83.12 145.065 82.68 143.598 82.68C142.211 82.68 141.038 83.1067 140.078 83.96C139.145 84.7867 138.571 85.9467 138.358 87.44H148.878Z" fill="url(#paint1_linear_334_475)"/>
<path d="M37.1 60.5L34 100.6H11L29 49L37.1 60.5ZM79.9528 72.68L72.1528 100.6H65.5528L60.3128 80.72L54.8328 100.6L48.2728 100.64L40.7528 65.5L46.7528 67L51.6728 94.36L57.3528 72.68H63.5928L68.9528 94.24L73.9128 72.68H79.9528ZM82.1694 89.44C82.1694 87.2 82.6094 85.2133 83.4894 83.48C84.396 81.7467 85.6094 80.4133 87.1294 79.48C88.676 78.5467 90.396 78.08 92.2894 78.08C93.9427 78.08 95.3827 78.4133 96.6094 79.08C97.8627 79.7467 98.8627 80.5867 99.6094 81.6V78.44H105.249V100.6H99.6094V97.36C98.8894 98.4 97.8894 99.2667 96.6094 99.96C95.356 100.627 93.9027 100.96 92.2494 100.96C90.3827 100.96 88.676 100.48 87.1294 99.52C85.6094 98.56 84.396 97.2133 83.4894 95.48C82.6094 93.72 82.1694 91.7067 82.1694 89.44ZM99.6094 89.52C99.6094 88.16 99.3427 87 98.8094 86.04C98.276 85.0533 97.556 84.3067 96.6494 83.8C95.7427 83.2667 94.7694 83 93.7294 83C92.6894 83 91.7294 83.2533 90.8494 83.76C89.9694 84.2667 89.2494 85.0133 88.6894 86C88.156 86.96 87.8894 88.1067 87.8894 89.44C87.8894 90.7733 88.156 91.9467 88.6894 92.96C89.2494 93.9467 89.9694 94.7067 90.8494 95.24C91.756 95.7733 92.716 96.04 93.7294 96.04C94.7694 96.04 95.7427 95.7867 96.6494 95.28C97.556 94.7467 98.276 94 98.8094 93.04C99.3427 92.0533 99.6094 90.88 99.6094 89.52ZM123.839 100.6L116.319 91.16V100.6H110.719V71H116.319V87.84L123.759 78.44H131.039L121.279 89.56L131.119 100.6H123.839ZM154.678 89.04C154.678 89.84 154.625 90.56 154.518 91.2H138.318C138.451 92.8 139.011 94.0533 139.998 94.96C140.985 95.8667 142.198 96.32 143.638 96.32C145.718 96.32 147.198 95.4267 148.078 93.64H154.118C153.478 95.7733 152.251 97.5333 150.438 98.92C148.625 100.28 146.398 100.96 143.758 100.96C141.625 100.96 139.705 100.493 137.998 99.56C136.318 98.6 134.998 97.2533 134.038 95.52C133.105 93.7867 132.638 91.7867 132.638 89.52C132.638 87.2267 133.105 85.2133 134.038 83.48C134.971 81.7467 136.278 80.4133 137.958 79.48C139.638 78.5467 141.571 78.08 143.758 78.08C145.865 78.08 147.745 78.5333 149.398 79.44C151.078 80.3467 152.371 81.64 153.278 83.32C154.211 84.9733 154.678 86.88 154.678 89.04ZM148.878 87.44C148.851 86 148.331 84.8533 147.318 84C146.305 83.12 145.065 82.68 143.598 82.68C142.211 82.68 141.038 83.1067 140.078 83.96C139.145 84.7867 138.571 85.9467 138.358 87.44H148.878Z" fill="#705045" fill-opacity="0.22"/>
<defs>
<linearGradient id="paint0_linear_334_475" x1="-4" y1="-11.5" x2="165" y2="165" gradientUnits="userSpaceOnUse">
<stop stop-color="#A1FFCE"/>
<stop offset="0.540625" stop-color="#C2FC75"/>
<stop offset="1" stop-color="#FCFF58"/>
</linearGradient>
<linearGradient id="paint1_linear_334_475" x1="31.5" y1="74.0001" x2="162.5" y2="95.4999" gradientUnits="userSpaceOnUse">
<stop stop-color="#FDB765"/>
<stop offset="0.061458" stop-color="#EDE298"/>
<stop offset="0.0874996" stop-color="#F5C162"/>
<stop offset="0.191666" stop-color="#FCB26D"/>
<stop offset="0.546875" stop-color="#96C7FC"/>
<stop offset="1" stop-color="#FA8A23"/>
</linearGradient>
</defs>
</svg>
