<svg width="165" height="165" viewBox="0 0 165 165" fill="none" xmlns="http://www.w3.org/2000/svg">
<rect width="165" height="165" rx="20" fill="url(#paint0_linear_334_470)"/>
<path d="M37.1 67.5L34 107.6H11L29 56L37.1 67.5ZM79.9528 79.68L72.1528 107.6H65.5528L60.3128 87.72L54.8328 107.6L48.2728 107.64L40.7528 72.5L46.7528 74L51.6728 101.36L57.3528 79.68H63.5928L68.9528 101.24L73.9128 79.68H79.9528ZM82.1694 96.44C82.1694 94.2 82.6094 92.2133 83.4894 90.48C84.396 88.7467 85.6094 87.4133 87.1294 86.48C88.676 85.5467 90.396 85.08 92.2894 85.08C93.9427 85.08 95.3827 85.4133 96.6094 86.08C97.8627 86.7467 98.8627 87.5867 99.6094 88.6V85.44H105.249V107.6H99.6094V104.36C98.8894 105.4 97.8894 106.267 96.6094 106.96C95.356 107.627 93.9027 107.96 92.2494 107.96C90.3827 107.96 88.676 107.48 87.1294 106.52C85.6094 105.56 84.396 104.213 83.4894 102.48C82.6094 100.72 82.1694 98.7067 82.1694 96.44ZM99.6094 96.52C99.6094 95.16 99.3427 94 98.8094 93.04C98.276 92.0533 97.556 91.3067 96.6494 90.8C95.7427 90.2667 94.7694 90 93.7294 90C92.6894 90 91.7294 90.2533 90.8494 90.76C89.9694 91.2667 89.2494 92.0133 88.6894 93C88.156 93.96 87.8894 95.1067 87.8894 96.44C87.8894 97.7733 88.156 98.9467 88.6894 99.96C89.2494 100.947 89.9694 101.707 90.8494 102.24C91.756 102.773 92.716 103.04 93.7294 103.04C94.7694 103.04 95.7427 102.787 96.6494 102.28C97.556 101.747 98.276 101 98.8094 100.04C99.3427 99.0533 99.6094 97.88 99.6094 96.52ZM123.839 107.6L116.319 98.16V107.6H110.719V78H116.319V94.84L123.759 85.44H131.039L121.279 96.56L131.119 107.6H123.839ZM154.678 96.04C154.678 96.84 154.625 97.56 154.518 98.2H138.318C138.451 99.8 139.011 101.053 139.998 101.96C140.985 102.867 142.198 103.32 143.638 103.32C145.718 103.32 147.198 102.427 148.078 100.64H154.118C153.478 102.773 152.251 104.533 150.438 105.92C148.625 107.28 146.398 107.96 143.758 107.96C141.625 107.96 139.705 107.493 137.998 106.56C136.318 105.6 134.998 104.253 134.038 102.52C133.105 100.787 132.638 98.7867 132.638 96.52C132.638 94.2267 133.105 92.2133 134.038 90.48C134.971 88.7467 136.278 87.4133 137.958 86.48C139.638 85.5467 141.571 85.08 143.758 85.08C145.865 85.08 147.745 85.5333 149.398 86.44C151.078 87.3467 152.371 88.64 153.278 90.32C154.211 91.9733 154.678 93.88 154.678 96.04ZM148.878 94.44C148.851 93 148.331 91.8533 147.318 91C146.305 90.12 145.065 89.68 143.598 89.68C142.211 89.68 141.038 90.1067 140.078 90.96C139.145 91.7867 138.571 92.9467 138.358 94.44H148.878Z" fill="url(#paint1_linear_334_470)"/>
<defs>
<linearGradient id="paint0_linear_334_470" x1="-4" y1="-11.5" x2="165" y2="165" gradientUnits="userSpaceOnUse">
<stop stop-color="#A1FFCE"/>
<stop offset="0.540625" stop-color="#C2FC75"/>
<stop offset="1" stop-color="#FCFF58"/>
</linearGradient>
<linearGradient id="paint1_linear_334_470" x1="11" y1="82" x2="161" y2="99.5" gradientUnits="userSpaceOnUse">
<stop stop-color="#409159"/>
<stop offset="0.129166" stop-color="#527D46" stop-opacity="0.958189"/>
<stop offset="0.260417" stop-color="#646933" stop-opacity="0.915702"/>
<stop offset="0.583333" stop-color="#4C880B"/>
<stop offset="1" stop-color="#6E5C45" stop-opacity="0.88"/>
</linearGradient>
</defs>
</svg>
