<svg width="393" height="852" viewBox="0 0 393 852" fill="none" xmlns="http://www.w3.org/2000/svg">
<mask id="mask0_97_453" style="mask-type:alpha" maskUnits="userSpaceOnUse" x="-16" y="0" width="426" height="866">
<rect x="-15.5" y="0.5" width="425" height="865" fill="#D9D9D9" stroke="black"/>
</mask>
<g mask="url(#mask0_97_453)">
<mask id="mask1_97_453" style="mask-type:alpha" maskUnits="userSpaceOnUse" x="-10" y="-224" width="783" height="597">
<rect x="-9.5" y="-223.5" width="782" height="596" fill="#D9D9D9" stroke="black"/>
</mask>
<g mask="url(#mask1_97_453)">
<path d="M9.41046 825.115H759.885V-224H9.41046V825.115Z" fill="#C0E1CF"/>
<path d="M-15.8904 -197.259C-15.8904 -197.259 248.369 0.464233 765.48 61.2986C765.48 245.71 765.26 349.12 765.26 349.12L8.82509 298.943L-15.8904 -197.259Z" fill="#D0EDDD"/>
<path d="M9.41046 292.148V24.8178C93.6749 59.7901 282.325 121.782 588.807 137.511C584.995 140.907 580.521 144.441 575.281 148.075L515.238 141.936L471.992 159.032C471.992 159.032 464.072 158.843 455.744 158.843C447.415 158.843 438.677 159.032 437.043 159.787C433.774 161.296 290.712 224.152 290.712 224.152L290.076 224.47C278.359 226.238 266.339 227.904 253.832 229.459C203.497 235.714 160.508 237.122 132.015 237.122C108.701 237.122 95.0947 236.18 95.0947 236.18L121.67 288.515C71.0639 290.019 28.6162 291.474 9.41046 292.148Z" fill="#DFF2E8"/>
<path d="M365.638 196.243C365.638 196.243 338.734 180.905 334.461 183.922C330.188 186.941 278.896 193.225 270.096 196.998C261.296 200.769 248.977 204.289 248.977 204.289C248.977 204.289 236.405 200.015 233.389 201.774C230.372 203.535 223.834 204.792 223.834 204.792C223.834 204.792 193.662 198.506 175.812 200.769C157.96 203.032 155.194 214.598 132.063 211.58C108.931 208.563 102.143 202.78 102.143 202.78L59.6513 209.821L43.5599 204.54C43.5599 204.54 18.1666 210.324 15.1491 211.078C12.1313 211.832 4.83972 211.078 4.83972 211.078L9.86862 226.414L254.508 262.62L365.638 196.243Z" fill="#BFE2D0"/>
<path d="M346.53 207.055C346.53 207.055 313.594 198.255 308.565 199.764C303.537 201.272 265.067 217.614 250.485 217.363C235.902 217.111 207.743 213.843 207.743 213.843C207.743 213.843 198.189 220.882 184.612 221.888C171.034 222.894 163.492 221.135 163.492 221.135L110.944 240.242L251.491 254.07L346.53 207.055Z" fill="#ABD1BD"/>
<path d="M581.614 148.723L515.238 141.936L471.992 159.032C471.992 159.032 440.312 158.277 437.043 159.787C433.774 161.296 290.712 224.152 290.712 224.152L268.588 235.213L522.278 211.329L581.614 148.723Z" fill="#93B9B3"/>
<path d="M766.584 180.682C766.584 180.682 623.531 163.446 517.36 182.061C411.191 200.675 345.351 218.083 253.832 229.459C162.312 240.833 95.0947 236.18 95.0947 236.18L128.703 302.364H763.134L766.584 180.682Z" fill="#2D465F"/>
<path d="M236.305 285.655C236.305 285.655 373.097 216.398 398.476 209.516C405.36 208.655 405.36 208.655 405.36 208.655C405.36 208.655 290.505 294.688 292.225 294.688C333.952 274.04 376.108 247.801 376.108 247.801L335.243 291.678L411.382 238.766C396.755 260.705 364.494 288.236 364.494 288.236L234.154 285.655" fill="#385872"/>
<path d="M452.377 286.882L445.338 262.493L438.298 287.637L435.531 276.322L432.263 287.385L424.218 286.882L418.686 263.501L413.155 279.088L411.143 269.785L409.131 283.613L402.343 262.996L396.31 280.345L393.041 264.253L383.989 288.138L377.451 262.493L370.412 283.865L364.526 261.603L359.483 277.115L355.218 262.508L351.858 274.271L348.367 257.983L340.225 293.402L332.598 266.256L327.298 285.517L323.937 274.4L319.283 289.135L452.377 286.882Z" fill="#20313D"/>
<path d="M383.269 288.49L377.84 248.805L375.383 264.834L371.765 248.418L365.818 276.209L358.32 253.33L352.634 279.828L349.66 287.325L342.421 250.485L338.931 273.235L334.407 248.547L330.012 270.651L325.101 248.805L318.896 281.639L311.14 247.513C311.14 247.513 300.281 290.04 300.411 288.618C300.54 287.196 295.628 255.785 295.628 255.785L291.75 284.094L286.449 249.063L279.081 279.053L276.238 255.269C276.238 255.269 272.232 279.571 272.102 279.183C271.972 278.794 268.224 250.097 268.224 250.097L256.849 291.72L383.269 288.49Z" fill="#263B4D"/>
<path d="M296.145 292.109L288.648 264.058L284.512 280.992L279.341 253.846L274.558 279.183L271.454 265.869C271.454 265.869 266.673 286.68 266.673 285.775C266.673 284.868 261.114 250.357 261.114 250.357L253.746 291.333L296.145 292.109Z" fill="#20313D"/>
<path d="M380.672 299.853L373.175 271.802L369.039 288.735L363.868 261.59L359.085 286.926L355.982 273.611C355.982 273.611 351.201 294.423 351.201 293.518C351.201 292.613 345.641 258.099 345.641 258.099L338.273 299.077L380.672 299.853Z" fill="#20313D"/>
<path d="M324.669 287.886C324.669 287.886 240.658 266.169 193.197 257.897C145.736 249.624 33.902 221.703 -1.01227 219.633L1.39551 300.517L324.669 287.886Z" fill="#305F5E"/>
<path d="M-1.5962 292.54C-1.5962 292.54 296.748 281.682 390.336 284.266C483.924 286.852 763.653 273.925 763.653 273.925L766.755 365.963L-3.1474 319.943L-1.5962 292.54Z" fill="#638B66"/>
<path d="M-16.074 301.847C-16.074 301.847 233.666 300.295 306.572 300.295C379.477 300.295 644.212 302.882 764.687 347.865C764.169 434.214 764.687 820.729 764.687 820.729H-1.07913L-16.074 301.847Z" fill="#A9CDC2"/>
<path d="M499.645 368.963C499.645 368.963 479.528 408.024 374.036 428.349C268.543 448.674 -10.1909 448.674 -10.1909 448.674L-7.28684 391.57L499.645 368.963Z" fill="#7EAEAA"/>
<path d="M-14.342 309.562C-14.342 309.562 328.462 307.943 401.903 321.441C475.345 334.943 499.645 368.963 499.645 368.963L374.362 383.002C374.362 383.002 282.021 390.023 280.401 390.023C278.782 390.023 218.3 392.184 218.3 392.184L-12.7224 405.144L-14.342 309.562Z" fill="#688429"/>
<path d="M455.329 337.629C454.039 338.261 453.184 339.258 453.155 340.801C453.029 347.462 457.177 351.232 444.859 351.232C432.539 351.232 448.629 358.777 431.785 358.651C414.941 358.523 430.652 370.592 408.656 370.969C386.658 371.346 388.67 384.293 358.375 377.38C328.08 370.466 288.485 373.608 275.914 379.013C265.581 383.458 239.28 389.683 230.247 391.759C247.96 391.129 279.242 390.023 280.401 390.023C282.021 390.023 374.362 383.002 374.362 383.002L449.342 374.601L499.645 368.963C499.645 368.963 487.717 352.268 455.329 337.629Z" fill="#2D465F"/>
<path d="M337.258 303.487C337.258 303.487 382.817 300.379 382.195 296.334C381.573 292.292 206.649 286.072 206.649 286.072L221.234 284.962C221.234 284.962 330.573 290.114 352.03 291.514C373.487 292.912 400.077 293.691 400.077 296.334C400.077 298.979 374.887 303.176 374.887 303.176" fill="#A9CDC2"/>
<path d="M626.286 49.0702C626.286 49.0702 383.998 42.0616 295.392 25.5413C295.392 25.5413 296.393 13.0254 323.426 18.0354C350.458 23.0363 359.97 -9.0042 398.015 2.51698C436.06 14.0291 459.087 41.5616 504.641 29.5466C550.196 17.5289 554.702 41.5615 626.286 49.0702Z" fill="white"/>
<path d="M416.46 141.436C416.46 141.436 323.635 138.752 289.689 132.422C289.689 132.422 290.072 127.628 300.429 129.546C310.785 131.463 314.43 119.188 329.005 123.601C343.581 128.012 352.403 138.56 369.855 133.956C387.308 129.354 389.035 138.56 416.46 141.436Z" fill="white"/>
<path d="M373.628 96.4282C373.628 96.4282 73.7715 70.3979 -61.3899 11.3252C-53.8808 -12.7029 -16.3364 16.8326 10.1947 -0.684341C36.7262 -18.2103 83.7825 -33.7286 136.846 17.8364C189.909 69.3968 225.451 39.3604 250.481 67.8938C275.511 96.4282 327.074 70.898 373.628 96.4282Z" fill="white"/>
<path d="M-101 22.8644C-101 22.8644 -0.0917892 67.6623 120.621 95.0102C-31.2131 76.1495 -101 22.8644 -101 22.8644Z" fill="white"/>
<path d="M23.3732 234.464C23.3732 234.464 197.591 262.425 232.864 271.888C153.283 266.726 16.4904 249.521 16.4904 249.521L123.172 271.028L9.17765 262.853L8.31754 272.319L193.289 283.934L0.143555 280.922L1.00448 233.173L23.3732 234.464Z" fill="#2A5551"/>
<path d="M43.5038 226.046C43.5038 226.046 169.339 250.235 188.396 258.053C141.728 250.724 60.363 235.821 43.5038 226.046Z" fill="#3A7670"/>
<path d="M157.402 241.022C157.402 241.022 245.553 258.985 314.23 224.11C276.785 237.195 185.789 246.657 157.402 241.022Z" fill="#385872"/>
<path d="M190.707 292.538C190.707 292.538 312.875 293.828 332.662 294.688C352.449 295.549 228.561 304.583 190.707 292.538Z" fill="#527B55"/>
<path d="M353.31 286.086C353.31 286.086 483.651 283.935 491.824 285.225C460.421 290.388 380.839 294.69 351.589 286.086" fill="#527B55"/>
<path d="M19.5016 297.27C19.5016 297.27 147.691 290.819 188.557 298.56C161.026 299.422 19.5016 297.27 19.5016 297.27Z" fill="#527B55"/>
<path d="M9.41052 377.428V362.612C35.9074 362.345 169.199 360.935 169.199 360.935L9.41052 377.428ZM9.41052 362.53V331.309C70.2672 328.094 181.319 322.947 268.775 322.947C311.193 322.947 348.036 324.156 370.948 327.383C238.886 328.673 28.5353 344.589 30.6863 344.589C32.837 344.589 254.802 341.148 257.815 341.148C187.341 357.023 37.3971 361.745 9.41052 362.53Z" fill="#9B9921"/>
<path d="M281.903 369.539L397.188 361.795C397.188 361.795 392.348 361.91 384.211 361.91C360.815 361.91 310.17 360.962 268.998 353.623C280.372 351.444 297.863 350.662 317.145 350.662C366.408 350.662 427.299 355.773 427.299 355.773C424.718 363.947 281.903 369.539 281.903 369.539Z" fill="#9B9921"/>
<path d="M314.619 356.141C314.533 355.397 314.466 354.439 314.488 353.304C316.096 353.806 318.335 354.295 320.752 354.179C320.528 354.105 317.003 352.157 314.658 350.856L314.681 350.666C317.383 351.851 322.301 353.834 327.066 354.852C322.015 353.63 317.373 348.607 315.571 346.447C315.612 346.302 315.656 346.159 315.701 346.011C316.094 344.747 316.588 343.604 317.21 342.582C318.431 344.157 321.754 348.263 325.551 351.496C325.674 348.311 321.81 342.569 319.711 339.694C320.399 339.132 321.174 338.635 322.047 338.203C323.094 341.155 326.624 348.654 335.907 350.263C331.794 347.963 325.95 339.621 324.363 337.282C324.906 337.112 325.478 336.958 326.081 336.823C326.704 338.411 329.018 343.21 335.57 347.746C335.859 345.876 330.584 338.42 329.067 336.325C329.507 336.273 329.959 336.228 330.424 336.191C331.196 337.512 333.726 341.763 336.663 345.901C336.196 344.434 333.977 338.455 333.083 336.053C333.831 336.032 334.537 335.968 335.206 335.87C335.689 338.524 336.859 346.177 339.274 350.488C338.768 347.41 340.789 345.284 340.873 342.152C340.943 339.593 338.037 336.552 336.967 335.52C338.27 335.193 339.433 334.74 340.53 334.246C340.721 335.116 341.304 337.361 342.557 339.467C343.738 337.934 342.798 335.288 341.961 333.57C343.778 332.681 345.494 331.78 347.486 331.282C347.05 333.736 345.791 339.034 342.557 343.662C338.179 349.929 341.211 350.543 341.211 350.543C341.211 350.543 340.873 346.738 345.673 343.774C350.134 341.018 350.52 335.744 349.671 330.927C350.987 330.827 352.446 330.92 354.122 331.288C353.556 332.908 351.443 339.486 351.735 346.572C357.455 343.892 356.951 335.578 356.424 331.927C357.425 332.259 358.494 332.679 359.65 333.201L359.734 333.24C359.22 335.083 358.292 338.437 357.291 342.207C359.997 340.477 361.481 337.101 362.237 334.651C362.729 334.99 363.188 335.345 363.613 335.718C361.787 338.719 358.697 344.007 357.374 347.522C360.298 344.552 363.846 340.466 365.814 338.161C366.75 339.488 367.414 340.924 367.869 342.395C363.963 344.9 355.976 350.469 350.977 357.032C355.93 355.387 363.998 349.524 368.599 345.987C368.661 346.56 368.7 347.131 368.719 347.693C364.752 349.781 358.878 353.316 358.217 356.25C361.558 353.721 365.664 351.653 368.677 350.306C368.395 354.752 367.14 358.207 367.14 358.207L318.432 357.946C317.655 357.25 316.008 356.601 314.619 356.141Z" fill="#CFAB16"/>
<path d="M230.359 378.28C230.311 377.874 230.276 377.35 230.287 376.726C231.169 377.003 232.395 377.27 233.721 377.206C233.597 377.166 231.665 376.098 230.381 375.385L230.394 375.282C231.873 375.931 234.569 377.016 237.18 377.575C234.412 376.907 231.869 374.153 230.881 372.969L230.953 372.73C231.167 372.037 231.438 371.411 231.779 370.85C232.448 371.714 234.27 373.964 236.35 375.736C236.417 373.991 234.299 370.844 233.149 369.269C233.526 368.96 233.951 368.688 234.43 368.451C235.003 370.069 236.938 374.178 242.024 375.061C239.771 373.799 236.568 369.229 235.699 367.948C235.997 367.854 236.31 367.769 236.64 367.695C236.983 368.564 238.25 371.196 241.84 373.681C241.998 372.656 239.107 368.57 238.277 367.422C238.516 367.394 238.764 367.37 239.02 367.349C239.443 368.072 240.831 370.402 242.439 372.669C242.183 371.865 240.966 368.589 240.477 367.274C240.888 367.262 241.274 367.227 241.641 367.173C241.905 368.628 242.546 372.822 243.87 375.184C243.593 373.498 244.7 372.332 244.746 370.615C244.784 369.214 243.192 367.547 242.606 366.982C243.32 366.801 243.958 366.554 244.558 366.284C244.663 366.758 244.982 367.988 245.67 369.144C246.316 368.303 245.801 366.853 245.342 365.913C246.338 365.425 247.278 364.932 248.37 364.658C248.13 366.002 247.441 368.907 245.67 371.444C243.27 374.877 244.932 375.214 244.932 375.214C244.932 375.214 244.746 373.128 247.376 371.505C249.821 369.993 250.032 367.104 249.568 364.463C250.289 364.41 251.087 364.459 252.006 364.661C251.698 365.55 250.538 369.156 250.699 373.037C253.833 371.569 253.557 367.013 253.269 365.012C253.816 365.195 254.402 365.424 255.036 365.71L255.082 365.732C254.8 366.742 254.292 368.58 253.743 370.647C255.226 369.698 256.038 367.848 256.454 366.505C256.723 366.69 256.975 366.886 257.207 367.09C256.206 368.733 254.514 371.632 253.79 373.557C255.391 371.931 257.336 369.69 258.413 368.428C258.926 369.156 259.291 369.942 259.54 370.748C257.399 372.122 253.023 375.174 250.283 378.771C252.997 377.868 257.418 374.656 259.94 372.716C259.973 373.031 259.995 373.344 260.006 373.651C257.832 374.797 254.613 376.733 254.251 378.341C256.08 376.956 258.331 375.822 259.983 375.084C259.828 377.521 259.141 379.414 259.141 379.414L232.449 379.271C232.023 378.889 231.12 378.533 230.359 378.28Z" fill="#CFAB16"/>
<path d="M18.1557 381.519C18.0547 380.651 17.9776 379.535 18.0027 378.209C19.8795 378.795 22.4915 379.365 25.312 379.231C25.0505 379.145 20.9369 376.872 18.2013 375.353L18.2284 375.131C21.3809 376.514 27.1181 378.826 32.6776 380.014C26.7854 378.592 21.37 372.73 19.2656 370.211C19.3147 370.042 19.3656 369.874 19.4182 369.702C19.8764 368.225 20.4532 366.893 21.1788 365.7C22.6035 367.537 26.4802 372.328 30.9099 376.098C31.0534 372.386 26.5455 365.686 24.0956 362.332C24.8993 361.677 25.8036 361.096 26.8221 360.592C28.0429 364.036 32.1626 372.786 42.9916 374.662C38.1926 371.978 31.3751 362.246 29.5238 359.519C30.1575 359.318 30.8248 359.141 31.5278 358.983C32.2551 360.833 34.9547 366.433 42.5984 371.726C42.9347 369.543 36.7807 360.845 35.0126 358.402C35.5241 358.341 36.0509 358.289 36.5941 358.244C37.4949 359.785 40.4482 364.745 43.8747 369.572C43.3289 367.861 40.7396 360.885 39.6957 358.083C40.5704 358.059 41.3931 357.984 42.1731 357.871C42.7365 360.966 44.1033 369.895 46.9198 374.925C46.3305 371.334 48.6886 368.853 48.786 365.198C48.8663 362.215 45.4764 358.665 44.2305 357.464C45.7488 357.078 47.106 356.552 48.3843 355.976C48.608 356.989 49.2877 359.608 50.75 362.066C52.1273 360.278 51.0312 357.191 50.0549 355.186C52.1743 354.15 54.1765 353.098 56.5015 352.516C55.9906 355.379 54.5219 361.562 50.75 366.962C45.6428 374.272 49.1792 374.988 49.1792 374.988C49.1792 374.988 48.7861 370.551 54.3854 367.09C59.5907 363.875 60.0402 357.724 59.0499 352.103C60.5855 351.988 62.2856 352.094 64.2435 352.524C63.5834 354.414 61.1154 362.09 61.4564 370.356C68.1312 367.229 67.5425 357.529 66.9285 353.27C68.0951 353.659 69.343 354.147 70.6905 354.756L70.7891 354.803C70.1895 356.953 69.107 360.866 67.9386 365.265C71.0965 363.244 72.8265 359.306 73.7091 356.449C74.2834 356.843 74.8188 357.257 75.3152 357.692C73.1837 361.194 69.5809 367.362 68.0372 371.464C71.4483 367.999 75.5865 363.231 77.8817 360.542C78.9742 362.093 79.7483 363.766 80.28 365.483C75.7231 368.404 66.4058 374.903 60.5719 382.561C66.3515 380.639 75.7638 373.8 81.131 369.673C81.2034 370.343 81.2495 371.006 81.2721 371.663C76.6437 374.1 69.7925 378.224 69.0202 381.645C72.9161 378.697 77.7072 376.284 81.2232 374.709C80.8923 379.899 79.4309 383.93 79.4309 383.93L22.606 383.627C21.6982 382.815 19.7754 382.054 18.1557 381.519Z" fill="#CFAB16"/>
<path d="M23.8989 315.396C23.8382 314.883 23.7933 314.221 23.8078 313.438C24.9191 313.783 26.4653 314.122 28.1355 314.041C27.9804 313.991 25.5455 312.646 23.9254 311.746L23.942 311.616C25.8083 312.434 29.2047 313.803 32.4971 314.506C29.0077 313.664 25.8016 310.193 24.5552 308.7C24.5846 308.601 24.615 308.501 24.6464 308.399C24.9173 307.525 25.2593 306.738 25.6882 306.031C26.5324 307.118 28.8275 309.954 31.4497 312.187C31.5352 309.99 28.866 306.022 27.4152 304.036C27.8914 303.648 28.4269 303.305 29.0299 303.007C29.752 305.047 32.1923 310.226 38.6038 311.336C35.7622 309.746 31.7256 303.986 30.6298 302.371C31.0054 302.253 31.3996 302.147 31.816 302.053C32.2459 303.149 33.8451 306.465 38.3707 309.598C38.5706 308.308 34.9261 303.155 33.8794 301.71C34.1822 301.673 34.4941 301.642 34.8158 301.616C35.3497 302.528 37.0976 305.465 39.1266 308.324C38.8038 307.309 37.2699 303.179 36.6525 301.522C37.17 301.507 37.6574 301.462 38.1196 301.396C38.4526 303.226 39.2613 308.515 40.93 311.493C40.5803 309.367 41.9767 307.898 42.0349 305.733C42.082 303.966 40.0748 301.866 39.3369 301.153C40.2362 300.926 41.0395 300.615 41.7966 300.274C41.9294 300.872 42.331 302.422 43.1979 303.879C44.0125 302.82 43.364 300.992 42.786 299.805C44.0408 299.191 45.226 298.57 46.6029 298.224C46.3002 299.92 45.4312 303.581 43.1979 306.778C40.1737 311.105 42.2675 311.531 42.2675 311.531C42.2675 311.531 42.035 308.902 45.3492 306.854C48.4317 304.95 48.6977 301.308 48.1117 297.98C49.0206 297.911 50.0277 297.974 51.1868 298.23C50.7961 299.348 49.3346 303.892 49.5371 308.787C53.4883 306.937 53.1401 301.192 52.7766 298.672C53.4666 298.9 54.2063 299.189 55.004 299.55L55.0628 299.578C54.7073 300.851 54.0671 303.169 53.3753 305.773C55.2445 304.577 56.2682 302.244 56.7918 300.553C57.1319 300.786 57.4484 301.03 57.7423 301.288C56.4798 303.361 54.3465 307.015 53.4331 309.443C55.4525 307.391 57.9033 304.569 59.2616 302.977C59.9091 303.894 60.3676 304.886 60.6823 305.901C57.9837 307.633 52.4673 311.479 49.0129 316.013C52.4348 314.877 58.0082 310.827 61.186 308.383C61.2285 308.779 61.2556 309.173 61.2683 309.561C58.5291 311.003 54.4722 313.445 54.0146 315.472C56.3216 313.726 59.1576 312.298 61.2402 311.365C61.0449 314.437 60.1795 316.825 60.1795 316.825L26.5332 316.645C25.9962 316.164 24.8573 315.714 23.8989 315.396Z" fill="#405521"/>
<path d="M59.3112 328.987C59.266 328.596 59.2308 328.092 59.2425 327.496C60.089 327.76 61.2664 328.018 62.5379 327.956C62.4203 327.917 60.5665 326.892 59.332 326.208L59.3447 326.107C60.7654 326.73 63.3527 327.774 65.8595 328.309C63.2026 327.668 60.7609 325.024 59.8123 323.89L59.881 323.658C60.0881 322.993 60.3476 322.392 60.675 321.856C61.318 322.683 63.0651 324.844 65.0628 326.543C65.127 324.87 63.0941 321.848 61.9899 320.336C62.3525 320.04 62.7604 319.78 63.2198 319.551C63.7696 321.105 65.628 325.049 70.5105 325.895C68.3464 324.685 65.2717 320.297 64.4379 319.068C64.7237 318.977 65.0239 318.897 65.3404 318.826C65.6687 319.661 66.8859 322.186 70.3323 324.572C70.4843 323.589 67.7089 319.664 66.9131 318.563C67.1437 318.537 67.3806 318.513 67.6257 318.494C68.0317 319.187 69.3629 321.424 70.9084 323.601C70.6624 322.829 69.4949 319.684 69.0238 318.421C69.4181 318.411 69.7897 318.376 70.1406 318.326C70.3947 319.719 71.0115 323.747 72.2821 326.014C72.0153 324.396 73.0788 323.277 73.1231 321.629C73.1593 320.284 71.6301 318.684 71.0685 318.141C71.753 317.968 72.3644 317.731 72.9413 317.47C73.0417 317.927 73.3492 319.108 74.0084 320.216C74.6297 319.41 74.135 318.017 73.6946 317.114C74.6505 316.647 75.553 316.173 76.6021 315.91C76.3715 317.201 75.7095 319.988 74.0084 322.423C71.7051 325.72 73.3003 326.043 73.3003 326.043C73.3003 326.043 73.1231 324.041 75.6471 322.481C77.9947 321.032 78.1973 318.259 77.7506 315.724C78.4433 315.672 79.2093 315.72 80.0919 315.914C79.7953 316.767 78.682 320.228 78.8358 323.955C81.8454 322.545 81.5795 318.17 81.3037 316.251C81.8291 316.426 82.3916 316.646 82.9993 316.921L83.0445 316.941C82.7732 317.912 82.2858 319.676 81.7595 321.658C83.182 320.748 83.9633 318.972 84.3612 317.684C84.6199 317.86 84.8604 318.049 85.0847 318.244C84.1234 319.823 82.4992 322.605 81.8029 324.455C83.3411 322.893 85.2068 320.742 86.2422 319.529C86.7351 320.229 87.0842 320.983 87.3229 321.756C85.2683 323.075 81.0677 326.004 78.437 329.457C81.0432 328.591 85.2864 325.508 87.7073 323.646C87.7398 323.949 87.7597 324.247 87.7706 324.544C85.6834 325.643 82.5942 327.502 82.2469 329.045C84.0031 327.716 86.1627 326.626 87.7489 325.917C87.5996 328.257 86.9404 330.074 86.9404 330.074L61.318 329.938C60.9092 329.571 60.041 329.229 59.3112 328.987Z" fill="#405521"/>
<path d="M288.531 358.296C288.48 357.859 288.441 357.298 288.454 356.632C289.397 356.926 290.711 357.212 292.13 357.145C291.998 357.102 289.929 355.958 288.554 355.195L288.568 355.083C290.152 355.779 293.038 356.942 295.833 357.539C292.869 356.822 290.147 353.875 289.089 352.608C289.113 352.524 289.139 352.439 289.165 352.353C289.397 351.611 289.685 350.942 290.051 350.342C290.768 351.264 292.717 353.674 294.944 355.57C295.016 353.702 292.748 350.334 291.517 348.648C291.922 348.318 292.377 348.026 292.888 347.773C293.502 349.504 295.573 353.904 301.02 354.847C298.607 353.497 295.178 348.604 294.247 347.234C294.566 347.133 294.901 347.042 295.254 346.962C295.62 347.894 296.978 350.709 300.822 353.371C300.99 352.274 297.896 347.898 297.008 346.67C297.264 346.64 297.529 346.614 297.803 346.592C298.256 347.367 299.741 349.86 301.463 352.288C301.189 351.427 299.887 347.919 299.363 346.511C299.802 346.499 300.215 346.461 300.608 346.404C300.892 347.96 301.577 352.45 302.995 354.98C302.699 353.173 303.885 351.926 303.933 350.089C303.974 348.588 302.269 346.803 301.642 346.2C302.406 346.007 303.088 345.741 303.731 345.45C303.844 345.96 304.185 347.278 304.921 348.514C305.613 347.614 305.063 346.063 304.571 345.054C305.638 344.532 306.644 344.004 307.813 343.712C307.557 345.152 306.818 348.258 304.921 350.975C302.352 354.651 304.13 355.012 304.13 355.012C304.13 355.012 303.933 352.779 306.748 351.04C309.366 349.423 309.592 346.33 309.094 343.503C309.866 343.445 310.722 343.499 311.706 343.715C311.374 344.666 310.133 348.526 310.305 352.681C313.661 351.11 313.365 346.232 313.057 344.09C313.643 344.285 314.27 344.532 314.948 344.838L314.998 344.861C314.695 345.941 314.152 347.91 313.565 350.122C315.152 349.105 316.022 347.125 316.466 345.689C316.756 345.886 317.024 346.095 317.273 346.315C316.202 348.075 314.39 351.178 313.613 353.239C315.329 351.497 317.41 349.099 318.564 347.746C319.113 348.526 319.503 349.368 319.77 350.232C317.478 351.7 312.794 354.969 309.86 358.82C312.766 357.853 317.499 354.414 320.198 352.34C320.235 352.675 320.259 353.01 320.269 353.34C317.941 354.565 314.497 356.638 314.109 358.358C316.067 356.878 318.476 355.663 320.244 354.872C320.078 357.482 319.344 359.509 319.344 359.509L290.768 359.355C290.312 358.948 289.345 358.565 288.531 358.296Z" fill="#405521"/>
<path d="M171.022 388.076C170.93 387.347 170.861 386.406 170.883 385.289C172.56 385.782 174.893 386.263 177.412 386.15C177.178 386.078 173.505 384.161 171.06 382.882L171.086 382.695C173.901 383.86 179.025 385.809 183.991 386.809C178.728 385.611 173.891 380.672 172.011 378.549C172.055 378.406 172.101 378.264 172.148 378.12C172.557 376.877 173.073 375.754 173.721 374.749C174.993 376.297 178.455 380.332 182.412 383.51C182.54 380.381 178.513 374.738 176.325 371.91C177.043 371.358 177.851 370.87 178.761 370.444C179.85 373.347 183.531 380.718 193.203 382.3C188.916 380.037 182.827 371.839 181.174 369.541C181.741 369.373 182.336 369.221 182.963 369.088C183.613 370.65 186.024 375.367 192.851 379.824C193.152 377.988 187.655 370.657 186.075 368.598C186.534 368.547 187.004 368.502 187.489 368.466C188.293 369.764 190.93 373.943 193.992 378.011C193.504 376.568 191.191 370.692 190.259 368.331C191.041 368.311 191.775 368.248 192.471 368.151C192.975 370.758 194.195 378.282 196.711 382.522C196.185 379.496 198.29 377.404 198.378 374.326C198.45 371.81 195.422 368.821 194.309 367.808C195.665 367.484 196.877 367.039 198.019 366.555C198.218 367.409 198.825 369.617 200.132 371.687C201.362 370.178 200.383 367.578 199.512 365.889C201.404 365.017 203.191 364.13 205.269 363.642C204.813 366.052 203.502 371.261 200.132 375.811C195.571 381.971 198.728 382.577 198.728 382.577C198.728 382.577 198.378 378.835 203.379 375.92C208.028 373.211 208.429 368.028 207.545 363.292C208.917 363.194 210.436 363.284 212.183 363.646C211.593 365.239 209.391 371.708 209.694 378.672C215.656 376.038 215.13 367.863 214.582 364.275C215.623 364.602 216.738 365.014 217.941 365.528L218.031 365.565C217.494 367.377 216.528 370.675 215.485 374.382C218.304 372.678 219.848 369.361 220.639 366.953C221.151 367.285 221.629 367.635 222.072 368.002C220.168 370.951 216.949 376.15 215.571 379.605C218.618 376.685 222.315 372.668 224.364 370.402C225.341 371.708 226.032 373.119 226.506 374.565C222.436 377.028 214.115 382.504 208.904 388.956C214.067 387.336 222.473 381.575 227.266 378.098C227.332 378.66 227.372 379.221 227.392 379.773C223.258 381.826 217.14 385.3 216.45 388.185C219.93 385.7 224.208 383.667 227.349 382.342C227.053 386.711 225.749 390.11 225.749 390.11L174.994 389.852C174.185 389.169 172.467 388.529 171.022 388.076Z" fill="#405521"/>
<path d="M49.1799 394.526C49.3025 392.956 49.3947 390.936 49.3654 388.54C47.1099 389.601 43.9716 390.631 40.5842 390.388C40.8968 390.232 45.8396 386.124 49.1263 383.378C49.1152 383.244 49.1046 383.109 49.0933 382.974C45.3068 385.476 38.4131 389.657 31.7333 391.805C38.8133 389.23 45.3192 378.633 47.8482 374.077C47.7887 373.773 47.7284 373.466 47.6641 373.159C47.1134 370.489 46.4209 368.08 45.5492 365.925C43.8369 369.245 39.18 377.908 33.8575 384.723C33.6848 378.009 39.1016 365.897 42.0445 359.833C41.0787 358.647 39.9921 357.599 38.7684 356.688C37.3027 362.914 32.3515 378.733 19.3423 382.127C25.1063 377.273 33.2983 359.678 35.5228 354.747C34.7615 354.386 33.96 354.062 33.1146 353.775C32.2414 357.125 28.9971 367.247 19.8142 376.817C19.4097 372.874 26.8051 357.142 28.9282 352.725C28.3132 352.616 27.6798 352.523 27.0276 352.443C25.945 355.228 22.3979 364.197 18.2797 372.923C18.9357 369.831 22.0468 357.216 23.3004 352.15C22.2499 352.105 21.2615 351.974 20.3246 351.769C19.6478 357.362 18.0069 373.508 14.6214 382.599C15.33 376.11 12.4972 371.625 12.38 365.016C12.2832 359.62 16.3558 353.202 17.854 351.028C16.0291 350.334 14.3988 349.381 12.8622 348.34C12.5933 350.175 11.7784 354.908 10.0192 359.353C8.36414 356.118 9.68111 350.537 10.8546 346.913C8.3087 345.041 5.90372 343.137 3.11061 342.085C3.72311 347.263 5.48619 358.44 10.0192 368.202C16.1559 381.419 11.9077 382.719 11.9077 382.719C11.9077 382.719 12.38 374.694 5.65331 368.438C-0.601767 362.624 -1.14084 351.503 0.0471821 341.338C-1.79684 341.128 -3.84108 341.321 -6.19099 342.1C-5.39825 345.519 -2.43412 359.394 -2.84351 374.34C-10.8639 368.689 -10.1566 351.148 -9.41828 343.449C-10.8194 344.149 -12.3199 345.033 -13.9364 346.136L-14.0572 346.219C-13.3363 350.105 -12.0356 357.181 -10.6324 365.134C-14.425 361.482 -16.5039 354.361 -17.5654 349.193C-18.2557 349.908 -18.8982 350.659 -19.4942 351.445C-16.9345 357.774 -12.604 368.929 -10.7508 376.345C-14.8485 370.079 -19.8206 361.461 -22.5777 356.597C-23.8908 359.397 -24.8213 362.425 -25.4596 365.529C-19.9841 370.813 -8.78949 382.563 -1.78165 396.408C-8.72556 392.936 -20.0322 380.571 -26.4819 373.107C-26.5696 374.317 -26.6243 375.518 -26.6515 376.706C-21.0909 381.108 -12.859 388.566 -11.9307 394.755C-16.612 389.423 -22.3676 385.06 -26.5928 382.216C-26.1965 391.595 -24.4394 398.885 -24.4394 398.885L43.8359 398.335C44.9246 396.866 47.2348 395.494 49.1799 394.526Z" fill="#405521"/>
<path d="M89.6199 303.943C89.6199 303.943 372.312 296.962 490.393 311.505C383.364 307.432 89.6199 303.943 89.6199 303.943Z" fill="white"/>
<path d="M325.743 433.211C325.743 433.211 326.515 442.475 345.595 443.137C364.674 443.8 369.527 445.124 382.762 452.623C395.997 460.123 397.54 464.975 397.54 464.975H421.694C421.694 464.975 425.556 460.564 418.717 447.661C411.878 434.756 431.511 408.839 451.804 429.241C472.097 449.645 463.053 453.175 489.523 464.535C510.148 464.644 519.631 464.314 519.631 464.314C519.631 464.314 502.757 444.791 502.315 428.14C501.875 411.485 505.735 391.303 480.59 378.399C455.442 365.495 430.518 371.34 410.554 382.699C390.593 394.059 395.335 404.647 373.829 404.538C352.323 404.425 347.801 406.633 343.72 416.559C339.639 426.486 328.721 433.653 325.743 433.211Z" fill="#D66D23"/>
</g>
</g>
</svg>
