<svg width="390" height="844" viewBox="0 0 390 844" fill="none" xmlns="http://www.w3.org/2000/svg">
<mask id="mask0_97_429" style="mask-type:alpha" maskUnits="userSpaceOnUse" x="-18" y="-8" width="426" height="866">
<rect x="-17.5" y="-7.5" width="425" height="865" fill="#D9D9D9" stroke="black"/>
</mask>
<g mask="url(#mask0_97_429)">
<path d="M-172.657 492.269C-92.6338 503.789 -57.1918 516.563 -37.1953 541.143C-16.3297 566.768 -13.1654 605.474 -9.39546 671.654C-3.45315 775.638 48.7224 786.282 127.674 802.415C146.956 806.353 168.817 810.81 191.508 817.083C227.264 826.965 252.253 844.636 265.745 869.597C285.733 906.557 273.119 947.04 272.996 947.442L272.318 947.235C272.441 946.833 284.948 906.616 265.111 869.922C251.713 845.141 226.884 827.586 191.315 817.754C168.647 811.489 147.752 807.227 127.541 803.097C88.7952 795.188 55.3334 788.356 31.4904 770.565C5.54313 751.206 -7.29104 720.705 -10.1028 671.679C-13.873 605.628 -17.0286 567.029 -37.7523 541.564C-57.6225 517.151 -92.969 504.428 -172.775 492.944L-172.657 492.269Z" fill="#FED3B3"/>
<path d="M393.728 765.001C440.094 765.001 477.837 803.117 477.837 849.962C477.837 896.808 440.111 934.923 393.728 934.923C347.346 934.923 309.62 896.808 309.62 849.962C309.62 803.117 347.346 765.001 393.728 765.001ZM393.728 767.843C348.905 767.843 312.449 804.673 312.449 849.962C312.449 895.234 348.905 932.064 393.728 932.064C438.552 932.064 475.008 895.234 475.008 849.962C475.008 804.69 438.535 767.843 393.728 767.843Z" fill="#76A94F"/>
<path d="M393.728 774.289C435.029 774.289 468.638 808.243 468.638 849.962C468.638 891.681 435.029 925.636 393.728 925.636C352.428 925.636 318.819 891.681 318.819 849.962C318.802 808.226 352.411 774.289 393.728 774.289ZM393.728 777.131C353.97 777.131 321.631 809.799 321.631 849.962C321.631 890.125 353.97 922.793 393.728 922.793C433.487 922.793 465.826 890.125 465.826 849.962C465.809 809.799 433.47 777.131 393.728 777.131Z" fill="#76A94F"/>
<path d="M393.728 783.56C429.964 783.56 459.457 813.352 459.457 849.962C459.457 886.572 429.964 916.364 393.728 916.364C357.493 916.364 328 886.589 328 849.962C328 813.352 357.476 783.56 393.728 783.56ZM393.728 786.419C359.035 786.419 330.829 814.925 330.829 849.962C330.829 884.999 359.052 913.505 393.728 913.505C428.422 913.505 456.628 884.999 456.628 849.962C456.628 814.925 428.405 786.419 393.728 786.419Z" fill="#76A94F"/>
<path d="M393.728 792.848C424.899 792.848 450.275 818.461 450.275 849.962C450.275 881.446 424.916 907.077 393.728 907.077C362.558 907.077 337.182 881.463 337.182 849.962C337.182 818.461 362.541 792.848 393.728 792.848ZM393.728 795.69C364.117 795.69 340.011 820.034 340.011 849.962C340.011 879.89 364.1 904.234 393.728 904.234C423.34 904.234 447.446 879.89 447.446 849.962C447.446 820.034 423.34 795.69 393.728 795.69Z" fill="#76A94F"/>
<path d="M393.728 802.135C419.833 802.135 441.077 823.587 441.077 849.962C441.077 876.337 419.833 897.789 393.728 897.789C367.624 897.789 346.38 876.337 346.38 849.962C346.364 823.587 367.624 802.135 393.728 802.135ZM393.728 804.978C369.165 804.978 349.193 825.161 349.193 849.962C349.193 874.764 369.165 894.947 393.728 894.947C418.275 894.947 438.264 874.764 438.264 849.962C438.248 825.161 418.275 804.978 393.728 804.978Z" fill="#76A94F"/>
<path d="M393.728 811.406C414.768 811.406 431.895 828.696 431.895 849.962C431.895 871.211 414.768 888.518 393.728 888.518C372.689 888.518 355.562 871.228 355.562 849.962C355.562 828.696 372.672 811.406 393.728 811.406ZM393.728 814.266C374.247 814.266 358.391 830.287 358.391 849.962C358.391 869.654 374.247 885.659 393.728 885.659C413.227 885.659 429.066 869.638 429.066 849.962C429.066 830.27 413.21 814.266 393.728 814.266Z" fill="#76A94F"/>
<path d="M120.944 837.376C119.894 837.359 119.03 838.205 119.013 839.254C118.996 840.303 119.843 841.166 120.894 841.183C121.944 841.199 122.808 840.354 122.825 839.305C122.842 838.239 121.995 837.393 120.944 837.376Z" fill="#E8F5C1"/>
<path d="M121.165 820.255C120.114 820.238 119.25 821.084 119.233 822.133C119.216 823.182 120.063 824.045 121.114 824.062C122.164 824.079 123.028 823.233 123.045 822.184C123.045 821.135 122.215 820.272 121.165 820.255Z" fill="#E8F5C1"/>
<path d="M121.368 803.134C120.318 803.117 119.454 803.963 119.437 805.012C119.42 806.061 120.267 806.924 121.317 806.941C122.367 806.958 123.231 806.112 123.248 805.063C123.248 804.014 122.418 803.151 121.368 803.134Z" fill="#E8F5C1"/>
<path d="M121.571 786.03C120.521 786.013 119.657 786.859 119.64 787.908C119.623 788.957 120.47 789.82 121.52 789.837C122.571 789.854 123.435 789.008 123.452 787.959C123.468 786.91 122.621 786.047 121.571 786.03Z" fill="#E8F5C1"/>
<path d="M105.715 837.19C104.665 837.173 103.801 838.019 103.784 839.068C103.767 840.117 104.614 840.98 105.664 840.996C106.715 841.013 107.579 840.167 107.595 839.118C107.612 838.07 106.765 837.207 105.715 837.19Z" fill="#E8F5C1"/>
<path d="M105.918 820.069C104.868 820.052 104.004 820.898 103.987 821.947C103.97 822.996 104.817 823.859 105.868 823.876C106.918 823.892 107.782 823.047 107.799 821.998C107.816 820.949 106.969 820.086 105.918 820.069Z" fill="#E8F5C1"/>
<path d="M106.122 802.965C105.071 802.948 104.207 803.794 104.19 804.843C104.173 805.892 105.021 806.755 106.071 806.772C107.121 806.789 107.985 805.943 108.002 804.894C108.019 803.828 107.189 802.965 106.122 802.965Z" fill="#E8F5C1"/>
<path d="M106.342 785.844C105.292 785.827 104.428 786.673 104.411 787.722C104.394 788.771 105.241 789.634 106.291 789.651C107.341 789.668 108.205 788.822 108.222 787.773C108.222 786.724 107.392 785.861 106.342 785.844Z" fill="#E8F5C1"/>
<path d="M90.4858 837.004C89.4355 836.987 88.5715 837.833 88.5546 838.882C88.5377 839.931 89.3846 840.793 90.4349 840.81C91.4852 840.827 92.3492 839.981 92.3662 838.932C92.3831 837.883 91.5361 837.021 90.4858 837.004Z" fill="#E8F5C1"/>
<path d="M90.689 819.883C89.6387 819.866 88.7748 820.712 88.7579 821.761C88.7409 822.81 89.5879 823.672 90.6382 823.689C91.6885 823.706 92.5525 822.86 92.5694 821.812C92.5864 820.763 91.7393 819.9 90.689 819.883Z" fill="#E8F5C1"/>
<path d="M90.8923 802.779C89.842 802.762 88.9781 803.608 88.9612 804.657C88.9442 805.706 89.7912 806.569 90.8415 806.586C91.8918 806.602 92.7558 805.757 92.7727 804.708C92.7897 803.642 91.9426 802.796 90.8923 802.779Z" fill="#E8F5C1"/>
<path d="M91.0956 785.658C90.0454 785.641 89.1814 786.487 89.1644 787.536C89.1475 788.585 89.9945 789.448 91.0448 789.465C92.0951 789.482 92.9591 788.636 92.976 787.587C92.9929 786.538 92.1459 785.675 91.0956 785.658Z" fill="#E8F5C1"/>
<path d="M75.2395 836.818C74.1892 836.801 73.3253 837.647 73.3084 838.696C73.2914 839.744 74.1384 840.607 75.1887 840.624C76.239 840.641 77.103 839.795 77.1199 838.746C77.1369 837.697 76.2898 836.835 75.2395 836.818Z" fill="#E8F5C1"/>
<path d="M75.4598 819.714C74.4095 819.697 73.5455 820.543 73.5285 821.592C73.5116 822.641 74.3586 823.503 75.4089 823.52C76.4592 823.537 77.3232 822.691 77.3401 821.642C77.3401 820.577 76.51 819.714 75.4598 819.714Z" fill="#E8F5C1"/>
<path d="M75.663 802.593C74.6127 802.576 73.7488 803.422 73.7319 804.471C73.7149 805.52 74.5619 806.383 75.6122 806.399C76.6625 806.416 77.5265 805.57 77.5434 804.522C77.5604 803.473 76.7133 802.61 75.663 802.593Z" fill="#E8F5C1"/>
<path d="M75.8663 785.472C74.816 785.455 73.9521 786.301 73.9351 787.35C73.9182 788.399 74.7652 789.262 75.8155 789.279C76.8658 789.296 77.7298 788.45 77.7467 787.401C77.7636 786.352 76.9166 785.489 75.8663 785.472Z" fill="#E8F5C1"/>
<path d="M60.0102 836.632C58.9599 836.615 58.096 837.461 58.079 838.509C58.0621 839.558 58.9091 840.421 59.9594 840.438C61.0097 840.455 61.8736 839.609 61.8906 838.56C61.9075 837.511 61.0605 836.648 60.0102 836.632Z" fill="#E8F5C1"/>
<path d="M60.2135 819.528C59.1632 819.511 58.2992 820.357 58.2823 821.405C58.2654 822.454 59.1124 823.317 60.1627 823.334C61.213 823.351 62.0769 822.505 62.0939 821.456C62.1108 820.407 61.2638 819.545 60.2135 819.528Z" fill="#E8F5C1"/>
<path d="M60.4337 802.407C59.3834 802.39 58.5195 803.236 58.5025 804.285C58.4856 805.334 59.3326 806.196 60.3829 806.213C61.4332 806.23 62.2971 805.384 62.3141 804.335C62.3141 803.287 61.484 802.424 60.4337 802.407Z" fill="#E8F5C1"/>
<path d="M60.637 785.286C59.5867 785.269 58.7228 786.115 58.7058 787.164C58.6889 788.213 59.5359 789.076 60.5862 789.092C61.6365 789.109 62.5004 788.263 62.5174 787.215C62.5343 786.166 61.6873 785.303 60.637 785.286Z" fill="#E8F5C1"/>
<path d="M44.7809 836.462C43.7306 836.445 42.8667 837.291 42.8497 838.34C42.8328 839.389 43.6798 840.252 44.7301 840.269C45.7804 840.286 46.6444 839.44 46.6613 838.391C46.6782 837.325 45.8312 836.462 44.7809 836.462Z" fill="#E8F5C1"/>
<path d="M44.9842 819.342C43.9339 819.325 43.07 820.17 43.053 821.219C43.0361 822.268 43.8831 823.131 44.9334 823.148C45.9837 823.165 46.8476 822.319 46.8646 821.27C46.8815 820.221 46.0345 819.358 44.9842 819.342Z" fill="#E8F5C1"/>
<path d="M45.1875 802.221C44.1372 802.204 43.2732 803.05 43.2563 804.099C43.2393 805.147 44.0864 806.01 45.1367 806.027C46.187 806.044 47.0509 805.198 47.0678 804.149C47.0848 803.1 46.2547 802.238 45.1875 802.221Z" fill="#E8F5C1"/>
<path d="M45.3908 785.117C44.3405 785.1 43.4765 785.946 43.4596 786.995C43.4426 788.044 44.2897 788.906 45.34 788.923C46.3903 788.94 47.2542 788.094 47.2711 787.045C47.2881 785.98 46.458 785.117 45.3908 785.117Z" fill="#E8F5C1"/>
<path d="M29.5516 836.276C28.5013 836.259 27.6374 837.105 27.6205 838.154C27.6035 839.203 28.4505 840.066 29.5008 840.083C30.5511 840.1 31.4151 839.254 31.432 838.205C31.432 837.139 30.6019 836.293 29.5516 836.276Z" fill="#E8F5C1"/>
<path d="M29.7549 819.155C28.7046 819.138 27.8407 819.984 27.8238 821.033C27.8068 822.082 28.6538 822.945 29.7041 822.962C30.7544 822.979 31.6184 822.133 31.6353 821.084C31.6522 820.035 30.8052 819.172 29.7549 819.155Z" fill="#E8F5C1"/>
<path d="M29.9582 802.035C28.9079 802.018 28.044 802.864 28.027 803.913C28.0101 804.961 28.8571 805.824 29.9074 805.841C30.9577 805.858 31.8216 805.012 31.8386 803.963C31.8555 802.914 31.0085 802.052 29.9582 802.035Z" fill="#E8F5C1"/>
<path d="M30.1615 784.931C29.1112 784.914 28.2472 785.76 28.2303 786.809C28.2133 787.857 29.0604 788.72 30.1107 788.737C31.161 788.754 32.0249 787.908 32.0418 786.859C32.0588 785.794 31.2118 784.931 30.1615 784.931Z" fill="#E8F5C1"/>
<path d="M14.3054 836.09C13.2551 836.073 12.3912 836.919 12.3742 837.968C12.3573 839.017 13.2043 839.88 14.2546 839.897C15.3049 839.914 16.1688 839.068 16.1858 838.019C16.2027 836.97 15.3726 836.107 14.3054 836.09Z" fill="#E8F5C1"/>
<path d="M14.5256 818.969C13.4753 818.952 12.6113 819.798 12.5944 820.847C12.5775 821.896 13.4245 822.759 14.4748 822.776C15.5251 822.793 16.389 821.947 16.406 820.898C16.406 819.849 15.5759 818.986 14.5256 818.969Z" fill="#E8F5C1"/>
<path d="M14.7289 801.865C13.6786 801.849 12.8147 802.694 12.7977 803.743C12.7808 804.792 13.6278 805.655 14.6781 805.672C15.7284 805.689 16.5924 804.843 16.6093 803.794C16.6262 802.728 15.7792 801.865 14.7289 801.865Z" fill="#E8F5C1"/>
<path d="M14.9322 784.745C13.8819 784.728 13.018 785.574 13.001 786.623C12.9841 787.671 13.8311 788.534 14.8814 788.551C15.9317 788.568 16.7956 787.722 16.8126 786.673C16.8295 785.624 15.9825 784.762 14.9322 784.745Z" fill="#E8F5C1"/>
<path d="M-0.923883 835.904C-1.97418 835.887 -2.83816 836.733 -2.8551 837.782C-2.87204 838.831 -2.025 839.694 -0.974702 839.711C0.0755941 839.728 0.939521 838.882 0.956461 837.833C0.973401 836.784 0.126413 835.921 -0.923883 835.904Z" fill="#E8F5C1"/>
<path d="M-0.720606 818.783C-1.7709 818.766 -2.63488 819.612 -2.65182 820.661C-2.66876 821.71 -1.82172 822.573 -0.771425 822.59C0.278872 822.607 1.1428 821.761 1.15974 820.712C1.17668 819.663 0.329691 818.8 -0.720606 818.783Z" fill="#E8F5C1"/>
<path d="M-0.517339 801.679C-1.56764 801.662 -2.43156 802.508 -2.4485 803.557C-2.46544 804.606 -1.61845 805.469 -0.568158 805.486C0.482138 805.503 1.34612 804.657 1.36306 803.608C1.38 802.542 0.549897 801.679 -0.517339 801.679Z" fill="#E8F5C1"/>
<path d="M-0.297113 784.559C-1.34741 784.542 -2.21139 785.387 -2.22833 786.436C-2.24527 787.485 -1.39823 788.348 -0.347932 788.365C0.702364 788.382 1.56629 787.536 1.58323 786.487C1.60017 785.438 0.753183 784.575 -0.297113 784.559Z" fill="#E8F5C1"/>
</g>
</svg>
