<svg width="390" height="844" viewBox="0 0 390 844" fill="none" xmlns="http://www.w3.org/2000/svg">
<mask id="mask0_97_446" style="mask-type:alpha" maskUnits="userSpaceOnUse" x="-18" y="-3" width="426" height="866">
<rect x="-17.5" y="-2.5" width="425" height="865" fill="#D9D9D9" stroke="black"/>
</mask>
<g mask="url(#mask0_97_446)">
<path d="M-45.6978 334.283C10.322 363.973 32.6942 382.114 39.7945 403.655C47.2107 426.116 37.2675 452.18 19.0429 496.289C-9.57817 565.601 25.9509 586.997 79.7047 619.391C92.8341 627.301 107.721 636.264 122.65 646.639C146.176 662.986 159.195 681.415 161.324 701.399C164.483 730.993 142.207 753.838 141.987 754.065L141.548 753.742C141.767 753.514 163.879 730.814 160.747 701.435C158.632 681.594 145.695 663.285 122.293 647.022C107.378 636.659 93.15 628.091 79.3888 619.798C53.0063 603.906 30.2221 590.18 18.0953 571.991C4.89716 552.198 5.02076 528.791 18.5073 496.11C36.6907 452.084 46.6065 426.092 39.2452 403.774C32.186 382.378 9.86876 364.296 -46 334.69L-45.6978 334.283Z" fill="#FED3B3"/>
<g clip-path="url(#clip0_97_446)">
<g opacity="0.5">
<path d="M177.473 502.863C177.473 501.725 178.406 500.793 179.546 500.793C180.686 500.793 181.62 501.725 181.62 502.863C181.62 504.001 180.686 504.933 179.546 504.933C178.393 504.933 177.473 504.015 177.473 502.863Z" fill="#F5F5F5"/>
<path d="M162.228 502.863C162.228 501.725 163.162 500.793 164.302 500.793C165.442 500.793 166.376 501.725 166.376 502.863C166.376 504.001 165.442 504.933 164.302 504.933C163.162 504.933 162.228 504.015 162.228 502.863Z" fill="#F5F5F5"/>
<path d="M146.997 502.863C146.997 501.725 147.931 500.793 149.071 500.793C150.225 500.793 151.145 501.725 151.145 502.863C151.145 504.001 150.225 504.933 149.071 504.933C147.931 504.933 146.997 504.015 146.997 502.863Z" fill="#F5F5F5"/>
<path d="M131.767 502.863C131.767 501.725 132.701 500.793 133.841 500.793C134.981 500.793 135.914 501.725 135.914 502.863C135.914 504.001 134.981 504.933 133.841 504.933C132.701 504.933 131.767 504.015 131.767 502.863Z" fill="#F5F5F5"/>
<path d="M177.473 487.658C177.473 486.506 178.406 485.588 179.546 485.588C180.686 485.588 181.62 486.506 181.62 487.658C181.62 488.796 180.686 489.728 179.546 489.728C178.393 489.728 177.473 488.81 177.473 487.658Z" fill="#F5F5F5"/>
<path d="M162.228 487.658C162.228 486.506 163.162 485.588 164.302 485.588C165.442 485.588 166.376 486.506 166.376 487.658C166.376 488.796 165.442 489.728 164.302 489.728C163.162 489.728 162.228 488.81 162.228 487.658Z" fill="#F5F5F5"/>
<path d="M146.997 487.658C146.997 486.506 147.931 485.588 149.071 485.588C150.225 485.588 151.145 486.506 151.145 487.658C151.145 488.796 150.225 489.728 149.071 489.728C147.931 489.728 146.997 488.81 146.997 487.658Z" fill="#F5F5F5"/>
<path d="M131.767 487.658C131.767 486.506 132.701 485.588 133.841 485.588C134.981 485.588 135.914 486.506 135.914 487.658C135.914 488.796 134.981 489.728 133.841 489.728C132.701 489.728 131.767 488.81 131.767 487.658Z" fill="#F5F5F5"/>
<path d="M177.473 472.453C177.473 471.315 178.406 470.382 179.546 470.382C180.686 470.382 181.62 471.315 181.62 472.453C181.62 473.591 180.686 474.523 179.546 474.523C178.393 474.523 177.473 473.591 177.473 472.453Z" fill="#F5F5F5"/>
<path d="M162.228 472.453C162.228 471.315 163.162 470.382 164.302 470.382C165.442 470.382 166.376 471.315 166.376 472.453C166.376 473.591 165.442 474.523 164.302 474.523C163.162 474.523 162.228 473.591 162.228 472.453Z" fill="#F5F5F5"/>
<path d="M146.997 472.453C146.997 471.315 147.931 470.382 149.071 470.382C150.225 470.382 151.145 471.315 151.145 472.453C151.145 473.591 150.225 474.523 149.071 474.523C147.931 474.523 146.997 473.591 146.997 472.453Z" fill="#F5F5F5"/>
<path d="M131.767 472.453C131.767 471.315 132.701 470.382 133.841 470.382C134.981 470.382 135.914 471.315 135.914 472.453C135.914 473.591 134.981 474.523 133.841 474.523C132.701 474.523 131.767 473.591 131.767 472.453Z" fill="#F5F5F5"/>
<path d="M177.473 457.248C177.473 456.11 178.406 455.177 179.546 455.177C180.686 455.177 181.62 456.096 181.62 457.248C181.62 458.386 180.686 459.318 179.546 459.318C178.393 459.318 177.473 458.399 177.473 457.248Z" fill="#F5F5F5"/>
<path d="M162.228 457.248C162.228 456.11 163.162 455.177 164.302 455.177C165.442 455.177 166.376 456.096 166.376 457.248C166.376 458.386 165.442 459.318 164.302 459.318C163.162 459.318 162.228 458.399 162.228 457.248Z" fill="#F5F5F5"/>
<path d="M146.997 457.248C146.997 456.11 147.931 455.177 149.071 455.177C150.225 455.177 151.145 456.096 151.145 457.248C151.145 458.386 150.225 459.318 149.071 459.318C147.931 459.318 146.997 458.399 146.997 457.248Z" fill="#F5F5F5"/>
<path d="M131.767 457.248C131.767 456.11 132.701 455.177 133.841 455.177C134.98 455.177 135.914 456.096 135.914 457.248C135.914 458.386 134.98 459.318 133.841 459.318C132.701 459.318 131.767 458.399 131.767 457.248Z" fill="#F5F5F5"/>
<path d="M384.687 48.2843C384.687 47.1463 385.621 46.214 386.761 46.214C387.914 46.214 388.834 47.1463 388.834 48.2843C388.834 49.436 387.901 50.3546 386.761 50.3546C385.621 50.3546 384.687 49.436 384.687 48.2843Z" fill="#76A94F"/>
<path d="M369.456 48.2843C369.456 47.1463 370.39 46.214 371.53 46.214C372.67 46.214 373.604 47.1463 373.604 48.2843C373.604 49.436 372.67 50.3546 371.53 50.3546C370.39 50.3546 369.456 49.436 369.456 48.2843Z" fill="#76A94F"/>
<path d="M354.225 48.2843C354.225 47.1463 355.159 46.214 356.299 46.214C357.439 46.214 358.373 47.1463 358.373 48.2843C358.373 49.436 357.439 50.3546 356.299 50.3546C355.159 50.3546 354.225 49.436 354.225 48.2843Z" fill="#76A94F"/>
<path d="M338.995 48.2843C338.995 47.1463 339.929 46.214 341.069 46.214C342.208 46.214 343.142 47.1463 343.142 48.2843C343.142 49.436 342.208 50.3546 341.069 50.3546C339.929 50.3546 338.995 49.436 338.995 48.2843Z" fill="#76A94F"/>
<path d="M384.687 33.0791C384.687 31.9411 385.621 31.0088 386.761 31.0088C387.914 31.0088 388.834 31.9411 388.834 33.0791C388.834 34.2308 387.901 35.1494 386.761 35.1494C385.621 35.1494 384.687 34.2171 384.687 33.0791Z" fill="#76A94F"/>
<path d="M369.456 33.0791C369.456 31.9411 370.39 31.0088 371.53 31.0088C372.67 31.0088 373.604 31.9411 373.604 33.0791C373.604 34.2308 372.67 35.1494 371.53 35.1494C370.39 35.1494 369.456 34.2171 369.456 33.0791Z" fill="#76A94F"/>
<path d="M354.225 33.0791C354.225 31.9411 355.159 31.0088 356.299 31.0088C357.439 31.0088 358.373 31.9411 358.373 33.0791C358.373 34.2308 357.439 35.1494 356.299 35.1494C355.159 35.1494 354.225 34.2171 354.225 33.0791Z" fill="#76A94F"/>
<path d="M338.995 33.0791C338.995 31.9411 339.929 31.0088 341.069 31.0088C342.208 31.0088 343.142 31.9411 343.142 33.0791C343.142 34.2308 342.208 35.1494 341.069 35.1494C339.929 35.1494 338.995 34.2171 338.995 33.0791Z" fill="#76A94F"/>
<path d="M384.687 17.8739C384.687 16.7359 385.621 15.8036 386.761 15.8036C387.914 15.8036 388.834 16.7359 388.834 17.8739C388.834 19.0119 387.901 19.9442 386.761 19.9442C385.621 19.9442 384.687 19.0119 384.687 17.8739Z" fill="#76A94F"/>
<path d="M369.456 17.8739C369.456 16.7359 370.39 15.8036 371.53 15.8036C372.67 15.8036 373.604 16.7359 373.604 17.8739C373.604 19.0119 372.67 19.9442 371.53 19.9442C370.39 19.9442 369.456 19.0119 369.456 17.8739Z" fill="#76A94F"/>
<path d="M354.225 17.8739C354.225 16.7359 355.159 15.8036 356.299 15.8036C357.439 15.8036 358.373 16.7359 358.373 17.8739C358.373 19.0119 357.439 19.9442 356.299 19.9442C355.159 19.9442 354.225 19.0119 354.225 17.8739Z" fill="#76A94F"/>
<path d="M338.995 17.8739C338.995 16.7359 339.929 15.8036 341.069 15.8036C342.208 15.8036 343.142 16.7359 343.142 17.8739C343.142 19.0119 342.208 19.9442 341.069 19.9442C339.929 19.9442 338.995 19.0119 338.995 17.8739Z" fill="#76A94F"/>
<path d="M384.687 2.66874C384.687 1.53075 385.621 0.598419 386.761 0.598419C387.914 0.598419 388.834 1.53075 388.834 2.66874C388.834 3.80673 387.901 4.73906 386.761 4.73906C385.621 4.73906 384.687 3.80673 384.687 2.66874Z" fill="#76A94F"/>
<path d="M369.456 2.66874C369.456 1.53075 370.39 0.598419 371.53 0.598419C372.67 0.598419 373.604 1.53075 373.604 2.66874C373.604 3.80673 372.67 4.73906 371.53 4.73906C370.39 4.73906 369.456 3.80673 369.456 2.66874Z" fill="#76A94F"/>
<path d="M354.225 2.66874C354.225 1.53075 355.159 0.598419 356.299 0.598419C357.439 0.598419 358.373 1.53075 358.373 2.66874C358.373 3.80673 357.439 4.73906 356.299 4.73906C355.159 4.73906 354.225 3.80673 354.225 2.66874Z" fill="#76A94F"/>
<path d="M338.995 2.66874C338.995 1.53075 339.929 0.598419 341.069 0.598419C342.208 0.598419 343.142 1.53075 343.142 2.66874C343.142 3.80673 342.208 4.73906 341.069 4.73906C339.929 4.73906 338.995 3.80673 338.995 2.66874Z" fill="#76A94F"/>
<path d="M136.78 -9.99999C155.952 20.808 177.239 38.4811 201.85 44.0477C239.123 52.4798 276.987 30.9676 309.55 10.1548C333.858 -5.39318 348.512 -12.5776 361.134 -8.73859C376.859 -3.95355 388.642 17.8054 409.078 64.7783C419.474 88.6761 438.07 119.868 467.625 132.838C485.273 140.585 498.649 138.076 498.787 138.062L498.951 138.898C498.814 138.926 485.218 141.476 467.336 133.647C437.507 120.581 418.76 89.1696 408.295 65.121C387.956 18.4086 376.296 -3.22688 360.886 -7.91595C348.595 -11.6453 334.119 -4.51569 310.017 10.8814C277.303 31.7903 239.261 53.3847 201.658 44.884C176.8 39.2626 155.348 21.4524 136.038 -9.54753L136.78 -9.99999Z" fill="#FF700B"/>
</g>
<g opacity="0.3">
<path d="M394.188 660C431.777 660 462.376 690.89 462.376 728.855C462.376 766.82 431.791 797.71 394.188 797.71C356.585 797.71 326 766.82 326 728.855C326 690.89 356.585 660 394.188 660ZM394.188 662.303C357.848 662.303 328.293 692.152 328.293 728.855C328.293 765.545 357.848 795.393 394.188 795.393C430.527 795.393 460.082 765.545 460.082 728.855C460.082 692.165 430.514 662.303 394.188 662.303Z" fill="#76A94F"/>
<path d="M394.188 667.527C427.671 667.527 454.918 695.045 454.918 728.855C454.918 762.666 427.671 790.183 394.188 790.183C360.705 790.183 333.457 762.666 333.457 728.855C333.444 695.031 360.691 667.527 394.188 667.527ZM394.188 669.831C361.955 669.831 335.737 696.306 335.737 728.855C335.737 761.404 361.955 787.88 394.188 787.88C426.421 787.88 452.639 761.404 452.639 728.855C452.625 696.306 426.407 669.831 394.188 669.831Z" fill="#76A94F"/>
<path d="M394.188 675.041C423.564 675.041 447.475 699.185 447.475 728.855C447.475 758.525 423.564 782.67 394.188 782.67C364.811 782.67 340.901 758.539 340.901 728.855C340.901 699.185 364.798 675.041 394.188 675.041ZM394.188 677.358C366.061 677.358 343.195 700.46 343.195 728.855C343.195 757.25 366.075 780.353 394.188 780.353C422.315 780.353 445.181 757.25 445.181 728.855C445.181 700.46 422.301 677.358 394.188 677.358Z" fill="#76A94F"/>
<path d="M394.188 682.568C419.458 682.568 440.031 703.326 440.031 728.855C440.031 754.371 419.472 775.143 394.188 775.143C368.918 775.143 348.345 754.385 348.345 728.855C348.345 703.326 368.904 682.568 394.188 682.568ZM394.188 684.871C370.181 684.871 350.638 704.601 350.638 728.855C350.638 753.109 370.168 772.839 394.188 772.839C418.194 772.839 437.737 753.109 437.737 728.855C437.737 704.601 418.194 684.871 394.188 684.871Z" fill="#76A94F"/>
<path d="M394.188 690.095C415.352 690.095 432.574 707.48 432.574 728.855C432.574 750.23 415.352 767.615 394.188 767.615C373.024 767.615 355.802 750.23 355.802 728.855C355.788 707.48 373.024 690.095 394.188 690.095ZM394.188 692.398C374.274 692.398 358.082 708.755 358.082 728.855C358.082 748.955 374.274 765.312 394.188 765.312C414.088 765.312 430.294 748.955 430.294 728.855C430.28 708.755 414.088 692.398 394.188 692.398Z" fill="#76A94F"/>
<path d="M394.188 697.609C411.245 697.609 425.13 711.621 425.13 728.855C425.13 746.076 411.245 760.102 394.188 760.102C377.131 760.102 363.246 746.09 363.246 728.855C363.246 711.621 377.117 697.609 394.188 697.609ZM394.188 699.926C378.394 699.926 365.539 712.91 365.539 728.855C365.539 744.814 378.394 757.785 394.188 757.785C409.995 757.785 422.836 744.801 422.836 728.855C422.836 712.896 409.982 699.926 394.188 699.926Z" fill="#76A94F"/>
</g>
</g>
</g>
<defs>
<clipPath id="clip0_97_446">
<rect width="808" height="681" fill="white" transform="translate(711 -9.99997) rotate(90)"/>
</clipPath>
</defs>
</svg>
