<svg width="390" height="844" viewBox="0 0 390 844" fill="none" xmlns="http://www.w3.org/2000/svg">
<mask id="mask0_97_441" style="mask-type:alpha" maskUnits="userSpaceOnUse" x="-18" y="-11" width="426" height="866">
<rect x="-17.5" y="-10.5" width="425" height="865" fill="#D9D9D9" stroke="black"/>
</mask>
<g mask="url(#mask0_97_441)">
<path d="M378.4 646.25C376.73 646.25 375.38 647.6 375.39 649.27C375.39 650.94 376.74 652.29 378.41 652.29C380.08 652.29 381.43 650.94 381.43 649.27C381.42 647.6 380.06 646.25 378.4 646.25Z" fill="#76A94F"/>
<path d="M378.4 626.13C376.73 626.13 375.39 627.48 375.39 629.15C375.39 630.82 376.74 632.17 378.4 632.17C380.07 632.17 381.42 630.82 381.42 629.15C381.42 627.48 380.07 626.13 378.4 626.13Z" fill="#76A94F"/>
<path d="M368.33 636.19C366.66 636.19 365.31 637.54 365.31 639.21C365.31 640.88 366.66 642.23 368.33 642.23C369.99 642.23 371.35 640.88 371.35 639.21C371.35 637.54 370 636.19 368.33 636.19Z" fill="#76A94F"/>
<path d="M388.46 636.19C386.79 636.19 385.44 637.54 385.44 639.21C385.44 640.88 386.79 642.23 388.46 642.23C390.12 642.23 391.48 640.88 391.48 639.21C391.48 637.54 390.13 636.19 388.46 636.19Z" fill="#76A94F"/>
<path d="M388.46 616.06C386.79 616.06 385.44 617.41 385.44 619.08C385.44 620.74 386.79 622.1 388.46 622.1C390.12 622.1 391.48 620.75 391.48 619.08C391.48 617.42 390.13 616.06 388.46 616.06Z" fill="#76A94F"/>
<path d="M378.4 686.5C376.73 686.5 375.39 687.85 375.38 689.52C375.38 691.19 376.73 692.54 378.4 692.54C380.07 692.54 381.42 691.19 381.42 689.52C381.42 687.85 380.06 686.5 378.4 686.5Z" fill="#76A94F"/>
<path d="M378.4 666.38C376.73 666.38 375.39 667.73 375.39 669.4C375.39 671.07 376.74 672.42 378.4 672.42C380.07 672.42 381.42 671.07 381.42 669.4C381.42 667.73 380.07 666.38 378.4 666.38Z" fill="#76A94F"/>
<path d="M368.33 676.44C366.66 676.44 365.31 677.79 365.31 679.45C365.31 681.12 366.66 682.47 368.33 682.47C369.99 682.47 371.35 681.12 371.35 679.45C371.35 677.79 370 676.44 368.33 676.44Z" fill="#76A94F"/>
<path d="M388.46 676.44C386.79 676.44 385.44 677.79 385.44 679.45C385.44 681.12 386.79 682.47 388.46 682.47C390.12 682.47 391.48 681.12 391.48 679.45C391.48 677.79 390.13 676.44 388.46 676.44Z" fill="#76A94F"/>
<path d="M368.33 656.31C366.66 656.31 365.31 657.66 365.31 659.33C365.31 660.99 366.66 662.35 368.33 662.35C370 662.35 371.35 661 371.35 659.33C371.35 657.67 370 656.31 368.33 656.31Z" fill="#76A94F"/>
<path d="M388.46 656.31C386.79 656.31 385.44 657.66 385.44 659.33C385.44 660.99 386.79 662.35 388.46 662.35C390.12 662.35 391.48 661 391.48 659.33C391.48 657.67 390.13 656.31 388.46 656.31Z" fill="#76A94F"/>
<path d="M378.4 726.75C376.73 726.75 375.38 728.1 375.38 729.77C375.38 731.44 376.73 732.79 378.4 732.79C380.07 732.79 381.42 731.44 381.42 729.77C381.42 728.1 380.06 726.75 378.4 726.75Z" fill="#76A94F"/>
<path d="M378.4 706.63C376.73 706.63 375.38 707.98 375.38 709.65C375.38 711.32 376.73 712.67 378.4 712.67C380.07 712.67 381.42 711.32 381.42 709.65C381.42 707.98 380.07 706.63 378.4 706.63Z" fill="#76A94F"/>
<path d="M368.33 716.69C366.66 716.69 365.31 718.04 365.31 719.71C365.31 721.38 366.66 722.72 368.33 722.72C369.99 722.72 371.35 721.37 371.35 719.71C371.35 718.05 370 716.69 368.33 716.69Z" fill="#76A94F"/>
<path d="M388.46 716.69C386.79 716.69 385.44 718.04 385.44 719.71C385.44 721.38 386.79 722.72 388.46 722.72C390.12 722.72 391.48 721.37 391.48 719.71C391.48 718.04 390.13 716.69 388.46 716.69Z" fill="#76A94F"/>
<path d="M368.33 696.57C366.66 696.57 365.31 697.92 365.31 699.59C365.31 701.25 366.66 702.61 368.33 702.61C369.99 702.61 371.35 701.26 371.35 699.59C371.35 697.92 370 696.56 368.33 696.57Z" fill="#76A94F"/>
<path d="M388.46 696.56C386.79 696.56 385.44 697.91 385.44 699.58C385.44 701.24 386.79 702.6 388.46 702.6C390.12 702.6 391.48 701.25 391.48 699.58C391.48 697.92 390.13 696.56 388.46 696.56Z" fill="#76A94F"/>
<path d="M378.4 767C376.73 767 375.38 768.35 375.38 770.02C375.38 771.69 376.73 773.04 378.4 773.04C380.07 773.04 381.42 771.69 381.42 770.02C381.42 768.36 380.06 767 378.4 767Z" fill="#76A94F"/>
<path d="M378.4 746.88C376.73 746.88 375.38 748.23 375.38 749.9C375.38 751.57 376.73 752.92 378.4 752.92C380.07 752.92 381.42 751.57 381.42 749.9C381.42 748.23 380.07 746.88 378.4 746.88Z" fill="#76A94F"/>
<path d="M368.33 756.94C366.66 756.94 365.31 758.29 365.31 759.96C365.31 761.63 366.66 762.98 368.33 762.98C369.99 762.98 371.35 761.63 371.35 759.96C371.35 758.29 370 756.94 368.33 756.94Z" fill="#76A94F"/>
<path d="M388.46 756.94C386.79 756.94 385.44 758.29 385.44 759.96C385.44 761.63 386.79 762.98 388.46 762.98C390.12 762.98 391.48 761.63 391.48 759.96C391.48 758.29 390.13 756.94 388.46 756.94Z" fill="#76A94F"/>
<path d="M368.33 736.82C366.66 736.82 365.31 738.17 365.31 739.84C365.31 741.5 366.66 742.86 368.33 742.86C369.99 742.86 371.35 741.51 371.35 739.84C371.35 738.17 370 736.82 368.33 736.82Z" fill="#76A94F"/>
<path d="M388.46 736.82C386.79 736.82 385.44 738.17 385.44 739.84C385.44 741.5 386.79 742.86 388.46 742.86C390.12 742.86 391.48 741.51 391.48 739.84C391.48 738.17 390.13 736.82 388.46 736.82Z" fill="#76A94F"/>
<path d="M378.4 807.25C376.73 807.25 375.38 808.6 375.38 810.27C375.38 811.94 376.73 813.29 378.4 813.29C380.07 813.29 381.42 811.94 381.42 810.27C381.42 808.61 380.07 807.25 378.4 807.25Z" fill="#76A94F"/>
<path d="M378.4 787.13C376.73 787.13 375.38 788.48 375.38 790.15C375.38 791.82 376.73 793.17 378.4 793.17C380.07 793.17 381.42 791.82 381.42 790.15C381.42 788.48 380.07 787.13 378.4 787.13Z" fill="#76A94F"/>
<path d="M368.33 797.19C366.66 797.19 365.31 798.54 365.31 800.21C365.31 801.88 366.66 803.23 368.33 803.23C369.99 803.23 371.35 801.88 371.35 800.21C371.35 798.54 370 797.19 368.33 797.19Z" fill="#76A94F"/>
<path d="M388.46 797.19C386.79 797.19 385.44 798.54 385.44 800.21C385.44 801.88 386.79 803.23 388.46 803.23C390.12 803.23 391.48 801.88 391.48 800.21C391.48 798.55 390.13 797.19 388.46 797.19Z" fill="#76A94F"/>
<path d="M368.33 777.07C366.66 777.07 365.31 778.42 365.31 780.09C365.31 781.76 366.66 783.11 368.33 783.11C369.99 783.11 371.35 781.76 371.35 780.09C371.35 778.42 370 777.07 368.33 777.07Z" fill="#76A94F"/>
<path d="M388.46 777.07C386.79 777.07 385.44 778.42 385.44 780.09C385.44 781.76 386.79 783.11 388.46 783.11C390.12 783.11 391.48 781.76 391.48 780.09C391.48 778.42 390.13 777.07 388.46 777.07Z" fill="#76A94F"/>
<path d="M378.4 827.38C376.73 827.38 375.38 828.73 375.38 830.4C375.38 832.07 376.73 833.42 378.4 833.42C380.07 833.42 381.42 832.07 381.42 830.4C381.42 828.73 380.07 827.38 378.4 827.38Z" fill="#76A94F"/>
<path d="M368.33 837.44C366.66 837.44 365.31 838.79 365.31 840.46C365.31 842.13 366.66 843.48 368.33 843.48C369.99 843.48 371.35 842.13 371.35 840.46C371.35 838.79 370 837.44 368.33 837.44Z" fill="#76A94F"/>
<path d="M388.46 837.44C386.79 837.44 385.44 838.79 385.44 840.46C385.44 842.13 386.79 843.48 388.46 843.48C390.12 843.48 391.48 842.13 391.48 840.46C391.48 838.79 390.13 837.44 388.46 837.44Z" fill="#76A94F"/>
<path d="M368.33 817.32C366.66 817.32 365.31 818.67 365.31 820.34C365.31 822.01 366.66 823.36 368.33 823.36C369.99 823.36 371.35 822.01 371.35 820.34C371.35 818.67 370 817.32 368.33 817.32Z" fill="#76A94F"/>
<path d="M388.46 817.32C386.79 817.32 385.44 818.67 385.44 820.34C385.44 822.01 386.79 823.36 388.46 823.36C390.12 823.36 391.48 822.01 391.48 820.34C391.48 818.67 390.13 817.32 388.46 817.32Z" fill="#76A94F"/>
<path d="M358.27 646.25C357.65 646.25 357.06 646.44 356.58 646.77C355.78 647.31 355.24 648.23 355.24 649.27C355.24 650.31 355.77 651.23 356.57 651.77C357.05 652.1 357.63 652.29 358.26 652.29C359.3 652.29 360.22 651.76 360.76 650.96C361.08 650.48 361.27 649.9 361.27 649.27C361.27 648.64 361.08 648.06 360.76 647.58C360.23 646.78 359.31 646.25 358.27 646.25Z" fill="#76A94F"/>
<path d="M358.27 686.5C357.65 686.5 357.06 686.69 356.58 687.02C355.77 687.56 355.24 688.48 355.24 689.52C355.24 690.56 355.77 691.48 356.57 692.02C357.05 692.35 357.63 692.53 358.26 692.53C359.3 692.53 360.22 692 360.76 691.2C361.08 690.72 361.27 690.14 361.27 689.51C361.27 688.88 361.08 688.3 360.76 687.82C360.23 687.03 359.31 686.5 358.27 686.5Z" fill="#76A94F"/>
<path d="M338.15 686.5C336.48 686.5 335.13 687.85 335.13 689.52C335.13 691.19 336.48 692.54 338.15 692.54C339.82 692.54 341.17 691.19 341.17 689.52C341.17 687.85 339.81 686.5 338.15 686.5Z" fill="#76A94F"/>
<path d="M358.27 666.38C357.64 666.38 357.06 666.57 356.58 666.89C355.78 667.43 355.25 668.35 355.25 669.39C355.25 670.43 355.78 671.35 356.59 671.89C357.07 672.21 357.65 672.4 358.28 672.41C359.32 672.41 360.24 671.88 360.78 671.08C361.11 670.6 361.29 670.02 361.29 669.39C361.29 668.76 361.1 668.18 360.78 667.7C360.23 666.91 359.31 666.38 358.27 666.38Z" fill="#76A94F"/>
<path d="M338.15 666.38C336.48 666.38 335.13 667.73 335.13 669.4C335.13 671.07 336.48 672.42 338.15 672.42C339.82 672.42 341.17 671.07 341.17 669.4C341.17 667.73 339.81 666.38 338.15 666.38Z" fill="#76A94F"/>
<path d="M328.08 676.44C326.41 676.44 325.06 677.79 325.06 679.45C325.06 681.12 326.41 682.47 328.08 682.47C329.74 682.47 331.09 681.12 331.09 679.45C331.1 677.79 329.75 676.44 328.08 676.44Z" fill="#76A94F"/>
<path d="M348.21 676.44C346.54 676.44 345.19 677.79 345.19 679.45C345.19 681.12 346.54 682.47 348.21 682.47C349.88 682.47 351.23 681.12 351.23 679.45C351.23 677.79 349.87 676.44 348.21 676.44Z" fill="#76A94F"/>
<path d="M348.21 656.31C346.55 656.31 345.19 657.66 345.19 659.33C345.19 660.99 346.54 662.35 348.21 662.35C349.88 662.35 351.23 661 351.23 659.33C351.23 657.67 349.87 656.31 348.21 656.31Z" fill="#76A94F"/>
<path d="M358.27 726.75C357.65 726.75 357.06 726.94 356.58 727.27C355.78 727.81 355.24 728.73 355.24 729.77C355.24 730.81 355.77 731.73 356.57 732.27C357.05 732.6 357.63 732.79 358.26 732.79C359.3 732.79 360.22 732.26 360.76 731.46C361.08 730.98 361.27 730.4 361.27 729.77C361.27 729.14 361.08 728.56 360.76 728.08C360.23 727.28 359.31 726.75 358.27 726.75Z" fill="#76A94F"/>
<path d="M338.15 726.75C336.48 726.75 335.13 728.1 335.13 729.77C335.13 731.44 336.48 732.79 338.15 732.79C339.82 732.79 341.17 731.44 341.17 729.77C341.17 728.1 339.81 726.75 338.15 726.75Z" fill="#76A94F"/>
<path d="M358.27 706.63C357.65 706.63 357.06 706.82 356.58 707.14C355.78 707.68 355.25 708.6 355.25 709.64C355.25 710.68 355.78 711.6 356.58 712.14C357.06 712.46 357.64 712.66 358.27 712.66C359.31 712.66 360.23 712.13 360.77 711.33C361.09 710.85 361.28 710.27 361.28 709.64C361.28 709.01 361.09 708.43 360.77 707.95C360.23 707.15 359.31 706.63 358.27 706.63Z" fill="#76A94F"/>
<path d="M338.15 706.63C336.48 706.63 335.13 707.98 335.13 709.65C335.13 711.32 336.48 712.67 338.15 712.67C339.82 712.67 341.17 711.32 341.17 709.65C341.17 707.98 339.81 706.63 338.15 706.63Z" fill="#76A94F"/>
<path d="M328.08 716.69C326.41 716.69 325.06 718.04 325.06 719.71C325.06 721.38 326.41 722.72 328.08 722.72C329.74 722.72 331.09 721.37 331.09 719.71C331.09 718.05 329.75 716.69 328.08 716.69Z" fill="#76A94F"/>
<path d="M348.21 716.69C346.54 716.69 345.19 718.04 345.19 719.71C345.19 721.38 346.54 722.72 348.21 722.72C349.88 722.72 351.23 721.37 351.23 719.71C351.23 718.04 349.87 716.69 348.21 716.69Z" fill="#76A94F"/>
<path d="M328.08 696.56C326.41 696.56 325.06 697.91 325.06 699.58C325.06 701.24 326.41 702.6 328.08 702.6C329.74 702.6 331.09 701.25 331.09 699.58C331.1 697.92 329.75 696.56 328.08 696.56Z" fill="#76A94F"/>
<path d="M348.21 696.57C346.54 696.57 345.19 697.92 345.19 699.59C345.19 701.25 346.54 702.61 348.21 702.61C349.88 702.61 351.23 701.26 351.23 699.59C351.23 697.92 349.87 696.56 348.21 696.57Z" fill="#76A94F"/>
<path d="M358.27 767C357.64 767 357.06 767.19 356.58 767.52C355.78 768.06 355.25 768.98 355.25 770.02C355.25 771.06 355.78 771.98 356.58 772.52C357.06 772.85 357.64 773.04 358.27 773.04C359.31 773.04 360.23 772.51 360.77 771.71C361.09 771.23 361.28 770.65 361.28 770.02C361.28 769.4 361.09 768.81 360.77 768.33C360.23 767.53 359.31 767 358.27 767Z" fill="#76A94F"/>
<path d="M338.15 767C336.48 767 335.13 768.35 335.13 770.02C335.13 771.69 336.48 773.04 338.15 773.04C339.82 773.04 341.17 771.69 341.17 770.02C341.17 768.35 339.81 767 338.15 767Z" fill="#76A94F"/>
<path d="M358.27 746.88C357.65 746.88 357.06 747.07 356.59 747.4C355.78 747.94 355.25 748.86 355.25 749.9C355.25 750.94 355.78 751.86 356.58 752.4C357.06 752.73 357.64 752.91 358.27 752.92C359.31 752.92 360.23 752.39 360.77 751.59C361.09 751.11 361.28 750.53 361.28 749.9C361.28 749.27 361.09 748.69 360.77 748.21C360.23 747.4 359.31 746.88 358.27 746.88Z" fill="#76A94F"/>
<path d="M338.15 746.88C336.48 746.88 335.13 748.23 335.13 749.9C335.13 751.57 336.48 752.92 338.15 752.92C339.82 752.92 341.17 751.57 341.17 749.9C341.17 748.23 339.81 746.88 338.15 746.88Z" fill="#76A94F"/>
<path d="M328.08 756.94C326.41 756.94 325.06 758.29 325.06 759.96C325.06 761.63 326.41 762.98 328.08 762.98C329.74 762.98 331.09 761.63 331.09 759.96C331.09 758.29 329.75 756.94 328.08 756.94Z" fill="#76A94F"/>
<path d="M348.21 756.94C346.54 756.94 345.19 758.29 345.19 759.96C345.19 761.63 346.54 762.98 348.21 762.98C349.88 762.98 351.23 761.63 351.23 759.96C351.23 758.29 349.87 756.94 348.21 756.94Z" fill="#76A94F"/>
<path d="M328.08 736.82C326.41 736.82 325.06 738.17 325.06 739.84C325.06 741.5 326.41 742.86 328.08 742.86C329.74 742.86 331.09 741.51 331.09 739.84C331.1 738.17 329.75 736.82 328.08 736.82Z" fill="#76A94F"/>
<path d="M348.21 736.82C346.54 736.82 345.19 738.17 345.19 739.84C345.19 741.5 346.54 742.86 348.21 742.86C349.88 742.86 351.23 741.51 351.23 739.84C351.23 738.17 349.87 736.82 348.21 736.82Z" fill="#76A94F"/>
<path d="M358.27 807.25C357.65 807.25 357.06 807.44 356.58 807.77C355.78 808.31 355.25 809.23 355.25 810.27C355.25 811.31 355.78 812.23 356.58 812.77C357.06 813.1 357.64 813.29 358.27 813.28C359.31 813.28 360.23 812.75 360.77 811.95C361.09 811.47 361.28 810.89 361.29 810.26C361.29 809.64 361.1 809.05 360.77 808.57C360.23 807.78 359.31 807.25 358.27 807.25Z" fill="#76A94F"/>
<path d="M338.15 807.25C336.48 807.25 335.13 808.6 335.13 810.27C335.13 811.94 336.48 813.29 338.15 813.29C339.82 813.29 341.17 811.94 341.17 810.27C341.17 808.61 339.81 807.25 338.15 807.25Z" fill="#76A94F"/>
<path d="M358.27 787.13C357.65 787.13 357.06 787.32 356.58 787.64C355.78 788.18 355.25 789.1 355.25 790.14C355.25 791.18 355.78 792.1 356.58 792.64C357.06 792.97 357.64 793.16 358.27 793.16C359.31 793.16 360.23 792.63 360.77 791.83C361.09 791.35 361.29 790.77 361.29 790.14C361.29 789.51 361.1 788.93 360.77 788.45C360.23 787.66 359.31 787.13 358.27 787.13Z" fill="#76A94F"/>
<path d="M338.15 787.13C336.48 787.13 335.13 788.48 335.13 790.15C335.13 791.82 336.48 793.17 338.15 793.17C339.82 793.17 341.17 791.82 341.17 790.15C341.17 788.48 339.81 787.13 338.15 787.13Z" fill="#76A94F"/>
<path d="M328.08 797.19C326.41 797.19 325.06 798.54 325.06 800.21C325.06 801.88 326.41 803.23 328.08 803.23C329.74 803.23 331.09 801.88 331.09 800.21C331.1 798.54 329.75 797.19 328.08 797.19Z" fill="#76A94F"/>
<path d="M348.21 797.19C346.54 797.19 345.19 798.54 345.19 800.21C345.19 801.88 346.54 803.23 348.21 803.23C349.88 803.23 351.23 801.88 351.23 800.21C351.23 798.54 349.87 797.19 348.21 797.19Z" fill="#76A94F"/>
<path d="M328.08 777.07C326.41 777.07 325.06 778.42 325.06 780.09C325.06 781.76 326.41 783.11 328.08 783.11C329.74 783.11 331.09 781.76 331.1 780.09C331.1 778.42 329.75 777.07 328.08 777.07Z" fill="#76A94F"/>
<path d="M348.21 777.07C346.54 777.07 345.19 778.42 345.19 780.09C345.19 781.76 346.54 783.11 348.21 783.11C349.88 783.11 351.23 781.76 351.23 780.09C351.23 778.42 349.87 777.07 348.21 777.07Z" fill="#76A94F"/>
<path d="M358.27 827.38C357.65 827.38 357.06 827.57 356.58 827.9C355.78 828.44 355.25 829.36 355.25 830.41C355.25 831.45 355.78 832.37 356.59 832.91C357.07 833.24 357.65 833.42 358.27 833.42C359.31 833.42 360.23 832.89 360.77 832.09C361.1 831.61 361.29 831.03 361.28 830.4C361.28 829.77 361.09 829.19 360.77 828.71C360.23 827.91 359.31 827.38 358.27 827.38Z" fill="#76A94F"/>
<path d="M338.15 827.38C336.48 827.38 335.13 828.73 335.13 830.4C335.13 832.07 336.48 833.42 338.15 833.42C339.82 833.42 341.17 832.07 341.17 830.4C341.16 828.73 339.81 827.38 338.15 827.38Z" fill="#76A94F"/>
<path d="M328.08 837.44C326.41 837.44 325.06 838.79 325.06 840.46C325.06 842.13 326.41 843.48 328.08 843.48C329.75 843.48 331.1 842.13 331.1 840.46C331.1 838.79 329.75 837.44 328.08 837.44Z" fill="#76A94F"/>
<path d="M348.21 837.44C346.54 837.44 345.19 838.79 345.19 840.46C345.19 842.13 346.54 843.48 348.21 843.48C349.88 843.48 351.23 842.13 351.23 840.46C351.23 838.79 349.87 837.44 348.21 837.44Z" fill="#76A94F"/>
<path d="M328.09 817.32C326.42 817.32 325.07 818.67 325.07 820.34C325.07 822.01 326.42 823.36 328.09 823.36C329.76 823.36 331.11 822.01 331.11 820.34C331.1 818.67 329.75 817.32 328.09 817.32Z" fill="#76A94F"/>
<path d="M348.21 817.32C346.55 817.32 345.19 818.67 345.19 820.34C345.19 822.01 346.54 823.36 348.21 823.36C349.88 823.36 351.23 822.01 351.23 820.34C351.23 818.67 349.87 817.32 348.21 817.32Z" fill="#76A94F"/>
<path d="M318.02 686.5C317.39 686.5 316.81 686.69 316.33 687.02C315.52 687.56 315 688.48 315 689.52C315 690.56 315.53 691.48 316.33 692.02C316.81 692.35 317.39 692.53 318.02 692.53C318.85 692.53 319.61 692.19 320.15 691.64C320.7 691.09 321.04 690.34 321.03 689.51C321.03 688.68 320.69 687.92 320.15 687.37C319.61 686.84 318.86 686.5 318.02 686.5Z" fill="#76A94F"/>
<path d="M318.02 726.75C317.39 726.75 316.81 726.94 316.33 727.27C315.53 727.81 315 728.73 315 729.77C315 730.81 315.53 731.73 316.33 732.27C316.81 732.6 317.39 732.79 318.02 732.78C318.85 732.78 319.6 732.44 320.15 731.9C320.7 731.35 321.03 730.6 321.03 729.77C321.03 728.94 320.69 728.18 320.15 727.63C319.61 727.09 318.86 726.75 318.02 726.75Z" fill="#76A94F"/>
<path d="M297.9 726.75C296.23 726.75 294.88 728.1 294.88 729.77C294.88 731.44 296.23 732.79 297.9 732.79C299.57 732.79 300.92 731.44 300.92 729.77C300.92 728.1 299.56 726.75 297.9 726.75Z" fill="#76A94F"/>
<path d="M318.02 706.63C317.39 706.63 316.81 706.82 316.33 707.14C315.52 707.68 315 708.6 315 709.65C315 710.69 315.53 711.61 316.33 712.15C316.81 712.47 317.39 712.67 318.02 712.67C318.85 712.67 319.6 712.33 320.15 711.79C320.7 711.25 321.04 710.49 321.03 709.66C321.03 708.83 320.69 708.07 320.15 707.52C319.61 706.96 318.85 706.63 318.02 706.63Z" fill="#76A94F"/>
<path d="M297.9 706.63C296.23 706.63 294.88 707.98 294.88 709.65C294.88 711.32 296.23 712.67 297.9 712.67C299.57 712.67 300.92 711.32 300.92 709.65C300.91 707.98 299.56 706.63 297.9 706.63Z" fill="#76A94F"/>
<path d="M287.83 716.69C286.16 716.69 284.81 718.04 284.81 719.71C284.81 721.38 286.16 722.72 287.83 722.72C289.5 722.72 290.85 721.37 290.85 719.71C290.85 718.04 289.5 716.69 287.83 716.69Z" fill="#76A94F"/>
<path d="M307.96 716.69C306.29 716.69 304.94 718.04 304.94 719.71C304.94 721.38 306.29 722.72 307.96 722.72C309.63 722.72 310.98 721.37 310.98 719.71C310.98 718.04 309.63 716.69 307.96 716.69Z" fill="#76A94F"/>
<path d="M307.96 696.57C306.29 696.57 304.94 697.92 304.94 699.59C304.94 701.25 306.29 702.61 307.96 702.61C309.63 702.61 310.98 701.26 310.98 699.59C310.98 697.92 309.63 696.56 307.96 696.57Z" fill="#76A94F"/>
<path d="M318.02 767C317.39 767 316.81 767.19 316.33 767.52C315.53 768.06 315 768.98 315 770.02C315 771.06 315.53 771.98 316.33 772.52C316.81 772.85 317.39 773.04 318.02 773.04C318.85 773.04 319.6 772.7 320.15 772.16C320.7 771.61 321.03 770.86 321.04 770.02C321.04 769.19 320.7 768.43 320.15 767.88C319.61 767.34 318.85 767 318.02 767Z" fill="#76A94F"/>
<path d="M297.9 767C296.23 767 294.88 768.35 294.88 770.02C294.88 771.69 296.23 773.04 297.9 773.04C299.57 773.04 300.92 771.69 300.92 770.02C300.91 768.35 299.56 767 297.9 767Z" fill="#76A94F"/>
<path d="M318.02 746.88C317.4 746.88 316.81 747.07 316.34 747.39C315.54 747.93 315.01 748.85 315.01 749.89C315.01 750.93 315.54 751.85 316.34 752.39C316.82 752.72 317.4 752.9 318.03 752.91C318.86 752.91 319.61 752.57 320.16 752.03C320.71 751.49 321.04 750.73 321.05 749.89C321.05 749.05 320.71 748.3 320.16 747.76C319.61 747.22 318.85 746.88 318.02 746.88Z" fill="#76A94F"/>
<path d="M297.9 746.88C296.23 746.88 294.88 748.23 294.88 749.9C294.88 751.57 296.23 752.92 297.9 752.92C299.57 752.92 300.92 751.57 300.92 749.9C300.91 748.23 299.56 746.88 297.9 746.88Z" fill="#76A94F"/>
<path d="M287.83 756.94C286.16 756.94 284.81 758.29 284.81 759.96C284.81 761.63 286.16 762.98 287.83 762.98C289.5 762.98 290.85 761.63 290.85 759.96C290.85 758.29 289.5 756.94 287.83 756.94Z" fill="#76A94F"/>
<path d="M307.96 756.94C306.29 756.94 304.94 758.29 304.94 759.96C304.94 761.63 306.29 762.98 307.96 762.98C309.63 762.98 310.98 761.63 310.98 759.96C310.98 758.29 309.63 756.94 307.96 756.94Z" fill="#76A94F"/>
<path d="M287.83 736.82C286.16 736.82 284.81 738.17 284.81 739.84C284.81 741.5 286.16 742.86 287.83 742.86C289.5 742.86 290.85 741.51 290.85 739.84C290.85 738.17 289.5 736.82 287.83 736.82Z" fill="#76A94F"/>
<path d="M307.96 736.82C306.29 736.82 304.94 738.17 304.94 739.84C304.94 741.5 306.29 742.86 307.96 742.86C309.63 742.86 310.98 741.51 310.98 739.84C310.98 738.17 309.63 736.82 307.96 736.82Z" fill="#76A94F"/>
<path d="M318.02 807.25C317.4 807.25 316.81 807.44 316.34 807.77C315.54 808.31 315.01 809.23 315.01 810.27C315.01 811.31 315.54 812.23 316.34 812.77C316.82 813.1 317.4 813.29 318.03 813.28C318.86 813.28 319.61 812.94 320.16 812.4C320.71 811.85 321.04 811.1 321.05 810.26C321.05 809.43 320.71 808.67 320.16 808.13C319.61 807.59 318.85 807.25 318.02 807.25Z" fill="#76A94F"/>
<path d="M297.9 807.25C296.23 807.25 294.88 808.6 294.88 810.27C294.88 811.94 296.23 813.29 297.9 813.29C299.57 813.29 300.92 811.94 300.92 810.27C300.92 808.61 299.56 807.25 297.9 807.25Z" fill="#76A94F"/>
<path d="M318.02 787.13C317.4 787.13 316.81 787.32 316.34 787.64C315.54 788.18 315.01 789.1 315.01 790.14C315.01 791.18 315.54 792.1 316.34 792.64C316.82 792.97 317.4 793.16 318.03 793.16C318.86 793.16 319.61 792.82 320.16 792.28C320.71 791.73 321.04 790.98 321.05 790.14C321.05 789.31 320.71 788.55 320.16 788.01C319.61 787.47 318.85 787.13 318.02 787.13Z" fill="#76A94F"/>
<path d="M297.9 787.13C296.23 787.13 294.88 788.48 294.88 790.15C294.88 791.82 296.23 793.17 297.9 793.17C299.57 793.17 300.92 791.82 300.92 790.15C300.92 788.48 299.56 787.13 297.9 787.13Z" fill="#76A94F"/>
<path d="M287.83 797.19C286.16 797.19 284.81 798.54 284.81 800.21C284.81 801.88 286.16 803.23 287.83 803.23C289.5 803.23 290.85 801.88 290.85 800.21C290.85 798.54 289.5 797.19 287.83 797.19Z" fill="#76A94F"/>
<path d="M307.96 797.19C306.29 797.19 304.94 798.54 304.94 800.21C304.94 801.88 306.29 803.23 307.96 803.23C309.63 803.23 310.98 801.88 310.98 800.21C310.98 798.54 309.63 797.19 307.96 797.19Z" fill="#76A94F"/>
<path d="M287.83 777.07C286.16 777.07 284.81 778.42 284.81 780.09C284.81 781.76 286.16 783.11 287.83 783.11C289.5 783.11 290.85 781.76 290.85 780.09C290.85 778.42 289.5 777.07 287.83 777.07Z" fill="#76A94F"/>
<path d="M307.96 777.07C306.29 777.07 304.94 778.42 304.94 780.09C304.94 781.76 306.29 783.11 307.96 783.11C309.63 783.11 310.98 781.76 310.98 780.09C310.98 778.42 309.63 777.07 307.96 777.07Z" fill="#76A94F"/>
<path d="M318.02 827.38C317.4 827.38 316.81 827.57 316.33 827.9C315.53 828.44 315 829.36 315 830.41C315 831.45 315.53 832.37 316.33 832.91C316.81 833.24 317.39 833.42 318.01 833.42C318.84 833.42 319.6 833.08 320.14 832.54C320.69 831.99 321.02 831.24 321.02 830.41C321.02 829.57 320.68 828.82 320.14 828.27C319.61 827.72 318.85 827.38 318.02 827.38Z" fill="#76A94F"/>
<path d="M297.9 827.38C296.23 827.38 294.88 828.73 294.88 830.4C294.88 832.07 296.23 833.42 297.9 833.42C299.57 833.42 300.92 832.07 300.92 830.4C300.91 828.73 299.56 827.38 297.9 827.38Z" fill="#76A94F"/>
<path d="M287.83 837.44C286.16 837.44 284.81 838.79 284.81 840.46C284.81 842.13 286.16 843.48 287.83 843.48C289.49 843.48 290.85 842.13 290.85 840.46C290.85 838.79 289.5 837.44 287.83 837.44Z" fill="#76A94F"/>
<path d="M307.96 837.44C306.29 837.44 304.94 838.79 304.94 840.46C304.94 842.13 306.29 843.48 307.96 843.48C309.63 843.48 310.98 842.13 310.98 840.46C310.98 838.79 309.63 837.44 307.96 837.44Z" fill="#76A94F"/>
<path d="M287.83 817.32C286.16 817.32 284.81 818.67 284.81 820.34C284.81 822.01 286.16 823.36 287.83 823.36C289.5 823.36 290.85 822.01 290.85 820.34C290.85 818.67 289.5 817.32 287.83 817.32Z" fill="#76A94F"/>
<path d="M307.96 817.32C306.3 817.32 304.94 818.67 304.94 820.34C304.94 822 306.29 823.36 307.96 823.36C309.63 823.36 310.98 822.01 310.98 820.34C310.98 818.67 309.62 817.32 307.96 817.32Z" fill="#76A94F"/>
<path d="M277.77 726.75C277.15 726.75 276.57 726.94 276.09 727.27C275.29 727.81 274.76 728.73 274.76 729.77C274.76 730.81 275.29 731.73 276.09 732.27C276.57 732.6 277.15 732.79 277.78 732.78C278.61 732.78 279.37 732.44 279.91 731.9C280.46 731.35 280.8 730.6 280.8 729.77C280.8 728.94 280.46 728.18 279.91 727.63C279.36 727.09 278.6 726.75 277.77 726.75Z" fill="#76A94F"/>
<path d="M277.77 767C277.15 767 276.57 767.19 276.09 767.52C275.29 768.06 274.76 768.98 274.76 770.02C274.76 771.06 275.29 771.98 276.09 772.52C276.57 772.85 277.15 773.04 277.78 773.04C278.61 773.04 279.37 772.7 279.91 772.16C280.46 771.61 280.8 770.86 280.8 770.02C280.8 769.18 280.46 768.43 279.91 767.88C279.36 767.34 278.6 767 277.77 767Z" fill="#76A94F"/>
<path d="M257.65 767C255.98 767 254.63 768.35 254.63 770.02C254.63 771.69 255.98 773.04 257.65 773.04C259.32 773.04 260.67 771.69 260.67 770.02C260.66 768.36 259.31 767 257.65 767Z" fill="#76A94F"/>
<path d="M277.77 746.88C277.14 746.88 276.57 747.07 276.09 747.39C275.29 747.93 274.76 748.85 274.76 749.89C274.76 750.93 275.29 751.85 276.09 752.39C276.57 752.72 277.15 752.9 277.78 752.91C278.61 752.91 279.37 752.57 279.91 752.03C280.46 751.49 280.8 750.73 280.79 749.9C280.79 749.06 280.45 748.31 279.91 747.76C279.36 747.22 278.6 746.88 277.77 746.88Z" fill="#76A94F"/>
<path d="M257.65 746.88C255.98 746.88 254.63 748.23 254.63 749.9C254.63 751.57 255.98 752.92 257.65 752.92C259.32 752.92 260.67 751.57 260.67 749.9C260.66 748.23 259.31 746.88 257.65 746.88Z" fill="#76A94F"/>
<path d="M247.58 756.94C245.91 756.94 244.56 758.29 244.56 759.96C244.56 761.63 245.91 762.98 247.58 762.98C249.24 762.98 250.6 761.63 250.6 759.96C250.6 758.29 249.25 756.94 247.58 756.94Z" fill="#76A94F"/>
<path d="M267.71 756.94C266.04 756.94 264.69 758.29 264.69 759.96C264.69 761.63 266.04 762.98 267.71 762.98C269.38 762.98 270.73 761.63 270.73 759.96C270.73 758.29 269.38 756.94 267.71 756.94Z" fill="#76A94F"/>
<path d="M267.71 736.82C266.04 736.82 264.69 738.17 264.69 739.84C264.69 741.5 266.04 742.86 267.71 742.86C269.38 742.86 270.73 741.51 270.73 739.84C270.73 738.17 269.38 736.82 267.71 736.82Z" fill="#76A94F"/>
<path d="M277.77 807.25C277.14 807.25 276.56 807.44 276.09 807.77C275.29 808.31 274.76 809.23 274.76 810.27C274.76 811.31 275.29 812.23 276.09 812.77C276.57 813.1 277.15 813.29 277.77 813.28C278.6 813.28 279.36 812.94 279.91 812.4C280.45 811.85 280.79 811.1 280.79 810.26C280.79 809.43 280.45 808.67 279.91 808.13C279.36 807.59 278.6 807.25 277.77 807.25Z" fill="#76A94F"/>
<path d="M257.65 807.26C255.98 807.26 254.63 808.61 254.63 810.28C254.63 811.95 255.98 813.3 257.65 813.3C259.32 813.3 260.67 811.95 260.67 810.28C260.67 808.61 259.31 807.25 257.65 807.26Z" fill="#76A94F"/>
<path d="M277.77 787.13C277.14 787.13 276.56 787.32 276.09 787.64C275.29 788.18 274.76 789.1 274.76 790.14C274.76 791.18 275.29 792.1 276.09 792.64C276.57 792.97 277.15 793.16 277.78 793.16C278.61 793.16 279.37 792.82 279.91 792.28C280.46 791.73 280.8 790.98 280.8 790.15C280.8 789.32 280.46 788.56 279.91 788.01C279.36 787.47 278.6 787.13 277.77 787.13Z" fill="#76A94F"/>
<path d="M257.65 787.13C255.98 787.13 254.63 788.48 254.63 790.15C254.63 791.82 255.98 793.17 257.65 793.17C259.32 793.17 260.67 791.82 260.67 790.15C260.66 788.48 259.31 787.13 257.65 787.13Z" fill="#76A94F"/>
<path d="M247.58 797.19C245.91 797.19 244.56 798.54 244.56 800.21C244.56 801.88 245.91 803.23 247.58 803.23C249.24 803.23 250.6 801.88 250.6 800.21C250.6 798.55 249.25 797.19 247.58 797.19Z" fill="#76A94F"/>
<path d="M267.71 797.19C266.04 797.19 264.69 798.54 264.69 800.21C264.69 801.88 266.04 803.23 267.71 803.23C269.38 803.23 270.73 801.88 270.73 800.21C270.73 798.54 269.38 797.19 267.71 797.19Z" fill="#76A94F"/>
<path d="M247.58 777.07C245.91 777.07 244.56 778.42 244.56 780.09C244.56 781.76 245.91 783.11 247.58 783.11C249.24 783.11 250.6 781.76 250.6 780.09C250.6 778.42 249.25 777.07 247.58 777.07Z" fill="#76A94F"/>
<path d="M267.71 777.07C266.04 777.07 264.69 778.42 264.69 780.09C264.69 781.76 266.04 783.11 267.71 783.11C269.38 783.11 270.73 781.76 270.73 780.09C270.73 778.42 269.38 777.07 267.71 777.07Z" fill="#76A94F"/>
<path d="M277.77 827.38C277.14 827.38 276.56 827.57 276.08 827.9C275.28 828.44 274.75 829.36 274.75 830.4C274.75 831.44 275.28 832.36 276.08 832.9C276.56 833.23 277.14 833.41 277.76 833.42C278.59 833.42 279.35 833.08 279.89 832.54C280.44 831.99 280.78 831.24 280.78 830.41C280.78 829.57 280.44 828.82 279.89 828.27C279.36 827.72 278.6 827.38 277.77 827.38Z" fill="#76A94F"/>
<path d="M257.65 827.38C255.98 827.38 254.63 828.73 254.63 830.4C254.63 832.07 255.98 833.42 257.65 833.42C259.32 833.42 260.67 832.07 260.67 830.4C260.66 828.73 259.31 827.38 257.65 827.38Z" fill="#76A94F"/>
<path d="M247.58 837.44C245.91 837.44 244.56 838.79 244.56 840.46C244.56 842.13 245.91 843.48 247.58 843.48C249.24 843.48 250.6 842.13 250.6 840.46C250.6 838.8 249.25 837.44 247.58 837.44Z" fill="#76A94F"/>
<path d="M267.71 837.44C266.04 837.44 264.69 838.79 264.69 840.46C264.69 842.13 266.04 843.48 267.71 843.48C269.37 843.48 270.73 842.13 270.73 840.46C270.73 838.79 269.37 837.44 267.71 837.44Z" fill="#76A94F"/>
<path d="M247.58 817.32C245.91 817.32 244.56 818.67 244.56 820.34C244.56 822.01 245.91 823.35 247.58 823.35C249.24 823.35 250.6 822 250.6 820.34C250.6 818.67 249.25 817.32 247.58 817.32Z" fill="#76A94F"/>
<path d="M267.71 817.32C266.04 817.32 264.69 818.67 264.69 820.34C264.69 822 266.04 823.35 267.71 823.35C269.37 823.35 270.73 822 270.73 820.33C270.73 818.67 269.37 817.32 267.71 817.32Z" fill="#76A94F"/>
<path d="M237.52 767C236.89 767 236.31 767.19 235.83 767.52C235.03 768.06 234.5 768.98 234.5 770.02C234.5 771.06 235.03 771.98 235.83 772.52C236.31 772.85 236.89 773.04 237.52 773.04C238.35 773.04 239.11 772.7 239.65 772.16C240.2 771.61 240.54 770.86 240.54 770.02C240.54 769.19 240.2 768.43 239.65 767.88C239.11 767.34 238.35 767 237.52 767Z" fill="#76A94F"/>
<path d="M237.52 807.26C236.89 807.26 236.31 807.45 235.83 807.77C235.03 808.31 234.5 809.23 234.5 810.27C234.5 811.31 235.03 812.23 235.83 812.77C236.31 813.1 236.89 813.28 237.52 813.29C238.35 813.29 239.11 812.95 239.65 812.41C240.2 811.86 240.54 811.11 240.53 810.27C240.53 809.44 240.19 808.68 239.65 808.14C239.11 807.59 238.35 807.25 237.52 807.26Z" fill="#76A94F"/>
<path d="M217.39 807.26C215.72 807.26 214.37 808.61 214.37 810.28C214.37 811.95 215.72 813.3 217.39 813.3C219.06 813.3 220.41 811.95 220.41 810.28C220.41 808.61 219.06 807.26 217.39 807.26Z" fill="#76A94F"/>
<path d="M237.52 787.13C236.89 787.13 236.31 787.32 235.83 787.64C235.03 788.18 234.5 789.1 234.5 790.14C234.5 791.18 235.03 792.1 235.83 792.64C236.31 792.97 236.89 793.15 237.52 793.15C238.35 793.15 239.11 792.82 239.65 792.27C240.2 791.72 240.54 790.97 240.54 790.13C240.54 789.3 240.2 788.54 239.65 788C239.11 787.47 238.35 787.13 237.52 787.13Z" fill="#76A94F"/>
<path d="M217.39 787.13C215.72 787.13 214.37 788.48 214.37 790.15C214.37 791.82 215.72 793.16 217.39 793.16C219.06 793.16 220.41 791.81 220.41 790.14C220.41 788.48 219.06 787.13 217.39 787.13Z" fill="#76A94F"/>
<path d="M207.33 797.19C205.66 797.19 204.31 798.54 204.31 800.21C204.31 801.88 205.66 803.23 207.33 803.23C209 803.23 210.35 801.88 210.35 800.21C210.35 798.55 209 797.19 207.33 797.19Z" fill="#76A94F"/>
<path d="M227.46 797.19C225.79 797.19 224.44 798.54 224.44 800.21C224.44 801.88 225.79 803.23 227.46 803.23C229.12 803.23 230.48 801.88 230.48 800.21C230.48 798.54 229.12 797.19 227.46 797.19Z" fill="#76A94F"/>
<path d="M227.46 777.07C225.79 777.07 224.44 778.42 224.44 780.09C224.44 781.76 225.79 783.11 227.46 783.11C229.12 783.11 230.48 781.76 230.48 780.09C230.48 778.42 229.12 777.07 227.46 777.07Z" fill="#76A94F"/>
<path d="M237.52 827.38C236.89 827.38 236.32 827.57 235.83 827.9C235.03 828.44 234.5 829.36 234.5 830.4C234.5 831.44 235.03 832.36 235.83 832.9C236.31 833.22 236.89 833.41 237.52 833.41C238.35 833.41 239.11 833.07 239.65 832.53C240.2 831.98 240.54 831.23 240.54 830.4C240.54 829.56 240.2 828.81 239.65 828.26C239.11 827.72 238.35 827.38 237.52 827.38Z" fill="#76A94F"/>
<path d="M217.39 827.38C215.72 827.38 214.37 828.73 214.37 830.4C214.37 832.07 215.72 833.42 217.39 833.42C219.06 833.42 220.41 832.07 220.41 830.4C220.41 828.73 219.06 827.38 217.39 827.38Z" fill="#76A94F"/>
<path d="M207.33 837.44C205.66 837.44 204.31 838.79 204.31 840.46C204.31 842.13 205.66 843.48 207.33 843.48C209 843.48 210.35 842.13 210.35 840.46C210.35 838.8 209 837.44 207.33 837.44Z" fill="#76A94F"/>
<path d="M227.46 837.44C225.79 837.44 224.44 838.79 224.44 840.46C224.44 842.13 225.79 843.48 227.46 843.48C229.12 843.48 230.48 842.13 230.48 840.46C230.48 838.79 229.12 837.44 227.46 837.44Z" fill="#76A94F"/>
<path d="M207.33 817.32C205.66 817.32 204.31 818.67 204.31 820.34C204.31 822.01 205.66 823.35 207.33 823.35C209 823.35 210.35 822 210.35 820.34C210.35 818.67 209 817.32 207.33 817.32Z" fill="#76A94F"/>
<path d="M227.46 817.32C225.79 817.32 224.44 818.67 224.44 820.34C224.44 822 225.79 823.35 227.46 823.35C229.12 823.35 230.48 822 230.48 820.33C230.48 818.67 229.12 817.32 227.46 817.32Z" fill="#76A94F"/>
<path d="M197.27 807.26C195.6 807.26 194.25 808.61 194.25 810.28C194.25 811.95 195.6 813.3 197.27 813.3C198.73 813.3 199.95 812.26 200.23 810.89C200.27 810.69 200.29 810.49 200.29 810.28C200.29 810.07 200.27 809.87 200.23 809.67C199.95 808.29 198.73 807.26 197.27 807.26Z" fill="#76A94F"/>
<path d="M197.27 827.38C195.6 827.38 194.25 828.73 194.25 830.4C194.25 832.07 195.6 833.42 197.27 833.42C198.73 833.42 199.95 832.39 200.23 831.01C200.27 830.81 200.29 830.61 200.29 830.4C200.29 830.19 200.27 829.98 200.23 829.79C199.95 828.41 198.73 827.38 197.27 827.38Z" fill="#76A94F"/>
<path d="M177.14 827.38C175.47 827.38 174.12 828.73 174.12 830.4C174.12 832.07 175.47 833.42 177.14 833.42C178.81 833.42 180.16 832.07 180.16 830.4C180.17 828.73 178.81 827.38 177.14 827.38Z" fill="#76A94F"/>
<path d="M167.08 837.44C165.41 837.44 164.06 838.79 164.06 840.46C164.06 842.13 165.41 843.48 167.08 843.48C168.75 843.48 170.1 842.13 170.1 840.46C170.1 838.8 168.75 837.44 167.08 837.44Z" fill="#76A94F"/>
<path d="M187.21 837.44C185.54 837.44 184.19 838.79 184.19 840.46C184.19 842.13 185.54 843.48 187.21 843.48C188.87 843.48 190.23 842.13 190.23 840.46C190.23 838.8 188.87 837.44 187.21 837.44Z" fill="#76A94F"/>
<path d="M187.21 817.32C185.54 817.32 184.19 818.67 184.19 820.34C184.19 822.01 185.54 823.36 187.21 823.36C188.87 823.36 190.23 822.01 190.23 820.35C190.23 818.67 188.87 817.32 187.21 817.32Z" fill="#76A94F"/>
<path d="M62.3845 762.557H62.2749C59.9102 762.557 57.5182 762.474 55.1672 762.31L55.2906 760.507C57.6004 760.665 59.9514 760.747 62.2749 760.747L62.3845 762.557ZM69.6087 762.289L69.4784 760.487C71.8293 760.315 74.2077 760.062 76.5312 759.726L76.7917 761.515C74.4202 761.857 72.0076 762.118 69.6087 762.289ZM47.9842 761.556C45.6059 761.22 43.2139 760.795 40.8698 760.288L41.2468 758.52C43.5428 759.02 45.9006 759.438 48.231 759.767L47.9842 761.556ZM83.8993 760.24L83.5154 758.472C85.8115 757.978 88.1282 757.382 90.39 756.717L90.9041 758.451C88.5943 759.13 86.2433 759.726 83.8993 760.24ZM33.865 758.513C31.562 757.841 29.2591 757.073 27.0041 756.237L27.6347 754.544C29.8417 755.367 32.1104 756.114 34.3722 756.772L33.865 758.513ZM97.7581 756.162L97.1206 754.469C99.3276 753.646 101.528 752.728 103.666 751.755L104.42 753.4C102.247 754.393 100.006 755.326 97.7581 756.162ZM20.3215 753.482C18.135 752.488 15.9623 751.398 13.8513 750.247L14.7149 748.663C16.7848 749.794 18.9232 750.864 21.0685 751.837L20.3215 753.482ZM110.87 750.158L110.006 748.574C112.062 747.443 114.119 746.23 116.099 744.942L117.08 746.463C115.058 747.766 112.974 749.006 110.87 750.158ZM7.63468 746.559C5.61275 745.257 3.61138 743.873 1.69226 742.44L2.77519 740.994C4.66005 742.406 6.6203 743.763 8.60796 745.045L7.63468 746.559ZM123.008 742.33L121.925 740.884C123.81 739.472 125.661 737.971 127.45 736.429L128.635 737.793C126.812 739.369 124.921 740.898 123.008 742.33ZM-3.94174 737.91C-5.75805 736.34 -7.54009 734.681 -9.23989 732.988L-7.96504 731.707C-6.29952 733.372 -4.55175 734.997 -2.76285 736.539L-3.94174 737.91ZM133.913 732.865L132.638 731.59C134.304 729.925 135.928 728.177 137.477 726.395L138.841 727.581C137.265 729.39 135.606 731.172 133.913 732.865ZM-14.1679 727.711C-15.7443 725.894 -17.2728 724.01 -18.7121 722.097L-17.2659 721.008C-15.854 722.886 -14.3461 724.743 -12.804 726.525L-14.1679 727.711ZM143.371 721.953L141.925 720.87C143.344 718.979 144.708 717.019 145.976 715.038L147.491 716.018C146.202 718.033 144.811 720.027 143.371 721.953ZM-22.8451 716.175C-24.1474 714.16 -25.3948 712.077 -26.5463 709.973L-24.963 709.102C-23.8252 711.165 -22.6052 713.215 -21.3304 715.195L-22.8451 716.175ZM151.192 709.801L149.609 708.938C150.74 706.861 151.816 704.729 152.789 702.584L154.434 703.338C153.44 705.511 152.35 707.69 151.192 709.801ZM-29.7951 703.523C-30.7957 701.35 -31.7279 699.109 -32.5709 696.861L-30.878 696.223C-30.0487 698.43 -29.1302 700.631 -28.1501 702.769L-29.7951 703.523ZM157.203 696.655L155.51 696.025C156.332 693.811 157.086 691.549 157.744 689.287L159.478 689.794C158.807 692.097 158.039 694.4 157.203 696.655ZM-34.867 690.014C-35.5456 687.711 -36.1487 685.353 -36.6628 683.016L-34.8944 682.632C-34.3941 684.928 -33.7978 687.238 -33.133 689.507L-34.867 690.014ZM161.26 682.796L159.492 682.413C159.992 680.11 160.411 677.766 160.74 675.428L162.528 675.682C162.193 678.06 161.768 680.452 161.26 682.796ZM-37.9513 675.901C-38.294 673.537 -38.5545 671.117 -38.7327 668.718L-36.9301 668.588C-36.7587 670.939 -36.4983 673.317 -36.1624 675.641L-37.9513 675.901ZM163.296 668.499L161.493 668.369C161.658 666.025 161.74 663.639 161.74 661.275V660.843L163.55 660.829V661.275C163.55 663.681 163.467 666.114 163.296 668.499ZM-37.1905 661.501H-39V661.282C-39 658.951 -38.9178 656.6 -38.767 654.284L-36.9644 654.407C-37.122 656.683 -37.1974 658.992 -37.1974 661.282V661.501H-37.1905ZM161.466 653.749C161.288 651.405 161.027 649.027 160.685 646.696L162.474 646.436C162.816 648.807 163.09 651.227 163.269 653.619L161.466 653.749ZM-36.2241 647.347L-38.013 647.094C-37.6772 644.716 -37.2591 642.324 -36.7519 639.979L-34.9835 640.356C-35.4839 642.659 -35.8951 645.01 -36.2241 647.347ZM159.403 639.719C158.896 637.43 158.3 635.12 157.628 632.851L159.355 632.337C160.04 634.647 160.65 636.998 161.164 639.335L159.403 639.719ZM-33.2563 633.482L-34.9904 632.981C-34.3187 630.679 -33.5579 628.369 -32.7286 626.121L-31.0356 626.751C-31.8513 628.951 -32.5984 631.22 -33.2563 633.482ZM155.352 626.127C154.523 623.934 153.605 621.734 152.611 619.589L154.249 618.828C155.256 621.008 156.195 623.249 157.045 625.483L155.352 626.127ZM-28.3283 620.171L-29.9733 619.424C-28.9794 617.238 -27.8896 615.058 -26.745 612.954L-25.1618 613.818C-26.2858 615.888 -27.355 618.026 -28.3283 620.171ZM149.41 613.263C148.272 611.199 147.045 609.157 145.757 607.183L147.271 606.196C148.574 608.204 149.828 610.288 150.986 612.392L149.41 613.263ZM-21.5428 607.704L-23.0644 606.731C-21.7759 604.716 -20.3914 602.714 -18.952 600.788L-17.5058 601.871C-18.9178 603.756 -20.2817 605.723 -21.5428 607.704ZM141.685 601.378C140.267 599.5 138.759 597.642 137.21 595.874L138.567 594.681C140.143 596.484 141.679 598.369 143.125 600.288L141.685 601.378ZM-13.0576 596.326L-14.4215 595.147C-12.8588 593.338 -11.2001 591.549 -9.50719 589.849L-8.2255 591.124C-9.89787 592.796 -11.5223 594.544 -13.0576 596.326ZM132.357 590.692C130.678 589.027 128.923 587.409 127.141 585.867L128.32 584.496C130.136 586.059 131.918 587.711 133.625 589.404L132.357 590.692ZM-3.05757 586.271L-4.24331 584.907C-2.44071 583.331 -0.549 581.803 1.36327 580.356L2.45305 581.803C0.575055 583.221 -1.28238 584.722 -3.05757 586.271ZM121.603 581.432C119.718 580.027 117.744 578.663 115.764 577.395L116.737 575.874C118.766 577.162 120.767 578.547 122.686 579.979L121.603 581.432ZM8.27211 577.731L7.28513 576.217C9.30021 574.907 11.3907 573.66 13.4812 572.509L14.3516 574.092C12.2954 575.23 10.2529 576.45 8.27211 577.731ZM109.643 573.79C107.566 572.659 105.428 571.597 103.282 570.631L104.029 568.986C106.209 569.973 108.389 571.056 110.507 572.207L109.643 573.79ZM20.6847 570.898L19.9308 569.253C22.1035 568.252 24.3448 567.313 26.586 566.47L27.2235 568.163C25.0233 568.992 22.8232 569.911 20.6847 570.898ZM96.7094 567.937C94.5024 567.121 92.2337 566.374 89.9719 565.723L90.4723 563.989C92.7752 564.654 95.085 565.415 97.3331 566.244L96.7094 567.937ZM33.9541 565.901L33.44 564.167C35.7498 563.482 38.1076 562.879 40.438 562.365L40.8287 564.133C38.5257 564.633 36.2159 565.23 33.9541 565.901ZM83.0905 563.989C80.7944 563.496 78.4366 563.084 76.0994 562.762L76.3461 560.973C78.7245 561.302 81.1165 561.727 83.4606 562.221L83.0905 563.989ZM47.7992 562.858L47.5387 561.069C49.9102 560.727 52.3297 560.459 54.7217 560.281L54.8588 562.084C52.501 562.255 50.1295 562.515 47.7992 562.858ZM69.0398 562.036C66.8054 561.885 64.5298 561.809 62.2749 561.809H61.9459V560H62.2749C64.571 560 66.8876 560.075 69.1631 560.233L69.0398 562.036Z" fill="#76A94F"/>
<path d="M136.703 778.369L129.143 775.805L129.759 773.975L136.195 776.155L141.487 770.987L148.485 773.358L153.769 768.191L160.767 770.562L166.051 765.401L173.056 767.772L177.916 763.016L179.266 764.4L173.557 769.979L166.559 767.608L161.267 772.776L154.269 770.404L148.985 775.572L141.987 773.201L136.703 778.369Z" fill="#76A94F"/>
<path d="M365.225 645L356 660.977H374.451L365.225 645L356 660.977H374.451L365.225 645Z" fill="#FF700B"/>
<path d="M365.225 654.596L356 670.572H374.451L365.225 654.596L356 670.572H374.451L365.225 654.596Z" fill="#FF700B"/>
</g>
</svg>
