<svg width="393" height="852" viewBox="0 0 393 852" fill="none" xmlns="http://www.w3.org/2000/svg">
<mask id="mask0_97_451" style="mask-type:alpha" maskUnits="userSpaceOnUse" x="-16" y="0" width="426" height="866">
<rect x="-15.5" y="0.5" width="425" height="865" fill="#D9D9D9" stroke="black"/>
</mask>
<g mask="url(#mask0_97_451)">
<path d="M108.882 526.063L105.769 516.596C92.9456 508.36 77.3455 500.069 58.3945 491.941L51.0212 502.532L45.8403 486.778C32.2714 481.426 17.1667 476.166 0.35692 471.063C-0.568694 482.158 0.330115 493.679 2.77306 505.184L7.43109 506.337L3.71444 509.306C9.44801 532.775 21.4829 555.955 37.4485 575.08L53.062 578.946L46.0239 584.568C77.327 616.544 120.232 633.024 160.563 611.484C160.563 611.484 179.906 567.795 112.396 521.016L108.882 526.063Z" fill="#357C49"/>
<mask id="mask1_97_451" style="mask-type:luminance" maskUnits="userSpaceOnUse" x="0" y="471" width="164" height="151">
<path d="M108.882 526.063L105.769 516.596C92.9456 508.36 77.3455 500.069 58.3945 491.941L51.0212 502.532L45.8403 486.778C32.2714 481.426 17.1667 476.166 0.35692 471.063C-0.568694 482.158 0.330115 493.679 2.77306 505.184L7.43109 506.337L3.71444 509.306C9.44801 532.775 21.4829 555.955 37.4485 575.08L53.062 578.946L46.0239 584.568C77.327 616.544 120.232 633.024 160.563 611.484C160.563 611.484 179.906 567.795 112.396 521.016L108.882 526.063Z" fill="white"/>
</mask>
<g mask="url(#mask1_97_451)">
<path d="M100.798 478.847C28.6052 484.672 175.99 580.431 116.269 575.226C56.5471 570.022 137.412 641.485 137.412 641.485L174.182 600.616L162.865 524.369L96.8458 471.618" fill="#357C49"/>
</g>
<path d="M108.882 526.063L105.769 516.596C92.9456 508.36 77.3455 500.069 58.3945 491.941L51.0212 502.532L45.8403 486.778C32.2714 481.426 17.1667 476.166 0.35692 471.063C-0.568694 482.158 0.330115 493.679 2.77306 505.184L7.43109 506.337L3.71444 509.306C9.44801 532.775 21.4829 555.955 37.4485 575.08L53.062 578.946L46.0239 584.568C77.327 616.544 120.232 633.024 160.563 611.484C160.563 611.484 179.906 567.795 112.396 521.016L108.882 526.063Z" stroke="#190000" stroke-width="1.17823" stroke-linecap="round" stroke-linejoin="round"/>
<path d="M56.1346 501.757C53.5371 510.971 55.8057 522.668 56.9946 527.589C32.5599 507.143 11.595 488.401 3.17204 478.463C3.17204 478.463 15.1183 493.257 41.6418 517.876L41.6335 517.871C41.6335 517.871 24.7417 517.006 13.9034 523.139C25.9595 517.616 39.6519 519.673 44.7476 520.744C51.3771 526.826 58.8561 533.466 67.2114 540.59C61.5837 541.447 43.378 544.926 30.4121 555.509C46.802 543.751 62.9749 542.478 69.4657 542.504C77.3942 549.219 86.099 556.332 95.5802 563.841C90.1455 566.065 72.4247 573.744 59.4414 584.342C79.3493 570.06 99.6032 568.938 101.983 568.854C109.287 574.529 117.037 580.388 125.233 586.432C117.468 587.291 96.8641 590.525 82.4261 601.552C100.978 589.271 119.856 588.329 128.247 588.642C138.343 596.025 149.115 603.639 160.563 611.484L161.599 608.344C152.174 602.224 137.641 591.615 121.064 578.915C118.814 572.114 114.25 553.948 121.141 533.593C114.171 550.251 115.734 570.239 116.269 575.226C107.653 568.575 98.5851 561.443 89.466 554.143C87.1636 548.242 82.029 531.975 87.0792 514.363C81.7906 528.629 84.2726 546.289 84.9892 550.55C76.6227 543.814 68.2702 536.983 60.2408 530.299C57.7607 524.564 53.9327 513.244 56.1346 501.757Z" fill="#357C49"/>
<path d="M124.281 555.969L120.774 550.26C122.115 540.102 124.632 528.495 128.689 515.239L137.326 516.053L131.49 506.554C134.634 497.265 138.493 487.228 143.172 476.385C149.269 480.727 154.792 486.191 159.636 492.44L158.206 495.331L161.344 494.713C170.9 507.846 177.573 524.088 180.457 540.586L175.661 550.279L181.603 549.108C184.424 579.058 174.254 608.236 145.686 619.584C145.686 619.584 114.863 610.543 120.165 555.581L124.281 555.969Z" fill="#409159"/>
<mask id="mask2_97_451" style="mask-type:luminance" maskUnits="userSpaceOnUse" x="119" y="476" width="64" height="144">
<path d="M124.281 555.969L120.774 550.26C122.115 540.102 124.632 528.495 128.689 515.239L137.326 516.053L131.49 506.554C134.634 497.265 138.493 487.228 143.172 476.385C149.269 480.727 154.792 486.191 159.636 492.44L158.206 495.331L161.344 494.713C170.9 507.846 177.573 524.088 180.457 540.586L175.661 550.279L181.603 549.108C184.424 579.058 174.254 608.236 145.686 619.584C145.686 619.584 114.863 610.543 120.165 555.581L124.281 555.969Z" fill="white"/>
</mask>
<g mask="url(#mask2_97_451)">
<path d="M160.075 465.838C72.617 486.144 231.109 571.366 160.626 576.37C90.1444 581.374 173.578 650.401 173.578 650.401L225.185 595.456L225.852 507.841L156.694 458.068" fill="#357C49"/>
</g>
<path d="M124.281 555.969L120.774 550.26C122.115 540.102 124.632 528.495 128.689 515.239L137.326 516.053L131.49 506.554C134.634 497.265 138.493 487.228 143.172 476.385C149.269 480.727 154.792 486.191 159.636 492.44L158.206 495.331L161.344 494.713C170.9 507.846 177.573 524.088 180.457 540.586L175.661 550.279L181.603 549.108C184.424 579.058 174.254 608.236 145.686 619.584C145.686 619.584 114.863 610.543 120.165 555.581L124.281 555.969Z" stroke="#190000" stroke-width="1.17823" stroke-linecap="round" stroke-linejoin="round"/>
<path d="M134.708 518.341C140.565 521.009 145.584 527.252 147.594 529.999C147.709 508.579 147.192 489.681 145.748 481.043C145.748 481.043 148.154 493.598 149.274 517.901L149.275 517.894C149.275 517.894 156.166 508.849 164.02 505.949C155.95 509.739 151.06 517.66 149.398 520.74C149.641 526.784 149.802 533.506 149.831 540.887C152.714 538.371 162.405 530.537 173.466 528.477C160.315 531.784 152.639 539.533 149.835 542.876C149.839 549.861 149.723 557.419 149.447 565.544C152.948 563.72 164.584 557.959 175.661 555.896C159.687 559.913 150.316 569.822 149.24 571.007C148.982 577.22 148.624 583.742 148.168 590.573C151.98 586.96 162.586 577.789 174.515 575.166C160.156 579.356 151.476 588.637 147.993 593.079C147.399 601.467 146.63 610.302 145.686 619.584L143.625 618.753C144.576 611.258 145.44 599.192 146.119 585.169C143.606 581.062 136.263 570.832 122.824 565.53C134.4 569.186 143.98 578.666 146.308 581.106C146.635 573.796 146.912 566.045 147.124 558.195C145.095 554.451 138.975 544.752 127.742 539.697C137.361 543.177 145.348 552.119 147.224 554.337C147.399 547.118 147.52 539.865 147.575 532.841C145.708 529.078 141.56 522.198 134.708 518.341Z" fill="#357C49"/>
<path d="M98.9524 534.617L100.556 536.905" stroke="#190000" stroke-width="1.17823" stroke-linecap="round" stroke-linejoin="round"/>
<path d="M162.311 546.952L159.157 549.944" stroke="#190000" stroke-width="1.17823" stroke-linecap="round" stroke-linejoin="round"/>
<path d="M112.971 605.197L116.333 604.913" stroke="#190000" stroke-width="1.17823" stroke-linecap="round" stroke-linejoin="round"/>
<path d="M56.3742 560.467C57.1363 560.791 57.9784 560.877 58.7906 560.715" stroke="#190000" stroke-width="1.17823" stroke-linecap="round" stroke-linejoin="round"/>
<path d="M35.7406 495.062L36.6167 498.616" stroke="#190000" stroke-width="1.17823" stroke-linecap="round" stroke-linejoin="round"/>
<path d="M27.6733 530.686C28.7961 531.602 30.1485 532.194 31.5837 532.396" stroke="#190000" stroke-width="1.17823" stroke-linecap="round" stroke-linejoin="round"/>
<path d="M315.396 629.309C323.133 627.05 332.913 654.461 359.075 663.894C371.56 656.217 384.332 646.269 396.575 634.847C363.797 632.874 332.515 615.381 337.852 612.513C343.891 609.268 359.104 628.291 403.929 627.743C427.75 603.944 448.818 574.993 460.729 547.202C435.405 561.923 360.965 583.344 378.41 561.443C387.145 550.478 407.773 580.974 463.611 540.028C466.944 531.098 469.259 522.346 470.33 513.99C449.465 523.019 419.406 537.897 419.567 528.339C419.875 510.101 443.383 523.814 470.926 507.058C471.262 499.436 470.458 492.214 468.317 485.574C450.447 478.548 433.44 473.424 417.314 469.93C385.571 492.563 393.864 530.676 382.643 527.236C369.894 523.327 389.367 487.581 410.345 468.505C403.158 467.136 396.157 466.091 389.341 465.369C363.457 487.841 364.837 532.863 351.807 540.956C336.982 550.164 326.65 522.755 383.376 464.181C374.335 463.669 359.467 463.89 351.135 464.416C300.639 489.992 321.219 548.995 314.539 550.567C307.393 552.248 301.882 489.383 346.542 464.761C332.521 465.968 319.551 468.572 307.663 472.277C264.292 510.323 296.097 562.609 288.803 566.141C281.234 569.805 247.007 520.229 295.775 476.474C272.47 485.733 253.962 499.354 240.552 514.602C230.139 550.703 282.601 574.713 269.162 580.565C252.883 587.656 235.021 547.415 232.463 524.849C225.233 535.109 220.174 545.797 217.369 556.174C221.217 584.529 249.037 579.223 251.077 594.927C251.463 597.898 229.22 594.567 215.859 585.888C220.397 608.102 239.23 623.802 273.64 621.72C273.351 686.113 310.161 691.026 352.063 667.981C328.651 653.932 308.29 631.385 315.396 629.309Z" fill="#FBD164"/>
<path d="M352.598 569.73C355.706 569.326 358.385 570.231 358.582 571.751C358.78 573.271 356.421 574.83 353.313 575.234C350.206 575.637 347.527 574.732 347.329 573.213C347.132 571.692 349.491 570.133 352.598 569.73Z" fill="#FBD164"/>
<path d="M308.88 569.583C308.984 566.451 310.869 563.973 313.089 564.047C315.309 564.121 317.025 566.719 316.921 569.851C316.816 572.983 314.932 575.462 312.711 575.388C310.491 575.314 308.775 572.715 308.88 569.583Z" fill="#FBD164"/>
<path d="M299.629 586.68C299.525 589.812 297.99 592.302 296.201 592.243C294.412 592.183 293.046 589.596 293.15 586.464C293.254 583.332 294.79 580.842 296.579 580.902C298.368 580.961 299.734 583.548 299.629 586.68Z" fill="#FBD164"/>
<path d="M315.396 629.309C323.133 627.05 332.913 654.461 359.075 663.894C371.56 656.217 384.332 646.269 396.575 634.847C363.797 632.874 332.515 615.381 337.852 612.513C343.891 609.268 359.104 628.291 403.929 627.743C427.75 603.944 448.818 574.993 460.729 547.202C435.405 561.923 360.965 583.344 378.41 561.443C387.145 550.478 407.773 580.974 463.611 540.028C466.944 531.098 469.259 522.346 470.33 513.99C449.465 523.019 419.406 537.897 419.567 528.339C419.875 510.101 443.383 523.814 470.926 507.058C471.262 499.436 470.458 492.214 468.317 485.574C450.447 478.548 433.44 473.424 417.314 469.93C385.571 492.563 393.864 530.676 382.643 527.236C369.894 523.327 389.367 487.581 410.345 468.505C403.158 467.136 396.157 466.091 389.341 465.369C363.457 487.841 364.837 532.863 351.807 540.956C336.982 550.164 326.65 522.755 383.376 464.181C374.335 463.669 359.467 463.89 351.135 464.416C300.639 489.992 321.219 548.995 314.539 550.567C307.393 552.248 301.882 489.383 346.542 464.761C332.521 465.968 319.551 468.572 307.663 472.277C264.292 510.323 296.097 562.609 288.803 566.141C281.234 569.805 247.007 520.229 295.775 476.474C272.47 485.733 253.962 499.354 240.552 514.602C230.139 550.703 282.601 574.713 269.162 580.565C252.883 587.656 235.021 547.415 232.463 524.849C225.233 535.109 220.174 545.797 217.369 556.174C221.217 584.529 249.037 579.223 251.077 594.927C251.463 597.898 229.22 594.567 215.859 585.888C220.397 608.102 239.23 623.802 273.64 621.72C273.351 686.113 310.161 691.026 352.063 667.981C328.651 653.932 308.29 631.385 315.396 629.309Z" stroke="#190000" stroke-width="1.17823" stroke-linecap="round" stroke-linejoin="round"/>
<path d="M352.598 569.73C355.706 569.326 358.385 570.231 358.582 571.751C358.78 573.271 356.421 574.83 353.313 575.234C350.206 575.637 347.527 574.732 347.329 573.213C347.132 571.692 349.491 570.133 352.598 569.73Z" stroke="#190000" stroke-width="1.17823" stroke-linecap="round" stroke-linejoin="round"/>
<path d="M308.88 569.583C308.984 566.451 310.869 563.973 313.089 564.047C315.309 564.121 317.025 566.719 316.921 569.851C316.816 572.983 314.932 575.462 312.711 575.388C310.491 575.314 308.775 572.715 308.88 569.583Z" stroke="#190000" stroke-width="1.17823" stroke-linecap="round" stroke-linejoin="round"/>
<path d="M299.629 586.68C299.525 589.812 297.99 592.302 296.201 592.243C294.412 592.183 293.046 589.596 293.15 586.464C293.254 583.332 294.79 580.842 296.579 580.902C298.368 580.961 299.734 583.548 299.629 586.68Z" stroke="#190000" stroke-width="1.17823" stroke-linecap="round" stroke-linejoin="round"/>
<path d="M373.65 600.825C376.572 602.584 379.916 603.518 383.327 603.528" stroke="#190000" stroke-width="1.17823" stroke-linecap="round" stroke-linejoin="round"/>
<path d="M303.868 509.219C302.786 512.346 302.571 515.708 303.248 518.947" stroke="#190000" stroke-width="1.17823" stroke-linecap="round" stroke-linejoin="round"/>
<path d="M280.769 631.045L280.269 633.617" stroke="#190000" stroke-width="1.17823" stroke-linecap="round" stroke-linejoin="round"/>
<path d="M346.344 567.432L359.091 562.424C369.393 544.191 379.556 522.143 389.234 495.51L374.13 486.218L395.341 477.885C401.63 458.852 407.672 437.72 413.365 414.26C398.072 413.853 382.335 415.982 366.74 420.228L365.52 426.709L361.157 421.84C329.405 431.531 298.537 449.845 273.54 473.237L269.45 494.959L261.188 485.74C219.753 531.173 200.478 591.32 233.166 644.978C233.166 644.978 294.61 668.12 353.542 571.86L346.344 567.432Z" fill="#357C49"/>
<mask id="mask3_97_451" style="mask-type:luminance" maskUnits="userSpaceOnUse" x="216" y="414" width="198" height="234">
<path d="M346.344 567.432L359.091 562.424C369.393 544.191 379.556 522.143 389.234 495.51L374.13 486.218L395.341 477.885C401.63 458.852 407.672 437.72 413.365 414.26C398.072 413.853 382.335 415.982 366.74 420.228L365.52 426.709L361.157 421.84C329.405 431.531 298.537 449.845 273.54 473.237L269.45 494.959L261.188 485.74C219.753 531.173 200.478 591.32 233.166 644.978C233.166 644.978 294.61 668.12 353.542 571.86L346.344 567.432Z" fill="white"/>
</mask>
<g mask="url(#mask3_97_451)">
<path d="M410.496 552.669C396.891 454.075 276.971 663.73 279.467 581.388C281.964 499.047 190.205 615.549 190.205 615.549L249.136 662.819L352.867 641.364L420.107 546.685" fill="#357C49"/>
</g>
<path d="M346.344 567.432L359.091 562.424C369.393 544.191 379.556 522.143 389.234 495.51L374.13 486.218L395.341 477.885C401.63 458.852 407.672 437.72 413.365 414.26C398.072 413.853 382.335 415.982 366.74 420.228L365.52 426.709L361.157 421.84C329.405 431.531 298.537 449.845 273.54 473.237L269.45 494.959L261.188 485.74C219.753 531.173 200.478 591.32 233.166 644.978C233.166 644.978 294.61 668.12 353.542 571.86L346.344 567.432Z" stroke="#190000" stroke-width="1.17823" stroke-linecap="round" stroke-linejoin="round"/>
<path d="M375.591 493.173C362.747 490.326 346.876 494.347 340.216 496.361C366.369 461.247 390.453 431.027 403.432 418.698C403.432 418.698 384.064 436.238 352.349 474.542L352.356 474.53C352.356 474.53 352.229 451.288 342.972 436.895C351.486 453.006 349.73 471.952 348.656 479.026C340.826 488.595 332.298 499.372 323.174 511.389C321.561 503.735 315.372 479.027 299.844 462.061C317.25 483.633 320.254 505.724 320.723 514.631C312.126 526.031 303.045 538.527 293.479 552.119C290.006 544.835 278.092 521.12 262.543 504.131C283.685 530.334 286.8 558.034 287.1 561.292C279.881 571.755 272.445 582.844 264.79 594.558C263.009 583.972 256.969 555.955 240.718 537.003C259.01 561.501 261.77 587.329 261.993 598.865C252.649 613.291 243.04 628.662 233.166 644.978L237.555 646.156C245.218 632.749 258.644 611.985 274.78 588.254C283.935 584.639 308.504 576.965 336.966 584.836C313.57 576.569 286.269 580.267 279.467 581.388C287.923 569.05 297.004 556.055 306.309 542.976C314.226 539.358 336.146 531.049 360.702 536.608C340.718 530.462 316.681 535.24 310.892 536.555C319.482 524.552 328.204 512.562 336.752 501.026C344.427 497.177 359.66 491.045 375.591 493.173Z" fill="#357C49"/>
<path d="M306.512 590.884L314.071 585.628C328.111 586.678 344.232 589.229 362.735 593.764L362.29 605.678L374.869 596.932C387.857 600.524 401.927 605.037 417.168 610.615C411.685 619.317 404.618 627.319 396.421 634.452L392.343 632.714L393.435 636.971C376.16 651.103 354.395 661.52 331.984 666.76L318.313 660.935L320.382 668.996C279.509 675.194 238.687 663.509 220.896 625.197C220.896 625.197 230.904 582.206 306.724 585.206L306.512 590.884Z" fill="#409159"/>
<mask id="mask4_97_451" style="mask-type:luminance" maskUnits="userSpaceOnUse" x="220" y="585" width="198" height="86">
<path d="M306.512 590.884L314.071 585.628C328.111 586.678 344.232 589.229 362.735 593.764L362.29 605.678L374.869 596.932C387.857 600.524 401.927 605.037 417.168 610.615C411.685 619.317 404.618 627.319 396.421 634.452L392.343 632.714L393.435 636.971C376.16 651.103 354.395 661.52 331.984 666.76L318.313 660.935L320.382 668.996C279.509 675.194 238.687 663.509 220.896 625.197C220.896 625.197 230.904 582.206 306.724 585.206L306.512 590.884Z" fill="white"/>
</mask>
<g mask="url(#mask4_97_451)">
<path d="M432.953 632.985C398.293 514.573 293.692 738.647 281.347 642.336C269.002 546.024 180.785 665.86 180.785 665.86L260.18 732.393L380.439 726.496L443.35 627.742" fill="#357C49"/>
</g>
<path d="M306.512 590.884L314.071 585.628C328.111 586.678 344.232 589.229 362.735 593.764L362.29 605.678L374.869 596.932C387.857 600.524 401.927 605.037 417.168 610.615C411.685 619.317 404.618 627.319 396.421 634.452L392.343 632.714L393.435 636.971C376.16 651.103 354.395 661.52 331.984 666.76L318.313 660.935L320.382 668.996C279.509 675.194 238.687 663.509 220.896 625.197C220.896 625.197 230.904 582.206 306.724 585.206L306.512 590.884Z" stroke="#190000" stroke-width="1.17823" stroke-linecap="round" stroke-linejoin="round"/>
<path d="M358.947 602.264C355.743 610.508 347.567 617.878 343.955 620.849C373.351 619.342 399.239 617.163 410.978 614.511C410.978 614.511 393.94 618.788 360.683 622.215L360.692 622.215C360.692 622.215 373.638 630.965 378.228 641.515C372.401 630.739 361.153 624.646 356.797 622.604C348.524 623.409 339.315 624.152 329.189 624.765C332.866 628.525 344.368 641.211 348.054 656.228C342.494 638.441 331.266 628.513 326.462 624.925C316.879 625.474 306.5 625.903 295.331 626.156C298.106 630.817 306.915 646.334 310.606 661.371C303.852 639.766 289.53 627.681 287.82 626.297C279.275 626.425 270.299 626.441 260.892 626.346C266.145 631.295 279.552 645.134 284.079 661.296C277.214 641.922 263.806 630.734 257.44 626.302C245.886 626.139 233.705 625.77 220.896 625.197L221.877 622.304C232.233 623.026 248.855 623.275 268.147 623.116C273.587 619.348 287.052 608.479 293.28 589.628C289.165 605.794 276.902 619.675 273.736 623.059C283.791 622.939 294.447 622.716 305.233 622.398C310.212 619.323 323.043 610.172 329.105 594.368C325.079 607.835 313.431 619.488 310.534 622.234C320.452 621.914 330.413 621.515 340.053 621.045C345.071 618.191 354.187 611.965 358.947 602.264Z" fill="#357C49"/>
<path d="M333.837 554.473L330.822 556.851" stroke="#190000" stroke-width="1.17823" stroke-linecap="round" stroke-linejoin="round"/>
<path d="M321.839 642.36L317.489 638.265" stroke="#190000" stroke-width="1.17823" stroke-linecap="round" stroke-linejoin="round"/>
<path d="M238.092 579.194L238.743 583.785" stroke="#190000" stroke-width="1.17823" stroke-linecap="round" stroke-linejoin="round"/>
<path d="M295.061 498.066C294.676 499.137 294.622 500.299 294.907 501.401" stroke="#190000" stroke-width="1.17823" stroke-linecap="round" stroke-linejoin="round"/>
<path d="M383.19 464.672L378.383 466.15" stroke="#190000" stroke-width="1.17823" stroke-linecap="round" stroke-linejoin="round"/>
<path d="M333.688 456.374C332.518 457.986 331.812 459.887 331.646 461.872" stroke="#190000" stroke-width="1.17823" stroke-linecap="round" stroke-linejoin="round"/>
<path d="M204.217 656.914C270.211 650.048 356.063 579.49 289.66 558.404C289.66 558.404 375.448 529.468 310.018 499.021C310.018 499.021 365.333 454.848 300.453 452.729C300.453 452.729 325.854 399.251 298.132 393.497C268.32 387.31 261.021 440.9 261.021 440.9C261.021 440.9 209.289 421.231 225.388 476.305C225.388 476.305 169.672 465.685 196.341 525.22C196.341 525.22 117.831 524.345 171.454 613.04C199.514 659.452 204.217 656.914 204.217 656.914Z" fill="#FBD164"/>
<mask id="mask5_97_451" style="mask-type:luminance" maskUnits="userSpaceOnUse" x="152" y="393" width="183" height="264">
<path d="M204.217 656.914C270.211 650.048 356.063 579.49 289.66 558.404C289.66 558.404 375.448 529.468 310.018 499.021C310.018 499.021 365.333 454.848 300.453 452.729C300.453 452.729 325.854 399.251 298.132 393.497C268.32 387.31 261.021 440.9 261.021 440.9C261.021 440.9 209.289 421.231 225.388 476.305C225.388 476.305 169.672 465.685 196.341 525.22C196.341 525.22 117.831 524.345 171.454 613.04C199.514 659.452 204.217 656.914 204.217 656.914Z" fill="white"/>
</mask>
<g mask="url(#mask5_97_451)">
<path d="M55.798 296.764C144.749 244.218 199.023 284.814 142.462 361.012C85.8998 437.209 183.454 362.792 212.687 351.66C212.687 351.66 95.3528 436.412 212.945 409.435C330.536 382.458 186.664 431.795 235.742 480.494C284.819 529.192 68.0807 509.09 59.0045 507.619C49.9283 506.148 51.3845 323.993 51.3845 323.993" fill="#F9B964"/>
<path d="M200.781 666.675C257.331 550.153 343.913 592.66 316.382 683.475C288.851 774.289 355.571 671.317 379.333 650.973C379.333 650.973 297.48 770.348 399.071 705.273C500.662 640.197 381.878 735.19 444.51 764.471C507.141 793.751 296.333 847.967 287.293 849.645C278.252 851.323 218.155 679.361 218.155 679.361" fill="#F9B964"/>
</g>
<path d="M204.217 656.914C270.211 650.048 356.063 579.49 289.66 558.404C289.66 558.404 375.448 529.468 310.018 499.021C310.018 499.021 365.333 454.848 300.453 452.729C300.453 452.729 325.854 399.251 298.132 393.497C268.32 387.31 261.021 440.9 261.021 440.9C261.021 440.9 209.289 421.231 225.388 476.305C225.388 476.305 169.672 465.685 196.341 525.22C196.341 525.22 117.831 524.345 171.454 613.04C199.514 659.452 204.217 656.914 204.217 656.914Z" stroke="#190000" stroke-width="1.17823" stroke-linecap="round" stroke-linejoin="round"/>
<path d="M285.685 417.496C284.968 433.505 213.56 645.9 204.217 656.914C204.217 656.914 277.836 447.478 285.685 417.496Z" fill="#F9B964"/>
<path d="M235.244 450.733C246.113 473.622 253.921 480.424 253.921 480.424L235.244 450.733Z" fill="#F9B964"/>
<path d="M310.595 465.78C288.235 477.699 281.802 485.814 281.802 485.814L310.595 465.78Z" fill="#F9B964"/>
<path d="M200.781 490.447C226.444 520.075 240.432 527.276 240.432 527.276L200.781 490.447Z" fill="#F9B964"/>
<path d="M179.689 550.153C205.352 579.781 219.34 586.982 219.34 586.982L179.689 550.153Z" fill="#F9B964"/>
<path d="M267.609 533.546L315.83 520.512C280.23 525.373 267.609 533.546 267.609 533.546Z" fill="#F9B964"/>
<path d="M243.929 589.978L292.15 576.944C256.549 581.804 243.929 589.978 243.929 589.978Z" fill="#F9B964"/>
<path d="M196.09 597.154C197.127 599.078 198.716 600.649 200.653 601.664" stroke="#190000" stroke-width="1.17823" stroke-linecap="round" stroke-linejoin="round"/>
<path d="M258.862 560.152L270.961 554.877" stroke="#190000" stroke-width="1.17823" stroke-linecap="round" stroke-linejoin="round"/>
<path d="M255.064 455.052C255.981 456.941 256.495 459 256.575 461.099" stroke="#190000" stroke-width="1.17823" stroke-linecap="round" stroke-linejoin="round"/>
<path d="M107.662 411.665C84.0121 441.167 101.567 478.957 101.567 478.957C119.365 449.944 109.863 429.877 107.662 411.665Z" fill="#FBD164"/>
<mask id="mask6_97_451" style="mask-type:luminance" maskUnits="userSpaceOnUse" x="95" y="411" width="18" height="68">
<path d="M107.662 411.665C84.0121 441.167 101.567 478.957 101.567 478.957C119.365 449.944 109.863 429.877 107.662 411.665Z" fill="white"/>
</mask>
<g mask="url(#mask6_97_451)">
<path d="M114.82 406.918L107.662 411.665C107.662 411.665 108.143 461.925 101.567 478.957C94.99 495.99 124.247 449.829 124.247 449.829L127.968 430.974" fill="#F9B964"/>
</g>
<path d="M107.662 411.665C84.0121 441.167 101.567 478.957 101.567 478.957C119.365 449.944 109.863 429.877 107.662 411.665Z" stroke="#190000" stroke-width="1.17823" stroke-linecap="round" stroke-linejoin="round"/>
<path d="M137.244 451.855C105.6 484.195 121.824 509.881 121.824 509.881C139.622 480.867 139.445 470.066 137.244 451.855Z" fill="#FBD164"/>
<mask id="mask7_97_451" style="mask-type:luminance" maskUnits="userSpaceOnUse" x="117" y="451" width="22" height="59">
<path d="M137.244 451.855C105.6 484.195 121.824 509.881 121.824 509.881C139.622 480.867 139.445 470.066 137.244 451.855Z" fill="white"/>
</mask>
<g mask="url(#mask7_97_451)">
<path d="M142.121 442.677L137.244 451.855C137.244 451.855 120.376 487.037 121.824 509.881C123.272 532.724 144.4 478.957 144.4 478.957L147.328 454.38" fill="#F9B964"/>
</g>
<path d="M137.244 451.855C105.6 484.195 121.824 509.881 121.824 509.881C139.622 480.867 139.445 470.066 137.244 451.855Z" stroke="#190000" stroke-width="1.17823" stroke-linecap="round" stroke-linejoin="round"/>
<path d="M155.774 478.958C127.261 513.563 133.044 536.984 133.044 536.984C160.65 517.464 157.975 497.169 155.774 478.958Z" fill="#FBD164"/>
<mask id="mask8_97_451" style="mask-type:luminance" maskUnits="userSpaceOnUse" x="132" y="478" width="26" height="59">
<path d="M155.774 478.958C127.261 513.563 133.044 536.984 133.044 536.984C160.65 517.464 157.975 497.169 155.774 478.958Z" fill="white"/>
</mask>
<g mask="url(#mask8_97_451)">
<path d="M159.356 472.584L155.774 478.957C155.774 478.957 146.067 522.063 133.044 536.983C120.021 551.904 169.759 513.489 169.759 513.489L169.109 474.535" fill="#F9B964"/>
</g>
<path d="M155.774 478.958C127.261 513.563 133.044 536.984 133.044 536.984C160.65 517.464 157.975 497.169 155.774 478.958Z" stroke="#190000" stroke-width="1.17823" stroke-linecap="round" stroke-linejoin="round"/>
<path d="M182.29 521.832C144.811 541.682 142.121 569.478 142.121 569.478C174.535 559.863 182.29 536.984 182.29 521.832Z" fill="#FBD164"/>
<mask id="mask9_97_451" style="mask-type:luminance" maskUnits="userSpaceOnUse" x="142" y="521" width="41" height="49">
<path d="M182.29 521.832C144.811 541.682 142.121 569.478 142.121 569.478C174.535 559.863 182.29 536.984 182.29 521.832Z" fill="white"/>
</mask>
<g mask="url(#mask9_97_451)">
<path d="M188.614 505.991L182.29 521.832C182.29 521.832 165.196 554.543 142.121 569.478C119.046 584.413 174.31 569.478 174.31 569.478L192.84 550.522L199.666 520.372" fill="#F9B964"/>
</g>
<path d="M182.29 521.832C144.811 541.682 142.121 569.478 142.121 569.478C174.535 559.863 182.29 536.984 182.29 521.832Z" stroke="#190000" stroke-width="1.17823" stroke-linecap="round" stroke-linejoin="round"/>
<path d="M42.8574 488.59C77.2349 503.81 102.016 479.681 102.016 479.681C68.747 472.487 59.3143 480.486 42.8574 488.59Z" fill="#FBD164"/>
<mask id="mask10_97_451" style="mask-type:luminance" maskUnits="userSpaceOnUse" x="42" y="476" width="61" height="18">
<path d="M42.8574 488.59C77.2349 503.81 102.016 479.681 102.016 479.681C68.747 472.487 59.3143 480.486 42.8574 488.59Z" fill="white"/>
</mask>
<g mask="url(#mask10_97_451)">
<path d="M20.3837 505.991L42.8574 488.59C42.8574 488.59 82.299 489.394 101.566 478.957C120.834 468.521 106.223 490.951 106.223 490.951L59.8811 507.97L28.6733 504.661" fill="#F9B964"/>
</g>
<path d="M42.8574 488.59C77.2349 503.81 102.016 479.681 102.016 479.681C68.747 472.487 59.3143 480.486 42.8574 488.59Z" stroke="#190000" stroke-width="1.17823" stroke-linecap="round" stroke-linejoin="round"/>
<path d="M62.4527 514.018C94.9622 532.902 122.23 511.623 122.23 511.623C89.9462 500.839 79.6963 507.76 62.4527 514.018Z" fill="#FBD164"/>
<mask id="mask11_97_451" style="mask-type:luminance" maskUnits="userSpaceOnUse" x="62" y="505" width="61" height="17">
<path d="M62.4528 514.018C94.9622 532.902 122.23 511.623 122.23 511.623C89.9462 500.839 79.6963 507.76 62.4528 514.018Z" fill="white"/>
</mask>
<g mask="url(#mask11_97_451)">
<path d="M51.1039 521.863L62.4528 514.018C62.4528 514.018 118.204 516.766 123.748 510.147L98.891 498.266C98.891 498.266 79.6299 499.485 77.4356 499.972C75.2413 500.46 57.443 504.605 57.443 504.605" fill="#F9B964"/>
</g>
<path d="M62.4527 514.018C94.9622 532.902 122.23 511.623 122.23 511.623C89.9462 500.839 79.6963 507.76 62.4527 514.018Z" stroke="#190000" stroke-width="1.17823" stroke-linecap="round" stroke-linejoin="round"/>
<path d="M78.8249 538.192C111.334 557.075 133.621 537.672 133.621 537.672C101.337 526.887 96.0684 531.934 78.8249 538.192Z" fill="#FBD164"/>
<mask id="mask12_97_451" style="mask-type:luminance" maskUnits="userSpaceOnUse" x="78" y="531" width="56" height="16">
<path d="M78.8249 538.192C111.334 557.075 133.621 537.672 133.621 537.672C101.337 526.887 96.0684 531.934 78.8249 538.192Z" fill="white"/>
</mask>
<g mask="url(#mask12_97_451)">
<path d="M65.4075 545.655L78.8249 538.192C78.8249 538.192 112.763 543.594 133.621 537.672C154.48 531.749 133.621 544.427 133.621 544.427L81.9867 554.505" fill="#F9B964"/>
</g>
<path d="M78.8249 538.192C111.334 557.075 133.621 537.672 133.621 537.672C101.337 526.887 96.0684 531.934 78.8249 538.192Z" stroke="#190000" stroke-width="1.17823" stroke-linecap="round" stroke-linejoin="round"/>
<path d="M90.9311 560.144C119.924 584.079 144.4 572.67 144.4 572.67C125.46 555.742 108.965 556.783 90.9311 560.144Z" fill="#FBD164"/>
<mask id="mask13_97_451" style="mask-type:luminance" maskUnits="userSpaceOnUse" x="90" y="558" width="55" height="18">
<path d="M90.9311 560.144C119.924 584.079 144.4 572.67 144.4 572.67C125.46 555.742 108.965 556.783 90.9311 560.144Z" fill="white"/>
</mask>
<g mask="url(#mask13_97_451)">
<path d="M71.6443 567.988L90.9311 560.144C90.9311 560.144 126.572 572.861 144.4 572.67C162.228 572.479 125.548 585.063 125.548 585.063L95.2993 579.536" fill="#F9B964"/>
</g>
<path d="M90.9311 560.144C119.924 584.079 144.4 572.67 144.4 572.67C125.46 555.742 108.965 556.783 90.9311 560.144Z" stroke="#190000" stroke-width="1.17823" stroke-linecap="round" stroke-linejoin="round"/>
<path d="M89.3813 467.948C94.8476 472.021 99.7715 476.793 104.225 481.958L105.874 483.915C106.424 484.567 106.983 485.214 107.481 485.906L110.562 489.996C112.489 492.81 114.456 495.607 116.195 498.545C119.75 504.376 122.957 510.412 125.8 516.622C128.663 522.817 131.291 529.125 133.606 535.545C138.311 548.356 142.229 561.473 145.045 574.825C146.443 581.503 147.666 588.215 148.608 594.968C149.089 598.342 149.504 601.726 149.89 605.111C150.213 608.504 150.552 611.893 150.702 615.301C150.702 615.301 146.893 619.01 147.031 613.385C147.437 596.846 144.328 583.118 142.51 575.391C139.383 562.209 136.056 549.059 131.648 536.241C129.472 529.825 126.985 523.518 124.262 517.319C121.561 511.107 118.495 505.061 115.08 499.211C113.429 496.252 111.552 493.434 109.71 490.591L106.758 486.458C106.281 485.757 105.744 485.102 105.214 484.442L103.627 482.458C99.3383 477.22 94.5681 472.353 89.225 468.155L89.3813 467.948Z" fill="#FBD164" stroke="#190000" stroke-width="1.17823" stroke-linecap="round" stroke-linejoin="round"/>
<path d="M89.6695 468.531C85.8476 431.911 53.619 422.092 53.619 422.092C65.2534 460.635 74.9032 465.135 89.6695 468.531Z" fill="#FBD164"/>
<mask id="mask14_97_451" style="mask-type:luminance" maskUnits="userSpaceOnUse" x="53" y="422" width="37" height="47">
<path d="M89.6695 468.531C85.8476 431.911 53.619 422.092 53.619 422.092C65.2534 460.635 74.9032 465.135 89.6695 468.531Z" fill="white"/>
</mask>
<g mask="url(#mask14_97_451)">
<path d="M21.3589 422.092H53.619C53.619 422.092 73.8775 453.023 89.6695 468.531C105.461 484.039 49.1535 468.531 49.1535 468.531L35.0124 443.164" fill="#F9B964"/>
</g>
<path d="M89.6695 468.531C85.8476 431.911 53.619 422.092 53.619 422.092C65.2534 460.635 74.9032 465.135 89.6695 468.531Z" stroke="#190000" stroke-width="1.17823" stroke-linecap="round" stroke-linejoin="round"/>
<path d="M76.8948 448.38V450.094" stroke="#190000" stroke-width="1.17823" stroke-linecap="round" stroke-linejoin="round"/>
<path d="M128.107 481.827L127.55 483.546" stroke="#190000" stroke-width="1.17823" stroke-linecap="round" stroke-linejoin="round"/>
<path d="M91.4645 515.49L97.7422 516.125" stroke="#190000" stroke-width="1.17823" stroke-linecap="round" stroke-linejoin="round"/>
<path d="M68.0399 484.657H69.7537" stroke="#190000" stroke-width="1.17823" stroke-linecap="round" stroke-linejoin="round"/>
<path d="M146.878 511.508V512.079" stroke="#190000" stroke-width="1.17823" stroke-linecap="round" stroke-linejoin="round"/>
<path d="M104.602 538.358H105.745" stroke="#190000" stroke-width="1.17823" stroke-linecap="round" stroke-linejoin="round"/>
<path d="M117.145 566.961L120.58 569.236" stroke="#190000" stroke-width="1.17823" stroke-linecap="round" stroke-linejoin="round"/>
<path d="M164.588 546.928L164.016 547.499" stroke="#190000" stroke-width="1.17823" stroke-linecap="round" stroke-linejoin="round"/>
<path d="M375.694 630.956H193.47C192.964 630.956 192.553 631.367 192.553 631.873V733.796C192.553 734.303 192.964 734.714 193.47 734.714H375.694C376.2 734.714 376.611 734.303 376.611 733.796V631.873C376.611 631.367 376.2 630.956 375.694 630.956Z" fill="#FB81B2"/>
<mask id="mask15_97_451" style="mask-type:luminance" maskUnits="userSpaceOnUse" x="192" y="630" width="185" height="105">
<path d="M375.694 630.956H193.47C192.964 630.956 192.553 631.367 192.553 631.873V733.796C192.553 734.303 192.964 734.714 193.47 734.714H375.694C376.2 734.714 376.611 734.303 376.611 733.796V631.873C376.611 631.367 376.2 630.956 375.694 630.956Z" fill="white"/>
</mask>
<g mask="url(#mask15_97_451)">
<path d="M223.408 740.267C223.408 740.267 221.034 721.512 216.221 723.049C211.407 724.586 203.656 709.743 219.433 702.154C219.433 702.154 191.39 663.041 199.807 648.121C208.224 633.201 284.061 628.868 280.537 648.121C277.014 667.373 269.325 654.657 269.325 654.657L299.288 636.78C299.288 636.78 377.918 632.672 388.427 648.121C398.936 663.569 393.997 734.714 393.997 734.714L393.234 727.17L393.997 612.172L169.495 601.118L136.726 589.519" fill="#EA71A2"/>
</g>
<path d="M375.694 630.956H193.47C192.964 630.956 192.553 631.367 192.553 631.873V733.796C192.553 734.303 192.964 734.714 193.47 734.714H375.694C376.2 734.714 376.611 734.303 376.611 733.796V631.873C376.611 631.367 376.2 630.956 375.694 630.956Z" stroke="#190000" stroke-width="1.17823" stroke-linecap="round" stroke-linejoin="round"/>
<path d="M247.954 717.549C267.126 717.549 282.668 702.007 282.668 682.835C282.668 663.663 267.126 648.121 247.954 648.121C228.782 648.121 213.24 663.663 213.24 682.835C213.24 702.007 228.782 717.549 247.954 717.549Z" fill="#9879C9" stroke="#190000" stroke-width="1.17823" stroke-linecap="round" stroke-linejoin="round"/>
<path d="M247.954 707.381C261.511 707.381 272.501 696.392 272.501 682.835C272.501 669.278 261.511 658.288 247.954 658.288C234.398 658.288 223.408 669.278 223.408 682.835C223.408 696.392 234.398 707.381 247.954 707.381Z" fill="#7B5CB7"/>
<path d="M343.17 694.884C349.825 694.884 355.219 689.489 355.219 682.835C355.219 676.18 349.825 670.786 343.17 670.786C336.516 670.786 331.121 676.18 331.121 682.835C331.121 689.489 336.516 694.884 343.17 694.884Z" fill="#9879C9" stroke="#190000" stroke-width="1.17823" stroke-linecap="round" stroke-linejoin="round"/>
<path d="M343.17 688.269C346.171 688.269 348.604 685.836 348.604 682.835C348.604 679.834 346.171 677.401 343.17 677.401C340.169 677.401 337.736 679.834 337.736 682.835C337.736 685.836 340.169 688.269 343.17 688.269Z" fill="#7B5CB7"/>
<path d="M206.385 605.477L237.923 539.847L213.844 529.023L182.125 603.227L206.385 605.477Z" fill="#FACCC4"/>
<mask id="mask16_97_451" style="mask-type:luminance" maskUnits="userSpaceOnUse" x="182" y="529" width="56" height="77">
<path d="M206.385 605.477L237.923 539.848L213.844 529.023L182.125 603.227L206.385 605.477Z" fill="white"/>
</mask>
<g mask="url(#mask16_97_451)">
<path d="M184.59 585.96C193.816 577.809 206.385 583.882 206.385 583.882L197.464 571.068L183.517 571.873L183.303 575.664" fill="#ED707B"/>
</g>
<path d="M206.385 605.477L237.923 539.847L213.844 529.023L182.125 603.227L206.385 605.477Z" stroke="#190000" stroke-width="1.17823" stroke-linecap="round" stroke-linejoin="round"/>
<path d="M188.592 574.144C189.551 579.271 215.191 588.171 221.866 585.943L241.652 539.961C241.652 539.961 222.081 519.388 218.958 520.819C212.245 523.896 188.592 574.144 188.592 574.144Z" fill="#409159"/>
<mask id="mask17_97_451" style="mask-type:luminance" maskUnits="userSpaceOnUse" x="188" y="520" width="54" height="67">
<path d="M188.592 574.144C189.551 579.271 215.191 588.171 221.866 585.943L241.652 539.961C241.652 539.961 222.081 519.388 218.958 520.819C212.245 523.896 188.592 574.144 188.592 574.144Z" fill="white"/>
</mask>
<g mask="url(#mask17_97_451)">
<path d="M194.979 549.974C176.634 561.323 232.079 577.093 232.079 577.093L226.884 582.301C226.884 582.301 185.646 570.978 184.036 560.357C182.427 549.737 194.979 549.974 194.979 549.974Z" fill="white" stroke="#190000" stroke-width="1.17823" stroke-linecap="round" stroke-linejoin="round"/>
</g>
<path d="M188.592 574.144C189.551 579.271 215.191 588.171 221.866 585.943L241.652 539.961C241.652 539.961 222.081 519.388 218.958 520.819C212.245 523.896 188.592 574.144 188.592 574.144Z" stroke="#190000" stroke-width="1.17823" stroke-linecap="round" stroke-linejoin="round"/>
<path d="M332.748 572.435C332.748 572.435 314.105 497.064 303.504 499.855C292.903 502.647 292.134 530.049 292.134 530.049L300.785 556.255L309.255 582.301L332.748 572.435Z" fill="#FACCC4"/>
<mask id="mask18_97_451" style="mask-type:luminance" maskUnits="userSpaceOnUse" x="292" y="499" width="41" height="84">
<path d="M332.748 572.435C332.748 572.435 314.105 497.064 303.504 499.855C292.903 502.647 292.134 530.049 292.134 530.049L300.785 556.255L309.255 582.301L332.748 572.435Z" fill="white"/>
</mask>
<g mask="url(#mask18_97_451)">
<path d="M332.775 553.521C331.136 546.913 319.882 556.857 311.12 557.913C302.359 558.969 327.954 540.531 327.954 540.531L330.931 539.22" fill="#ED707B"/>
</g>
<path d="M332.748 572.435C332.748 572.435 314.105 497.064 303.504 499.855C292.903 502.647 292.134 530.049 292.134 530.049L300.785 556.255L309.255 582.301L332.748 572.435Z" stroke="#190000" stroke-width="1.17823" stroke-linecap="round" stroke-linejoin="round"/>
<path d="M138.244 644.951L287.33 631.889L299.288 579.311L131.603 610.579C122.573 612.706 116.525 620.441 117.266 628.916C118.117 638.665 127.566 645.886 138.244 644.951Z" fill="#516DDB"/>
<mask id="mask19_97_451" style="mask-type:luminance" maskUnits="userSpaceOnUse" x="117" y="579" width="183" height="67">
<path d="M138.244 644.951L287.33 631.889L299.288 579.311L131.603 610.579C122.573 612.706 116.525 620.441 117.266 628.916C118.117 638.665 127.566 645.886 138.244 644.951Z" fill="white"/>
</mask>
<g mask="url(#mask19_97_451)">
<path d="M114.84 624.511C128.308 624.511 139.226 621.172 139.226 617.054C139.226 612.936 128.308 609.597 114.84 609.597C101.372 609.597 90.4543 612.936 90.4543 617.054C90.4543 621.172 101.372 624.511 114.84 624.511Z" fill="#FACCC4" stroke="#190000" stroke-width="1.17823" stroke-linecap="round" stroke-linejoin="round"/>
</g>
<path d="M138.244 644.951L287.33 631.889L299.288 579.311L131.603 610.579C122.573 612.706 116.525 620.441 117.266 628.916C118.117 638.665 127.566 645.886 138.244 644.951Z" stroke="#190000" stroke-width="1.17823" stroke-linecap="round" stroke-linejoin="round"/>
<path d="M218.336 521.202C218.336 521.202 274.472 490.472 302.619 494.118C310.989 495.202 309.255 608.961 309.255 608.961L226.558 599.84L225.278 534.164" fill="#409159"/>
<mask id="mask20_97_451" style="mask-type:luminance" maskUnits="userSpaceOnUse" x="218" y="493" width="92" height="116">
<path d="M218.336 521.202C218.336 521.202 274.472 490.472 302.619 494.118C310.989 495.202 309.255 608.961 309.255 608.961L226.558 599.84L225.278 534.164" fill="white"/>
</mask>
<g mask="url(#mask20_97_451)">
<path d="M271.389 520.866C282.221 512.834 286.961 500.872 281.975 494.148C276.989 487.424 264.166 488.483 253.334 496.515C242.501 504.546 237.762 516.508 242.747 523.233C247.733 529.957 260.556 528.897 271.389 520.866Z" fill="white" stroke="#190000" stroke-width="1.17823" stroke-linecap="round" stroke-linejoin="round"/>
<path d="M271.314 516.508C280.554 509.056 284.26 498.322 279.591 492.532C274.921 486.743 263.646 488.091 254.405 495.543C245.165 502.995 241.46 513.729 246.129 519.519C250.798 525.308 262.074 523.961 271.314 516.508Z" fill="#FACCC4" stroke="#190000" stroke-width="1.17823" stroke-linecap="round" stroke-linejoin="round"/>
<path d="M225.278 534.164C238.574 572.513 270.265 539.786 277.75 536.207C285.234 532.628 289.217 567.748 289.217 567.748L290.189 589.519L225.278 589.805L225.471 569.436L225.278 534.164Z" fill="#357C49"/>
<path d="M263.87 530.049C259.649 530.049 255.523 531.3 252.014 533.645C248.504 535.99 245.769 539.323 244.154 543.222C242.539 547.122 242.116 551.413 242.94 555.552C243.763 559.692 245.796 563.494 248.78 566.479C251.765 569.463 255.567 571.496 259.707 572.319C263.846 573.142 268.137 572.72 272.036 571.105C275.936 569.489 279.269 566.754 281.614 563.245C283.958 559.735 285.21 555.609 285.21 551.389C285.21 545.729 282.961 540.301 278.959 536.299C274.957 532.297 269.529 530.049 263.87 530.049ZM263.87 568.156C260.553 568.156 257.312 567.173 254.554 565.33C251.797 563.488 249.648 560.869 248.379 557.805C247.11 554.742 246.778 551.37 247.425 548.118C248.072 544.865 249.669 541.878 252.014 539.533C254.359 537.188 257.346 535.591 260.599 534.944C263.851 534.297 267.222 534.629 270.286 535.898C273.35 537.167 275.969 539.316 277.811 542.073C279.654 544.831 280.637 548.072 280.637 551.389C280.637 553.591 280.203 555.771 279.361 557.805C278.518 559.84 277.283 561.688 275.726 563.245C274.169 564.802 272.321 566.037 270.286 566.88C268.252 567.722 266.072 568.156 263.87 568.156Z" fill="#1E1E1E"/>
<path d="M256.725 546.673C257.177 546.673 257.619 546.539 257.995 546.288C258.371 546.036 258.664 545.679 258.837 545.262C259.01 544.844 259.055 544.384 258.967 543.941C258.879 543.497 258.661 543.09 258.341 542.77C258.022 542.45 257.614 542.232 257.171 542.144C256.727 542.056 256.267 542.101 255.85 542.274C255.432 542.447 255.075 542.74 254.824 543.116C254.572 543.492 254.438 543.934 254.438 544.387C254.438 544.993 254.679 545.575 255.108 546.003C255.537 546.432 256.118 546.673 256.725 546.673Z" fill="#1E1E1E"/>
<path d="M271.015 542.1C270.563 542.1 270.121 542.234 269.745 542.486C269.369 542.737 269.076 543.094 268.903 543.512C268.73 543.929 268.684 544.389 268.772 544.833C268.861 545.276 269.078 545.684 269.398 546.003C269.718 546.323 270.125 546.541 270.569 546.629C271.012 546.717 271.472 546.672 271.89 546.499C272.308 546.326 272.665 546.033 272.916 545.657C273.167 545.281 273.301 544.839 273.301 544.387C273.301 544.086 273.242 543.789 273.127 543.512C273.012 543.234 272.844 542.982 272.632 542.77C272.419 542.557 272.167 542.389 271.89 542.274C271.612 542.159 271.315 542.1 271.015 542.1Z" fill="#1E1E1E"/>
<path d="M271.396 549.488C270.893 549.488 270.411 549.687 270.054 550.041C269.697 550.395 269.495 550.876 269.491 551.379H269.491V551.389C269.491 552.863 268.912 554.278 267.878 555.33C266.845 556.381 265.44 556.984 263.966 557.009C262.492 557.034 261.067 556.479 259.998 555.464C258.929 554.448 258.303 553.053 258.253 551.58C258.26 551.513 258.263 551.446 258.263 551.379C258.263 550.874 258.062 550.389 257.705 550.032C257.348 549.675 256.863 549.474 256.358 549.474C255.852 549.474 255.368 549.675 255.01 550.032C254.653 550.389 254.452 550.874 254.452 551.379H254.438V551.389C254.437 553.89 255.429 556.289 257.197 558.059C258.965 559.829 261.363 560.824 263.865 560.825C266.366 560.826 268.766 559.834 270.535 558.066C272.305 556.298 273.3 553.9 273.301 551.398L273.301 551.393V551.392V551.389V551.379H273.301C273.297 550.876 273.095 550.396 272.738 550.041C272.381 549.687 271.899 549.488 271.396 549.488Z" fill="#1E1E1E"/>
</g>
<path d="M218.336 521.202C218.336 521.202 274.472 490.472 302.619 494.118C310.989 495.202 309.255 608.961 309.255 608.961L226.558 599.84L225.278 534.164" stroke="#190000" stroke-width="1.17823" stroke-linecap="round" stroke-linejoin="round"/>
<path d="M298.061 523.697C299.106 538.608 301.85 553.521 301.85 553.521C322.733 553.52 327.954 540.531 327.954 540.531C327.954 540.531 316.297 495.242 301.981 494.118" fill="#409159"/>
<mask id="mask21_97_451" style="mask-type:luminance" maskUnits="userSpaceOnUse" x="298" y="494" width="30" height="60">
<path d="M298.061 523.697C299.106 538.608 301.85 553.521 301.85 553.521C322.733 553.52 327.954 540.531 327.954 540.531C327.954 540.531 316.297 495.242 301.981 494.118" fill="white"/>
</mask>
<g mask="url(#mask21_97_451)">
<path d="M325.969 517.814C326.298 518.677 326.475 519.59 326.49 520.513C326.677 533.86 292.134 544.821 292.134 544.821L295.616 553.521L331.44 531.392" fill="white"/>
<path d="M325.969 517.814C326.298 518.677 326.475 519.59 326.49 520.513C326.677 533.86 292.134 544.821 292.134 544.821L295.616 553.521L331.44 531.392" stroke="#190000" stroke-width="1.17823" stroke-linecap="round" stroke-linejoin="round"/>
</g>
<path d="M298.061 523.697C299.106 538.608 301.85 553.521 301.85 553.521C322.733 553.52 327.954 540.531 327.954 540.531C327.954 540.531 316.297 495.242 301.981 494.118" stroke="#190000" stroke-width="1.17823" stroke-linecap="round" stroke-linejoin="round"/>
<path d="M285.957 573.687L279.464 561.457L381.179 501.673L386.087 510.918L285.957 573.687Z" fill="#4B4D5C" stroke="#190000" stroke-width="1.17823" stroke-linecap="round" stroke-linejoin="round"/>
<path d="M410.108 495.1C410.776 494.402 411.207 493.512 411.341 492.555C411.474 491.598 411.303 490.624 410.851 489.77C409.903 487.985 407.959 487.19 406.19 487.721C405.86 487.2 405.415 486.761 404.889 486.438C404.362 486.116 403.769 485.918 403.154 485.86L403.066 485.694C402.98 485.518 402.857 485.363 402.705 485.24C402.553 485.116 402.377 485.027 402.187 484.978C401.998 484.929 401.801 484.922 401.608 484.956C401.416 484.991 401.233 485.067 401.072 485.178L376.611 502.327L383.222 514.778L409.527 501.103C409.883 500.904 410.146 500.572 410.26 500.18C410.373 499.788 410.329 499.368 410.135 499.009L410.046 498.842C410.315 498.256 410.46 497.621 410.47 496.977C410.481 496.333 410.357 495.694 410.108 495.1Z" fill="#D3575E" stroke="#190000" stroke-width="1.17823" stroke-linecap="round" stroke-linejoin="round"/>
<path d="M283.49 586.685C275.841 591.329 266.119 588.462 261.776 580.282C257.433 572.102 260.114 561.706 267.763 557.061C275.412 552.417 285.134 555.284 289.477 563.464C293.819 571.644 291.139 582.04 283.49 586.685Z" fill="#FBD164" stroke="#190000" stroke-width="1.17823" stroke-linecap="round" stroke-linejoin="round"/>
<path d="M303.886 554.885C280.485 509.637 273.675 556.731 248.935 554.337C224.384 551.962 186.285 561.341 212.679 610.262C238.436 659.57 265.491 629.39 276.165 605.628C286.921 581.682 328.227 599.563 303.886 554.885Z" fill="#FBD164"/>
<mask id="mask22_97_451" style="mask-type:luminance" maskUnits="userSpaceOnUse" x="203" y="535" width="109" height="102">
<path d="M303.886 554.885C280.485 509.637 273.675 556.731 248.935 554.337C224.384 551.962 186.285 561.341 212.679 610.262C238.436 659.57 265.491 629.39 276.165 605.628C286.921 581.682 328.227 599.563 303.886 554.885Z" fill="white"/>
</mask>
<g mask="url(#mask22_97_451)">
<path opacity="0.4" d="M258.346 587.459C208.265 609.738 231.529 643.302 257.063 634.403C282.596 625.505 212.732 647.747 212.732 647.747L197.127 597.401L200.333 566.591L215.948 561.247C215.948 561.247 188.592 610.243 238.926 580.778C269.653 562.79 252.145 588.4 252.145 588.4" fill="#F08059"/>
<path opacity="0.4" d="M258.263 551.379C298.612 530.172 301.85 553.521 301.85 553.521L296.375 530.426H282.668" fill="#F08059"/>
</g>
<path d="M303.886 554.885C280.485 509.637 273.675 556.731 248.935 554.337C224.384 551.962 186.285 561.341 212.679 610.262C238.436 659.57 265.491 629.39 276.165 605.628C286.921 581.682 328.227 599.563 303.886 554.885Z" stroke="#190000" stroke-width="1.17823" stroke-linecap="round" stroke-linejoin="round"/>
<path d="M282.236 586.66C274.961 591.077 265.714 588.351 261.583 580.57C257.452 572.789 260.002 562.9 267.277 558.483C274.553 554.065 283.8 556.792 287.931 564.573C292.062 572.353 289.512 582.242 282.236 586.66Z" fill="#FBD164" stroke="#190000" stroke-width="1.17823" stroke-linecap="round" stroke-linejoin="round"/>
<path d="M267.763 557.061C260.113 561.706 257.433 572.102 261.776 580.282C266.119 588.462 275.841 591.329 283.49 586.685C291.139 582.04 293.819 571.644 289.477 563.464C285.134 555.283 275.412 552.417 267.763 557.061ZM281.538 583.009C275.787 586.5 268.478 584.345 265.213 578.195C261.948 572.045 263.963 564.229 269.714 560.737C275.465 557.246 282.774 559.4 286.039 565.55C289.304 571.7 287.289 579.517 281.538 583.009Z" fill="#FBD164" stroke="#190000" stroke-width="1.17823" stroke-linecap="round" stroke-linejoin="round"/>
<path d="M267.763 557.061C260.113 561.706 257.433 572.102 261.776 580.282C266.119 588.462 275.841 591.329 283.49 586.685C291.139 582.04 293.819 571.644 289.477 563.464C285.134 555.283 275.412 552.417 267.763 557.061ZM281.538 583.009C275.787 586.5 268.478 584.345 265.213 578.195C261.948 572.045 263.963 564.229 269.714 560.737C275.465 557.246 282.774 559.4 286.039 565.55C289.304 571.7 287.289 579.517 281.538 583.009Z" fill="#D3575E" stroke="#190000" stroke-width="1.17823" stroke-linecap="round" stroke-linejoin="round"/>
<path d="M248.383 615.188L226.884 574.694L232.856 571.068L254.355 611.562L248.383 615.188Z" fill="#F08059" stroke="#190000" stroke-width="1.17823" stroke-linecap="round" stroke-linejoin="round"/>
<path d="M397.585 493.253L235.595 588.995L235.904 589.518L397.894 493.776L397.585 493.253Z" fill="white" stroke="#190000" stroke-width="1.17823" stroke-linecap="round" stroke-linejoin="round"/>
<path d="M399.037 495.995L399.35 496.515L238.1 593.647L237.787 593.128" fill="white"/>
<path d="M399.037 495.995L399.35 496.515L238.1 593.647L237.787 593.128" stroke="#190000" stroke-width="1.17823" stroke-linecap="round" stroke-linejoin="round"/>
<path d="M400.483 498.737L240 597.313L240.318 597.83L400.8 499.254L400.483 498.737Z" fill="white" stroke="#190000" stroke-width="1.17823" stroke-linecap="round" stroke-linejoin="round"/>
<path d="M391.72 485C390.641 485.656 390.263 487.122 390.876 488.276L394.783 485.903C394.17 484.75 392.799 484.345 391.72 485Z" fill="#399FE8" stroke="#190000" stroke-width="1.17823" stroke-linecap="round" stroke-linejoin="round"/>
<path d="M403.624 509.162L391.576 486.469L392.974 485.621L405.021 508.314L403.624 509.162Z" fill="#399FE8" stroke="#190000" stroke-width="1.17823" stroke-linecap="round" stroke-linejoin="round"/>
<path d="M385.364 488.859C384.285 489.515 383.907 490.981 384.52 492.135L388.427 489.762C387.814 488.609 386.443 488.204 385.364 488.859Z" fill="#399FE8" stroke="#190000" stroke-width="1.17823" stroke-linecap="round" stroke-linejoin="round"/>
<path d="M397.268 513.021L385.22 490.328L386.618 489.48L398.665 512.173L397.268 513.021Z" fill="#399FE8" stroke="#190000" stroke-width="1.17823" stroke-linecap="round" stroke-linejoin="round"/>
<path d="M379.008 492.719C377.929 493.374 377.551 494.84 378.164 495.994L382.071 493.622C381.458 492.468 380.087 492.063 379.008 492.719Z" fill="#399FE8" stroke="#190000" stroke-width="1.17823" stroke-linecap="round" stroke-linejoin="round"/>
<path d="M392.165 517.501C391.086 518.156 389.715 517.751 389.102 516.598L393.01 514.225C393.622 515.379 393.244 516.846 392.165 517.501Z" fill="#399FE8" stroke="#190000" stroke-width="1.17823" stroke-linecap="round" stroke-linejoin="round"/>
<path d="M390.912 516.881L378.864 494.188L380.262 493.339L392.309 516.032L390.912 516.881Z" fill="#399FE8" stroke="#190000" stroke-width="1.17823" stroke-linecap="round" stroke-linejoin="round"/>
<path d="M272.077 691.742L261.787 737.837H280.692L299.288 677.401L272.077 691.742Z" fill="#FACCC4"/>
<mask id="mask23_97_451" style="mask-type:luminance" maskUnits="userSpaceOnUse" x="261" y="677" width="39" height="61">
<path d="M272.077 691.742L261.787 737.837H280.692L299.288 677.401L272.077 691.742Z" fill="white"/>
</mask>
<g mask="url(#mask23_97_451)">
<path d="M257.84 705.661C286.399 709.926 294.677 705.007 294.677 705.007L274.974 699.144" fill="#ED707B"/>
</g>
<path d="M272.077 691.742L261.787 737.837H280.692L299.288 677.401L272.077 691.742Z" stroke="#190000" stroke-width="1.17823" stroke-linecap="round" stroke-linejoin="round"/>
<path d="M363.09 511.449C363.09 511.449 365.442 532.222 361.172 537.356L334.095 597.288C330.037 606.271 318.336 607.02 313.216 598.626L306.421 587.485L339.823 551.282L348.237 537.88C348.237 537.88 346.058 527.534 340.802 528.089C340.802 528.089 345.532 514.555 359.209 520.501C359.209 520.501 358.396 510.1 363.09 511.449Z" fill="#FACCC4" stroke="#190000" stroke-width="1.17823" stroke-linecap="round" stroke-linejoin="round"/>
<path d="M276.582 499.183L269.479 468.346L241.547 483.392C249.318 487.205 248.962 500.771 247.914 509.162" fill="#FACCC4"/>
<mask id="mask24_97_451" style="mask-type:luminance" maskUnits="userSpaceOnUse" x="241" y="468" width="36" height="42">
<path d="M276.582 499.183L269.479 468.346L241.547 483.392C249.318 487.205 248.962 500.771 247.914 509.162" fill="white"/>
</mask>
<g mask="url(#mask24_97_451)">
<path d="M260.461 482.62C246.23 490.105 253.563 501.349 245.386 501.629C234.784 501.99 239.42 482.371 239.42 482.371L253.928 479.572L256.031 481.669" fill="#ED707B"/>
</g>
<path d="M276.582 499.183L269.479 468.346L241.547 483.392C249.318 487.205 248.962 500.771 247.914 509.162" stroke="#190000" stroke-width="1.17823" stroke-linecap="round" stroke-linejoin="round"/>
<path d="M270.006 478.24C281.566 465.508 261.015 448.629 261.015 448.629H245.742C222.415 473.915 231.238 493.707 255.048 486.533" fill="#FACCC4"/>
<path d="M270.006 478.24C281.566 465.508 261.015 448.629 261.015 448.629H245.742C222.415 473.915 231.238 493.707 255.048 486.533" stroke="#190000" stroke-width="1.17823" stroke-linecap="round" stroke-linejoin="round"/>
<path d="M257.722 448.29C212.991 453.574 220.204 402.435 263.59 435.123C263.59 435.123 296.078 436.325 285.712 462.319C275.347 488.312 262.546 481.893 262.546 481.893L263.404 467.018C263.404 467.018 245.103 462.99 257.722 448.29Z" fill="#B06759" stroke="#190000" stroke-width="1.17823" stroke-linecap="round" stroke-linejoin="round"/>
<path d="M255.898 468.571C277.531 457.727 269.23 482.849 258.771 478.692L255.898 468.571Z" fill="#FACCC4"/>
<path d="M255.898 468.571C277.531 457.727 269.23 482.849 258.771 478.692" stroke="#190000" stroke-width="1.17823" stroke-linecap="round" stroke-linejoin="round"/>
<path d="M256.102 697.751C256.102 697.751 273.247 708.356 294.677 705.007L335.527 593.588C339.77 582.016 331.52 569.758 318.281 567.963C307.715 566.53 297.594 572.379 294.509 581.702L256.102 697.751Z" fill="#516DDB"/>
<mask id="mask25_97_451" style="mask-type:luminance" maskUnits="userSpaceOnUse" x="256" y="567" width="81" height="139">
<path d="M256.102 697.751C256.102 697.751 273.247 708.356 294.677 705.007L335.527 593.588C339.77 582.016 331.52 569.758 318.281 567.963C307.715 566.53 297.594 572.379 294.509 581.702L256.102 697.751Z" fill="white"/>
</mask>
<g mask="url(#mask25_97_451)">
<path d="M324.628 577.945C334.683 577.945 342.834 574.12 342.834 569.402C342.834 564.684 334.683 560.859 324.628 560.859C314.572 560.859 306.421 564.684 306.421 569.402C306.421 574.12 314.572 577.945 324.628 577.945Z" fill="#3152BA"/>
<path d="M250.229 682.835C282.521 701.39 306.421 697.033 306.421 697.033L250.229 682.835Z" fill="#516DDB"/>
<path d="M250.229 682.835C282.521 701.39 306.421 697.033 306.421 697.033" stroke="#190000" stroke-width="1.17823" stroke-linecap="round" stroke-linejoin="round"/>
</g>
<path d="M256.102 697.751C256.102 697.751 273.247 708.356 294.677 705.007L335.527 593.588C339.77 582.016 331.52 569.758 318.281 567.963C307.715 566.53 297.594 572.379 294.509 581.702L256.102 697.751Z" stroke="#190000" stroke-width="1.17823" stroke-linecap="round" stroke-linejoin="round"/>
<path d="M202.032 592.564L236.218 581.152C236.218 581.152 248.577 570.383 249.217 566.965C249.217 566.965 253.905 570.125 245.168 577.888L263.068 569.244C263.068 569.244 268.515 570.244 252.2 580.41C252.2 580.41 270.1 573.631 270.739 572.434C271.378 571.238 279.573 575.623 257.592 583.637L268.92 581.151C268.92 581.151 272.022 585.798 255.638 587.833L263.227 589.184C263.227 589.184 266.264 592.659 256.995 591.463C247.725 590.266 236.857 596.875 236.857 596.875L196.354 617.925C190.633 620.898 183.771 617.81 181.759 611.356C180.676 607.881 182.346 602.709 183.974 598.901" fill="#FACCC4"/>
<path d="M202.032 592.564L236.218 581.152C236.218 581.152 248.577 570.383 249.217 566.965C249.217 566.965 253.905 570.125 245.168 577.888L263.068 569.244C263.068 569.244 268.515 570.244 252.2 580.41C252.2 580.41 270.1 573.631 270.739 572.434C271.378 571.238 279.573 575.623 257.592 583.637L268.92 581.151C268.92 581.151 272.022 585.798 255.638 587.833L263.227 589.184C263.227 589.184 266.264 592.659 256.995 591.463C247.725 590.266 236.857 596.875 236.857 596.875L196.354 617.925C190.633 620.898 183.771 617.81 181.759 611.356C180.676 607.881 182.346 602.709 183.974 598.901" stroke="#190000" stroke-width="1.17823" stroke-linecap="round" stroke-linejoin="round"/>
<path d="M270.15 727.17H273.016C276.281 727.17 279.412 728.467 281.72 730.776C284.029 733.084 285.326 736.215 285.326 739.48V742.792H257.84V739.48C257.84 736.215 259.137 733.084 261.446 730.776C263.754 728.467 266.885 727.17 270.15 727.17Z" fill="#4B4D5C" stroke="#190000" stroke-width="1.17823" stroke-linecap="round" stroke-linejoin="round"/>
<path d="M198.488 693.122L217.415 739.217L200.152 737.311L171.423 697.963L198.488 693.122Z" fill="#FACCC4"/>
<mask id="mask26_97_451" style="mask-type:luminance" maskUnits="userSpaceOnUse" x="171" y="693" width="47" height="47">
<path d="M198.488 693.122L217.415 739.217L200.152 737.311L171.423 697.963L198.488 693.122Z" fill="white"/>
</mask>
<g mask="url(#mask26_97_451)">
<path d="M180.996 710.891C174.076 718.937 206.422 714.39 210.766 717.549C215.111 720.707 210.123 705.661 210.123 705.661H197.893" fill="#ED707B"/>
</g>
<path d="M198.488 693.122L217.415 739.217L200.152 737.311L171.423 697.963L198.488 693.122Z" stroke="#190000" stroke-width="1.17823" stroke-linecap="round" stroke-linejoin="round"/>
<path d="M150.904 742.792C149.938 740.105 150.975 737.749 153.47 737.01C163.674 733.989 190.584 726.719 190.395 721.859C190.395 721.859 196.164 724.543 196.164 730.994L217.718 727.711L219.433 740.613L150.904 742.792Z" fill="#4B4D5C" stroke="#190000" stroke-width="1.17823" stroke-linecap="round" stroke-linejoin="round"/>
<path d="M119.557 635.92L178.953 714.496C207.731 719.271 219.433 702.154 219.433 702.154L161.69 629.799" fill="#516DDB"/>
<mask id="mask27_97_451" style="mask-type:luminance" maskUnits="userSpaceOnUse" x="119" y="629" width="101" height="87">
<path d="M119.557 635.92L178.953 714.496C207.731 719.271 219.433 702.154 219.433 702.154L161.69 629.799" fill="white"/>
</mask>
<g mask="url(#mask27_97_451)">
<path d="M141.661 707.381C187.577 716.773 215.391 694.884 215.391 694.884L141.661 707.381Z" fill="#516DDB"/>
<path d="M141.661 707.381C187.577 716.773 215.391 694.884 215.391 694.884" stroke="#190000" stroke-width="1.17823" stroke-linecap="round" stroke-linejoin="round"/>
</g>
<path d="M119.557 635.92L178.953 714.496C207.731 719.271 219.433 702.154 219.433 702.154L161.69 629.799" stroke="#190000" stroke-width="1.17823" stroke-linecap="round" stroke-linejoin="round"/>
<path d="M241.943 462.938L241.943 462.938C242.599 463.426 243.526 463.289 244.014 462.633L245.504 460.627C245.991 459.971 245.855 459.045 245.199 458.557L245.199 458.557C244.543 458.07 243.616 458.206 243.129 458.862L241.638 460.868C241.151 461.524 241.288 462.451 241.943 462.938Z" fill="#190000"/>
<path d="M247.094 453.799C250.8 456.305 250.493 458.386 248.075 456.97C245.656 455.554 244.673 452.161 247.094 453.799Z" fill="#190000"/>
<path d="M240.283 458.483C233.831 458.036 232.026 463.84 235.871 464.999L240.283 458.483Z" fill="#FACCC4"/>
<path d="M240.283 458.483C233.831 458.036 232.026 463.84 235.871 464.999" stroke="#190000" stroke-width="1.17823" stroke-linecap="round" stroke-linejoin="round"/>
<path opacity="0.27" d="M248.358 475.679C251.103 475.679 253.327 473.454 253.327 470.71C253.327 467.965 251.103 465.741 248.358 465.741C245.614 465.741 243.389 467.965 243.389 470.71C243.389 473.454 245.614 475.679 248.358 475.679Z" fill="#ED707B"/>
<path d="M241.894 470.681C238.678 471.926 236.448 469.9 236.448 469.9L241.894 470.681Z" fill="#FACCC4"/>
<path d="M241.894 470.681C238.678 471.926 236.448 469.9 236.448 469.9" stroke="#BA424D" stroke-width="1.17823" stroke-linecap="round" stroke-linejoin="round"/>
<path d="M262.78 470.832C263.487 470.378 264.572 470.731 264.876 471.514C265.18 472.298 264.617 473.29 263.789 473.431" stroke="#190000" stroke-width="1.17823" stroke-linecap="round" stroke-linejoin="round"/>
<path d="M241.334 428.434C241.901 430.151 242.813 431.733 244.015 433.084C245.217 434.435 246.682 435.526 248.321 436.289" stroke="#190000" stroke-width="1.17823" stroke-linecap="round" stroke-linejoin="round"/>
<path d="M272.329 459.299L272.543 460.586" stroke="#190000" stroke-width="1.17823" stroke-linecap="round" stroke-linejoin="round"/>
<path d="M239.93 623.653L243.363 624.511" stroke="#190000" stroke-width="1.17823" stroke-linecap="round" stroke-linejoin="round"/>
<path d="M166.983 673.636L177.335 678.017" stroke="#190000" stroke-width="1.17823" stroke-linecap="round" stroke-linejoin="round"/>
<path d="M300.865 615.071L304.727 618.289" stroke="#190000" stroke-width="1.17823" stroke-linecap="round" stroke-linejoin="round"/>
<path d="M313.042 707.215C316.338 709.023 319.809 710.492 323.402 711.598" stroke="#190000" stroke-width="1.17823" stroke-linecap="round" stroke-linejoin="round"/>
<path d="M39.7325 730.263C39.9693 736.825 66.2403 749.244 97.9844 743.681C129.728 738.118 65.0857 767.266 30.242 731.9L34.4963 727.318" fill="#FBD164"/>
<path d="M39.7325 730.263C39.9693 736.825 66.2403 749.244 97.9844 743.681C129.728 738.118 65.0857 767.266 30.242 731.9L34.4963 727.318" stroke="#190000" stroke-width="1.17823" stroke-linecap="round" stroke-linejoin="round"/>
<path d="M69.8005 648.449C33.8418 662.521 19.4425 724.7 30.2419 731.9C41.0414 739.099 115.185 740.073 125.147 728.954C144.23 707.654 133.402 602.476 93.8041 587.095L93.0754 599.688C93.0754 599.688 67.9676 604.83 61.986 624.559C61.2674 626.929 47.2594 620.959 47.2594 620.959C47.2594 620.959 49.7981 641.577 69.8005 648.449Z" fill="#FBD164"/>
<mask id="mask28_97_451" style="mask-type:luminance" maskUnits="userSpaceOnUse" x="26" y="587" width="109" height="151">
<path d="M69.8005 648.449C33.8418 662.521 19.4425 724.7 30.2419 731.9C41.0414 739.099 115.185 740.073 125.147 728.954C144.23 707.654 133.402 602.476 93.8041 587.095L93.0754 599.688C93.0754 599.688 67.9676 604.83 61.986 624.559C61.2674 626.929 47.2594 620.959 47.2594 620.959C47.2594 620.959 49.7981 641.577 69.8005 648.449Z" fill="white"/>
</mask>
<g mask="url(#mask28_97_451)">
<path d="M84.4832 600.562C90.9675 607.546 89.1386 611.868 83.4856 608.377C77.8326 604.885 74.6736 603.888 74.6736 603.888L73.5098 607.213C73.5098 607.213 81.1579 614.362 76.8351 614.695C72.5122 615.027 64.0327 608.709 64.0327 608.709L72.8447 600.895L84.4832 600.562Z" fill="white" stroke="#190000" stroke-width="1.17823" stroke-linecap="round" stroke-linejoin="round"/>
<path d="M59.5436 644.295C59.5436 644.295 67.179 647.756 69.8005 648.449C73.2598 649.364 77.0903 650.35 83.68 647.974C83.68 647.974 75.2606 656.432 56.9643 652.616C46.9033 650.518 59.5436 644.295 59.5436 644.295Z" fill="#F9B964"/>
<path d="M111.977 626.012C116.632 636.068 103.659 646.063 94.1265 644.955C84.594 643.847 90.6046 628.807 93.1335 626.012C97.0564 621.678 110.329 622.453 111.977 626.012Z" fill="white" stroke="#190000" stroke-width="1.17823" stroke-linecap="round" stroke-linejoin="round"/>
<path d="M56.0885 666.644C45.4695 658.414 39.98 663.725 27.4773 659.193C14.9747 654.66 2.78492 667.171 15.1595 677.993C27.534 688.816 31.7281 677.1 42.2584 686.85C52.7887 696.6 71.5949 678.661 56.0885 666.644Z" fill="#F08059" stroke="#190000" stroke-width="1.17823" stroke-linecap="round" stroke-linejoin="round"/>
<path d="M152.596 654.907C141.977 646.677 136.488 651.989 123.985 647.456C111.483 642.924 99.2927 655.434 111.667 666.257C124.042 677.079 128.236 665.363 138.766 675.113C149.297 684.863 168.103 666.925 152.596 654.907Z" fill="#F08059" stroke="#190000" stroke-width="1.17823" stroke-linecap="round" stroke-linejoin="round"/>
</g>
<path d="M69.8005 648.449C33.8418 662.521 19.4425 724.7 30.2419 731.9C41.0414 739.099 115.185 740.073 125.147 728.954C144.23 707.654 133.402 602.476 93.8041 587.095L93.0754 599.688C93.0754 599.688 67.9676 604.83 61.986 624.559C61.2674 626.929 47.2594 620.959 47.2594 620.959C47.2594 620.959 49.7981 641.577 69.8005 648.449Z" stroke="#190000" stroke-width="1.17823" stroke-linecap="round" stroke-linejoin="round"/>
<path d="M86.7127 627.188C87.6655 625.992 87.2631 624.086 85.8138 622.932C84.3646 621.778 82.4173 621.813 81.4645 623.009C80.5116 624.206 80.9141 626.111 82.3633 627.265C83.8126 628.419 85.7599 628.385 86.7127 627.188Z" fill="#4B4D5C" stroke="#190000" stroke-width="1.17823" stroke-linecap="round" stroke-linejoin="round"/>
<path d="M102.36 615.673C103.313 614.476 102.911 612.57 101.462 611.416C100.012 610.262 98.065 610.297 97.1122 611.494C96.1594 612.69 96.5618 614.596 98.0111 615.75C99.4603 616.904 101.408 616.869 102.36 615.673Z" fill="#4B4D5C" stroke="#190000" stroke-width="1.17823" stroke-linecap="round" stroke-linejoin="round"/>
<path d="M100.502 632.922C100.4 632.923 100.301 632.893 100.216 632.836C100.132 632.779 100.067 632.698 100.029 632.604C99.92 632.33 99.5958 630.133 99.3427 628.337C99.3302 628.248 99.3412 628.156 99.3746 628.072C99.408 627.989 99.4626 627.915 99.5331 627.858C99.6037 627.802 99.6877 627.765 99.7769 627.75C99.8662 627.736 99.9575 627.745 100.042 627.777L103.915 629.23C103.979 629.254 104.038 629.29 104.088 629.337C104.138 629.384 104.178 629.44 104.207 629.502C104.235 629.565 104.251 629.632 104.253 629.7C104.255 629.769 104.244 629.837 104.22 629.901C104.196 629.965 104.159 630.024 104.113 630.074C104.066 630.124 104.01 630.164 103.947 630.192C103.885 630.221 103.818 630.236 103.749 630.239C103.681 630.241 103.612 630.23 103.548 630.205L100.499 629.062C100.701 630.457 100.941 632.021 101.005 632.238C101.044 632.368 101.032 632.508 100.972 632.629C100.912 632.75 100.807 632.844 100.68 632.891C100.623 632.911 100.563 632.921 100.502 632.922Z" fill="#190000"/>
<path d="M122.1 681.13C129.518 703.384 124.992 735.284 128.455 736.242C131.918 737.2 144.408 739.218 143.099 731.801C141.79 724.383 135.627 724.765 136.281 713.42C136.723 705.763 135.845 680.205 133.822 672.256" fill="#FBD164"/>
<mask id="mask29_97_451" style="mask-type:luminance" maskUnits="userSpaceOnUse" x="122" y="672" width="22" height="66">
<path d="M122.1 681.13C129.518 703.384 124.992 735.284 128.455 736.242C131.918 737.2 144.408 739.218 143.099 731.801C141.79 724.383 135.627 724.765 136.281 713.42C136.723 705.763 135.845 680.205 133.822 672.256" fill="white"/>
</mask>
<g mask="url(#mask29_97_451)">
<path d="M124.235 708.411C128.152 724.742 131.994 725.647 133.491 732.63C134.987 739.613 127.52 745.051 127.52 745.051L118.693 729.138L126.519 709.33" fill="#F9B964"/>
</g>
<path d="M122.1 681.13C129.518 703.384 124.992 735.284 128.455 736.242C131.918 737.2 144.408 739.218 143.099 731.801C141.79 724.383 135.627 724.765 136.281 713.42C136.723 705.763 135.845 680.205 133.822 672.256" stroke="#190000" stroke-width="1.17823" stroke-linecap="round" stroke-linejoin="round"/>
<path d="M69.2545 679.095C71.958 677.321 71.958 678.299 78.1652 681.367C84.3724 684.435 85.3817 703.613 87.6976 712.463C91.1338 725.593 113.01 709.181 107.427 735.656C106.007 742.389 71.9581 728.644 71.9581 728.644L69.2545 679.095Z" fill="#F9B964"/>
<path d="M71.9144 673.943C88.8266 683.443 86.8576 721.428 86.8576 721.428C86.8576 721.428 103.548 718.155 108.457 731.9C113.365 745.645 34.8236 741.718 30.242 731.9" fill="#FBD164"/>
<mask id="mask30_97_451" style="mask-type:luminance" maskUnits="userSpaceOnUse" x="30" y="673" width="79" height="68">
<path d="M71.9144 673.943C88.8266 683.443 86.8576 721.428 86.8576 721.428C86.8576 721.428 103.548 718.155 108.457 731.9C113.365 745.645 34.8236 741.718 30.242 731.9" fill="white"/>
</mask>
<g mask="url(#mask30_97_451)">
<path d="M86.7928 729.215C76.1737 720.985 70.6843 726.296 58.1816 721.764C45.679 717.232 33.4892 729.742 45.8637 740.564C58.2383 751.387 62.4324 739.671 72.9627 749.421C83.493 759.171 102.299 741.232 86.7928 729.215Z" fill="#F08059" stroke="#190000" stroke-width="1.17823" stroke-linecap="round" stroke-linejoin="round"/>
</g>
<path d="M71.9144 673.943C88.8266 683.443 86.8576 721.428 86.8576 721.428C86.8576 721.428 103.548 718.155 108.457 731.9C113.365 745.645 34.8236 741.718 30.242 731.9" stroke="#190000" stroke-width="1.17823" stroke-linecap="round" stroke-linejoin="round"/>
<path d="M108.677 682.657C116.095 704.911 111.569 736.811 115.032 737.77C118.495 738.728 130.985 740.746 129.676 733.328C128.367 725.91 122.204 726.292 122.858 714.947C123.513 703.602 122.64 682.439 116.75 679.603" fill="#FBD164"/>
<path d="M108.677 682.657C116.095 704.911 111.569 736.811 115.032 737.77C118.495 738.728 130.985 740.746 129.676 733.328C128.367 725.91 122.204 726.292 122.858 714.947C123.513 703.602 122.64 682.439 116.75 679.603" stroke="#190000" stroke-width="1.17823" stroke-linecap="round" stroke-linejoin="round"/>
<path d="M99.5312 629.718C100.604 629.718 101.475 628.848 101.475 627.774C101.475 626.701 100.604 625.831 99.5312 625.831C98.458 625.831 97.5879 626.701 97.5879 627.774C97.5879 628.848 98.458 629.718 99.5312 629.718Z" fill="#4B4D5C" stroke="#190000" stroke-width="1.17823" stroke-linecap="round" stroke-linejoin="round"/>
<path d="M81.8449 637.786C80.0128 639.094 77.8895 639.936 75.6589 640.238C75.0503 640.318 75.2045 639.429 75.684 639.366C77.7585 639.101 79.7371 638.334 81.4491 637.133C81.6185 637.013 81.8871 636.934 82.0211 637.151C82.1436 637.35 82.0225 637.66 81.8449 637.786Z" fill="#190000"/>
<path d="M83.6109 641.525C83.2163 642.666 82.4956 643.667 81.538 644.403C81.4097 644.504 81.1054 644.67 80.94 644.573C80.7652 644.471 81.0486 644.241 81.1178 644.187C81.1842 644.134 81.1023 644.201 81.1416 644.168C81.1634 644.15 81.1853 644.132 81.207 644.113C81.2557 644.072 81.3036 644.029 81.3509 643.986C81.4033 643.938 81.4549 643.889 81.5054 643.839C81.5401 643.804 81.6062 643.737 81.6184 643.724C81.6731 643.665 81.7789 643.543 81.849 643.456C81.934 643.351 82.0152 643.243 82.0926 643.132C82.382 642.708 82.6096 642.246 82.7684 641.759C82.8183 641.667 82.891 641.589 82.9795 641.534C83.0826 641.458 83.1981 641.402 83.3207 641.367C83.4626 641.328 83.6782 641.322 83.6109 641.525Z" fill="#190000"/>
<path d="M111.042 616.75C110.495 618.427 109.515 619.929 108.202 621.106C108.04 621.25 107.775 621.38 107.585 621.201C107.415 621.04 107.483 620.723 107.644 620.579C108.835 619.524 109.723 618.17 110.219 616.658C110.257 616.54 110.333 616.438 110.434 616.366C110.535 616.295 110.657 616.258 110.781 616.262C110.834 616.271 110.884 616.292 110.927 616.323C110.97 616.354 111.006 616.395 111.031 616.442C111.056 616.489 111.071 616.542 111.072 616.595C111.074 616.649 111.064 616.702 111.042 616.75Z" fill="#190000"/>
<path d="M115.687 623.367C115.434 623.803 115.083 624.174 114.661 624.451C114.24 624.727 113.76 624.902 113.259 624.96C113.14 624.974 113.02 624.957 112.91 624.911C112.8 624.864 112.704 624.789 112.632 624.694C112.514 624.489 112.729 624.383 112.9 624.361C112.926 624.357 112.953 624.353 112.98 624.349C113.031 624.342 112.906 624.365 112.984 624.348C113.037 624.336 113.09 624.325 113.142 624.311C113.246 624.283 113.349 624.25 113.45 624.211C113.55 624.173 113.384 624.242 113.481 624.198C113.501 624.189 113.521 624.181 113.54 624.171C113.589 624.149 113.637 624.124 113.685 624.099C113.785 624.045 113.882 623.986 113.976 623.921C114.02 623.89 114.064 623.858 114.106 623.825C114.113 623.82 114.169 623.776 114.13 623.808C114.151 623.79 114.171 623.772 114.191 623.755C114.272 623.683 114.349 623.607 114.421 623.526C114.57 623.362 114.699 623.18 114.805 622.986C114.846 622.912 114.997 622.883 115.066 622.877C115.195 622.868 115.323 622.891 115.441 622.943C115.611 623.023 115.796 623.169 115.687 623.367Z" fill="#190000"/>
<path d="M86.158 646.278C78.6657 652.687 68.691 648.045 68.691 648.045L86.158 646.278Z" fill="#FBD164"/>
<path d="M86.158 646.278C78.6657 652.687 68.691 648.045 68.691 648.045" stroke="#190000" stroke-width="1.17823" stroke-linecap="round" stroke-linejoin="round"/>
<path d="M85.2208 666.158C86.9168 666.887 88.4573 667.933 89.7589 669.242" stroke="#190000" stroke-width="1.17823" stroke-linecap="round" stroke-linejoin="round"/>
<path d="M49.1802 709.01C50.0626 711.606 52.9716 713.339 55.6747 712.878" stroke="#190000" stroke-width="1.17823" stroke-linecap="round" stroke-linejoin="round"/>
<path d="M133.556 725.648C135.07 726.222 136.653 726.592 138.265 726.75" stroke="#190000" stroke-width="1.17823" stroke-linecap="round" stroke-linejoin="round"/>
</g>
</svg>
